<svg xmlns="http://www.w3.org/2000/svg" width="23.58" height="23.579" viewBox="0 0 23.58 23.579">
  <path id="Menu" d="M-6155.313,20.314a1.626,1.626,0,0,1,0-2.3L-6146.3,9l-9.016-9.015a1.626,1.626,0,0,1,0-2.3,1.626,1.626,0,0,1,2.3,0L-6144,6.7l9.015-9.015a1.623,1.623,0,0,1,2.3,0,1.624,1.624,0,0,1,0,2.3L-6141.7,9l9.016,9.016a1.624,1.624,0,0,1,0,2.3,1.625,1.625,0,0,1-2.3,0L-6144,11.3l-9.016,9.017a1.622,1.622,0,0,1-1.149.475A1.619,1.619,0,0,1-6155.313,20.314Z" transform="translate(6155.789 2.789)" fill="#fff"/>
</svg>
