<svg id="Facebook" xmlns="http://www.w3.org/2000/svg" width="53.487" height="53.487" viewBox="0 0 53.487 53.487">
  <path id="Path_1912" data-name="Path 1912" d="M42.107,111.282c.116-1.361-.232-2.723-.7-1.929a21.215,21.215,0,0,1-.7,3.744c-.7.794-.929.227-1.161-.34a10.539,10.539,0,0,0-.348-1.021,29.8,29.8,0,0,0,.7-7.829c.232.454.348.908.581,1.361a19.627,19.627,0,0,0-.116-2.61c.813.34,1.974,1.815,2.09-.454-1.51-3.517-3.252-6.127-4.761-9.644A14.236,14.236,0,0,0,31.772,87.8a24.09,24.09,0,0,0-7.432-2.042c.813.34-1.161,0,.348.34h-.813c-.7-.113-1.277-.113-1.858-.227,1.858-.454-2.323-.227-1.974-.567-1.277.227-1.858.113-2.555.227a6.087,6.087,0,0,0-2.671.681c-1.394.794,1.626-.34,2.555-.34-.232.113-.581.113-.929.227a5.373,5.373,0,0,1,1.974,0,15.5,15.5,0,0,0-4.529,1.7c-.116-.113-.348-.227-.813,0-.348,0-1.045.567-1.742,1.135s-1.277,1.248-1.626,1.248c-1.858,2.156-3.948,3.631-3.716,5.333-.581.454-1.277,1.021-1.858,1.475a6.033,6.033,0,0,0-1.045,3.971c.348.681.929-1.135,1.277.454a3.2,3.2,0,0,1-.348,1.815c-.348.113-.348-.567-.465-.794a31.035,31.035,0,0,1-.7,3.744c-.116.567-.232,1.135-.348,1.815a9.481,9.481,0,0,0,0,1.815,17.388,17.388,0,0,0,2.671,4.425,7.855,7.855,0,0,0,3.252,2.383c-.465-.34-.813-.794-1.277-1.135,1.858,1.588.813-.681,2.671,1.248,1.394,1.361.465,1.021.348,1.361.929.681,2.671,1.361,3.368,1.929-1.161-.567.7.681.232.34,1.742.908,2.09.794,3.6,1.588-.116,0,.116.113.348.227a10.051,10.051,0,0,1,1.161.794l-.232-.227a3.644,3.644,0,0,1,1.277.567c.7.34-.465-.113.116.227,2.439,1.248,2.9,1.021,5.226,1.361a7.193,7.193,0,0,0,5.574-.34,21.176,21.176,0,0,0,4.877-3.4,18.406,18.406,0,0,1-5.226,2.042A6.991,6.991,0,0,0,32,122.174h0a12.268,12.268,0,0,0,3.368-2.5,7.052,7.052,0,0,1-.929,1.361c1.626-.227,4.065-3.063,4.065-.908,1.626-1.7,1.277-2.383,1.626-3.858.348-.681.7-1.929,1.161-2.042C41.178,112.984,41.062,113.1,42.107,111.282Zm-2.09-9.3a7.715,7.715,0,0,0-.813-2.156,15.8,15.8,0,0,0-2.555-5.9h0A13.639,13.639,0,0,1,40.017,101.978ZM9.01,92.448c-.232.34-.581.794-.813,1.135a10.273,10.273,0,0,0,.348-1.021C8.778,92.448,8.894,92.334,9.01,92.448Zm18.116,32a1.436,1.436,0,0,1-.581-.113h-1.51l-.348-.567c-2.323-.681-3.948-.113-6.852-1.475H17.72a13.016,13.016,0,0,0-2.206-1.588c.348.227.116-.113.581.227a11.376,11.376,0,0,1-1.742-1.361c1.277.908,2.439,1.815,3.484,2.61a22.7,22.7,0,0,0,9.987,1.475,5.955,5.955,0,0,1-1.394.227C26.314,124.216,28.172,124.216,27.127,124.443Zm1.858-.908h0c.581-.227,1.045-.34,1.394-.454A2.236,2.236,0,0,1,28.985,123.535Zm8.129-5.786-.348.34a22.447,22.447,0,0,0,1.161-2.383.854.854,0,0,1,.7.681C38.275,117.068,37.346,118.089,37.114,117.749Z" transform="matrix(0.899, 0.438, -0.438, 0.899, 52.721, -77.744)" fill="#eb5c00"/>
  <path id="Path_1" data-name="Path 1" d="M88.811,26V14.156h4.044l.578-4.622H88.811V6.644c0-1.3.433-2.311,2.311-2.311h2.456V.144C93,.144,91.556,0,89.967,0,86.5,0,84.044,2.167,84.044,6.067V9.533H80v4.622h4.044V26Z" transform="translate(-60.046 13.743)" fill="#fff" fill-rule="evenodd"/>
</svg>
