<svg xmlns="http://www.w3.org/2000/svg" width="1440" height="39.057" viewBox="0 0 1440 39.057">
  <path id="Edging" d="M0,16.812V39.057H1440V11.879c-.58.055-1.122.1-1.66.153a48.984,48.984,0,0,0-6.326-1.57c.139-.055.254-.105.4-.164l-.634.12c-1.22-.221-2.534-.43-4-.63-.837-.114-1.786.1-1.338.283.766.31,1.569.6,2.424.881l-.05.009-.7-.109c-3.606-.508-6.623-.865-10.334-1.04a4.518,4.518,0,0,1-.152-.88c-.538.3-1.052.567-1.55.813-.614-.019-1.243-.033-1.9-.043a4.131,4.131,0,0,0-.732.048c-5.469-.6-11.252-1.077-17.39-1.4-.747-.04-1.485.133-1.049.29.984.356,2.085.672,3.252.966-3.035-.16-6.214-.232-9.647-.164a6.9,6.9,0,0,0-1.107.105c.113-.071.215-.137.338-.212-.7.2-1.338.386-1.943.556-2.041.051-4.076.157-6.064.318a6.847,6.847,0,0,1,1.1-1.377c-1.34.592-2.494,1.057-3.512,1.406-1.739-.07-3.489-.121-5.261-.129a18.575,18.575,0,0,0-2.01-.489,13.52,13.52,0,0,1-1.178-1.063c-.26.276-.522.518-.779.743a96.175,96.175,0,0,0-14.159-.592c-.147-.132-.289-.27-.422-.416-.113.153-.22.3-.32.437-2.756.081-5.44.249-7.8.5-.635-.06-1.285-.113-1.938-.163a7.881,7.881,0,0,1-.75-1.016c-.215.342-.42.642-.619.921-1.967-.129-4-.223-6.069-.281-.178-.169-.359-.342-.551-.53,0,.184-.008.351-.021.517-2.835-.072-5.726-.086-8.58-.055-1.393.015-2.156.361-1.172.594.706.168,1.427.322,2.151.469-1.034-.062-2.077-.119-3.124-.172-.621-.17-1.267-.353-1.957-.549.2.172.362.331.509.484-2.883-.13-5.815-.225-8.866-.26-1.414-.015-2.2.392-1.193.6,1.715.363,3.562.669,5.492.945-6.13-.2-12.252-.273-18.623-.062a5.561,5.561,0,0,0-.682.062c.1-.1.218-.2.346-.309-.989.273-1.88.506-2.7.706q-3.592.021-7.161.107a2.877,2.877,0,0,1-.915-1.373,32.04,32.04,0,0,1-3.531,1.246c-4.38-.19-8.976-.232-13.5-.135-9.747-1.451-22.46-1.186-32.874-.191-.789.076-1.2.261-1.243.45a12.121,12.121,0,0,0-1.873.482,5.09,5.09,0,0,0-.63.272c-2.633-.2-5.314-.359-8.066-.485-3.465-.576-7.1-1.1-11.111-1.527-1.209-.129-2.458.069-2.216.361.787.964,2.146,1.388,5.306,2.075a3.1,3.1,0,0,0,1.6-.068c1.744.234,3.533.447,5.333.653-1.841-.092-3.885-.248-6.193-.461-.068.215-.362.383-.75.53-2.6-.555-5.39-1.086-8.538-1.479a51.412,51.412,0,0,0-9.254-.617c-.446.03-.724.169-.315.246,2.536.473,6.416.548,9.309.947,2.654.366,5.041.8,7.342,1.26q-.63.093-1.383.152c-.6.056-1.24.1-1.862.12a210.752,210.752,0,0,0-21.755-2.412c-1.1-.062-2.274.27-1.238.45q1,.173,2,.349c-.129.038-.255.079-.383.117-4.066-.4-8.2-.733-12.8-.938-1.2-.054-2.465.278-1.348.489q1.094.2,2.208.385c-1.9-.073-3.822-.128-5.8-.163-2.12-.037-2.507.569-1.049.8.514.081,1.033.149,1.553.224-1.5-.057-3-.122-4.5-.184-.312-.048-.611-.093-.931-.145a1,1,0,0,1-.063.1c-1.188-.049-2.374-.1-3.567-.146-2.028-.086-3.231.315-2.846.641-1.117,0-2.232.014-3.347.025a.837.837,0,0,1-.011-.216c-.275.079-.537.15-.8.222l-.252,0c-2.7-.169-5.45-.3-8.218-.388a3.515,3.515,0,0,1-.168-.375c-.236.123-.464.236-.693.347-3.95-.117-7.94-.146-11.906-.075-.155-.067-.3-.129-.462-.2-.1.077-.212.144-.318.217-1.655.035-3.3.082-4.942.155-3.384-.173-6.925-.245-10.607-.241-.9,0-1.807.164-1.76.373.021.089.126.174.265.258-2.151-.217-4.33-.426-6.591-.6-1.385-.107-2.62.261-1.9.525.136.052.3.094.446.144-1.354-.208-2.725-.411-4.128-.6-1.55-.214-2.859.233-1.862.512a14.36,14.36,0,0,0,1.933.441c.47.1,1.233.007,1.086-.134.511.483,4.031,1.011,7.407,1.448a4.979,4.979,0,0,1-1.847-.006c-4.472.509-7.489.558-5.634-.722a91.948,91.948,0,0,1-10.607.953,79.058,79.058,0,0,0-10.587-1.765c-.451-.183-.9-.377-1.356-.592-.249.142-.5.262-.753.391-1.826-.156-3.725-.285-5.75-.367-1.175-.047-2.219.247-1.259.458l.024,0c-1.519-.115-3.061-.223-4.671-.315-.753-.044-1.619.077-1.592.258.081.668,3.9,1.143,5.9,1.541.346.069.994.17,1.742.28-.33.058-.658.12-1,.165-1.537-.156-3.066-.315-4.627-.46-2.731-.261-10.694-1.1-13.359-.411-.5.128-.422.288.2.388.5.08,1.018.151,1.527.228-2.423-.153-4.923-.262-7.525-.33a1.414,1.414,0,0,1,.076-.243c-.273.08-.527.151-.79.225-1.458-.033-2.946-.057-4.49-.06-1.138,0-1.663.349-.622.475.706.086,1.4.176,2.1.263q-3.454-.3-6.946-.559a4.985,4.985,0,0,1-.771-.837,11.343,11.343,0,0,1-.989.718q-2.266-.152-4.564-.273a7.106,7.106,0,0,1-.462-.606c-.38.19-.763.362-1.141.525-4.779-.22-9.681-.316-14.791-.21-.031,0-.055,0-.084,0a14.892,14.892,0,0,0-4.346.335c-.5-.211-1.007-.449-1.516-.711a23.525,23.525,0,0,1-3.843,1.565,123.057,123.057,0,0,0-13.172-.706c-1,0-1.8.3-.915.464.805.147,1.658.28,2.484.423-2.725-.247-5.485-.478-8.354-.662-1.993-.128-2.82.521-.894.67,3.693.283,7.3.607,10.867.945-2.967-.06-6.387-.34-10.539-.786a.443.443,0,0,1-.039.2c-1.417-.294-2.9-.574-4.483-.825a67.409,67.409,0,0,0-10.426-1.067c-.963,0-1.13.249-.475.361,3.161.54,7.376.774,10.686,1.3,1.458.233,2.817.488,4.118.755a3.053,3.053,0,0,1-.677.229c-.06,0-.1-.014-.173-.017-1.773-.089-3.565-.24-5.375-.421.066-.033.086-.057.165-.092l-.543.053c-7.174-.734-14.581-1.927-21.994-1.761-.107-.06-.215-.113-.323-.176-.569.26-1.128.491-1.687.71-.139-.011-.262-.024-.4-.035-1.437-.109-2.148.283-1.377.5.094.026.191.048.283.073-.43.141-.86.272-1.3.391-1.962-.167-3.966-.319-6.067-.443-1.673-.1-2.6.321-1.624.589.307.084.614.16.923.237-2.122-.165-4.252-.323-6.434-.454-1.836-.111-2.765.289-2.109.587-3.4-.232-6.8-.459-10.29-.633a6.375,6.375,0,0,0-2.683.332c-4.514-.5-9.083-.947-14.285-1.061a5,5,0,0,0-.556.019c-2.03-.454-4.173-.884-6.565-1.268a4.487,4.487,0,0,0-2.193.187c-1.2.708-1.655,1.371-1.647,2.042l-.147.037c-2.051-.829-4.184-1.645-6.715-2.425-.913-.282-2.849-.123-2.56.227a13.074,13.074,0,0,0,3.746,2.666c-.113-.031-.231-.061-.346-.092q-2.687-.675-5.792-1.257c-.847-.171-2.311-.015-1.993.245a6.207,6.207,0,0,0,2.1,1.32c-2.935-.409-5.933-.76-9.12-1.058a4.993,4.993,0,0,1-2.859.217c-.963-.187-1.941-.371-2.945-.549-.727.113-.994.366-.291.533.779.184,1.6.348,2.418.515-2.681-.281-5.406-.536-8.249-.742.079.16-.241.335-1.107.409a24.277,24.277,0,0,1-3.279,0c-.081,0-.147,0-.236,0-1.044-.029-2.064-.085-3.066-.155l-.063.013q-1.629-.112-3.323-.179c1.319.155,2.581.336,3.827.568,1.453.271-.446.8-2.035.575-1.435-.2-2.956-.414-4.414-.643-.058-.006-.113-.011-.176-.016a5.292,5.292,0,0,0,1.655.647l.052.01h-.01c.1.024.168.05.27.073,1.138.346-1.312.725-2.633.443-1.469-.314-3.273-.622-5.235-.871.816.335-.795.659-2.3.5-1.66-.177-3.048-.367-4.338-.6a11.078,11.078,0,0,1-5.041-.007c-.215.007-.446.009-.714,0h-.029q-.74.009-1.44,0a12.7,12.7,0,0,1-4.514-.232,1.107,1.107,0,0,1-.372-.128c-.037.037-.063.069-.1.11l-.01,0c.087.167-.323.334-1.165.4-.9.067-1.828.113-2.765.145a5.438,5.438,0,0,1-2.133.1l-.441-.059c-3.7.02-7.489-.173-11.061-.466-.055.152-.333.319-.958.537a4.713,4.713,0,0,1-1.45.182,69.936,69.936,0,0,1-8.714-.408,1.461,1.461,0,0,1-.742-.239l-.312-.013a3.453,3.453,0,0,1-1.38.159c-.792-.023-1.6-.052-2.4-.084a6.6,6.6,0,0,1-.994,0c-1.527-.117-3.061-.223-4.6-.327a7.333,7.333,0,0,1-1.7,0c-.64-.086-1.28-.168-1.92-.25l-2.279-.152c-.16.006-.333.017-.5.023,2.741.253,5.369.553,7.885.949.055.009.108.01.163.017a81.307,81.307,0,0,1-10.069-.557c-.278.395-1.676.574-2.946.513-.65.049-1.293.084-1.886.1.286-1.157-6.841-1.475-11.517-1.551-1.188-.019-1.618.263-1.249.461.081.045.173.083.26.126-2.109-.275-4.273-.532-6.473-.759a2.617,2.617,0,0,1-.16-.3c-.252.077-.493.146-.737.216a140.263,140.263,0,0,0-19.037-.7c-.978.037-1.4.211-1.4.391-3.192-.327-6.5-.613-10-.837-1.351-.086-2.505.156-2.591.417-4.212-.452-8.635-.79-13.687-.9-1.427-.033-2.209.237-2.172.5-5.259-.66-10.6-1.282-16.268-1.761-2.321-.2-3.887.61-1.736.865q6.248.74,12.462,1.494a57.477,57.477,0,0,1-14.615-.268c-.551.056-1.12.1-1.7.138-3.856-.585-7.767-1.138-11.9-1.642-1.309-.16-3.19.167-2.227.473.85.271,1.645.549,2.434.827l-.2,0c-4.354-.66-8.779-1.277-13.684-1.749l-.01-.005-.021,0c-.774-.074-1.527-.155-2.329-.221-1.894-.156-3.022.4-1.881.683.094.023.191.043.283.066-3.019-.385-6.033-.769-9.078-1.143a5.63,5.63,0,0,0-2.8.237c-3.242-.548-6.6-1.055-10.665-1.366-1.883-.144-3.641.345-2.73.715-2.1-.339-4.236-.667-6.539-.953-2.376-.3-4.679.363-2.914.8.7.173,1.377.349,2.048.525-5.681-.609-11.126-1.31-17.435-1.64-1.553-.081-3.347.251-2.833.592-4.713-.58-9.545-1.105-14.862-1.457-1.721-.114-2.8.176-2.775.478-3.95-.377-8.021-.692-12.349-.876-2.644-.112-3.853.723-1.186.889,6.437.4,12.472.973,18.411,1.6a25.7,25.7,0,0,1-7.706-.434,26.045,26.045,0,0,1-9.29-.289c-2.935.177-5.875.217-8.826.188s-5.915-.126-8.889-.224a130.562,130.562,0,0,1-17.165-1.284c-3.46.255-6.715.333-9.923.289a59.951,59.951,0,0,1-8.923-.652c-3.607.25-6.6.224-8.018-.64-4.7.744-7.8.649-10.358-.538a72.342,72.342,0,0,1-9.718.62c-3.517.041-6.791-.108-6.327-.954-6.791.662-9.841.625-6.909-1.1-9.17,1.6-12.359,1.507-12.391-1.193-9.561,2.431-15.987,2.255-26.626.655a8.355,8.355,0,0,1-4.635.65c-4.121.437-7.365.353-8.005-.819a77.3,77.3,0,0,1-23.483-.663c-2.623.56-5.576.8-6.447.175-5.367.8-8.653.722-9.873-.809a78.524,78.524,0,0,1-23.649.1c-2.389.405-5.235.576-5.574.105-3.8.418-5.632.484-2.725-.373-5.923.648-7.111.374-4.249-1.021-7.819,1.306-11.593,1.493-10.534-1.064-8.435,2.447-12.039,2.151-17.246-.6-.706,1.325-1.81,2.036-2.342,1.775a17.45,17.45,0,0,1-9.744-1.229c.1.445.147.8.2,1.036-3.628,1.095-5.991.744-8.454-1.013-2.214,1.888-4.556,2.045-8.629.144-1.569,2.021-4.866,1.983-11.289.649-1.729.615-4.239.906-4.963.514-5.07.656-8.354.629-8.05-.9a68.536,68.536,0,0,1-12.585.909c-4.745.034-8.648-.453-11-2.112-4.171,1.627-6.8,2.084-3.717-.191C238.078,3.551,234.676,3.512,231.673,0c-3.481,3.5-6.56,3.531-15.662.649,2.8,2.914-.422,2.917-10.319,1.407.129.766-1.409,1.154-1.76.854-4.375.7-7.567.719-7.072-.735-10.043,1.51-16.375,1.559-25.3-.561a9.356,9.356,0,0,1-5.839,1.4c-4.6.816-8.244.754-11.053-.766-3.4,1.608-5.959,1.76-9.159-.076A5.984,5.984,0,0,1,141.605,3.7a13.071,13.071,0,0,1-6.762-1.265C132.4,3.569,130.1,4.04,132.9,2.56c-8.268,1.992-11.441,2.034-10.772-1.007-6.681,3.187-9.527,3.291-14.885-.168-.449,3.648-3.41,3.733-14.458,1.2,1.094,1.4.184,2.148-1.191,2.176a16.982,16.982,0,0,1-10.227-.648C78.7,5.7,76.711,5.9,74.927,4.009c-3.061,2.211-5.9,2.327-11.462.262-1.506,2.367-5.708,2.559-14.694,1.6.333.678-.53,1.07-1.4.922-2.3.616-4.609.691-6.25-.166-2.434,1.078-4.207,1.223-5.784-.014-2.206,1.5-4.21,1.618-7.431.165-.771,1.694-2.759,1.817-7.557.484C21.209,8.849,5.6,9.89.055,8.918Zm1429.094-4.794a1.178,1.178,0,0,1,.378-.343c1.548.233,3.1.464,4.65.7q-1.75.118-2.888.133c-.031-.055-.139-.112-.4-.161C1430.264,12.231,1429.676,12.126,1429.094,12.018Zm-9.944-.617c.784.14,1.592.271,2.418.4A6.246,6.246,0,0,1,1419.15,11.4Zm4.477-.578c1.089.149,2.135.311,3.2.467-.362.056-.7.1-1.034.149q-3.395-.564-6.993-1.046C1417.941,10.143,1418.783,10.16,1423.627,10.822Zm-23.94-1.862c4.923.36,9.773.8,14.3,1.361.173.043.354.081.527.122a14.313,14.313,0,0,1-1.994.627c-3.525-.514-7.111-.946-10.9-1.243q-.728-.227-1.516-.485A1.211,1.211,0,0,1,1399.688,8.96ZM1387.465,11c.939-.029,1.875-.038,2.807-.038-.588.084-1.123.152-1.587.2C1388.278,11.1,1387.876,11.047,1387.465,11Zm-31.4-1.026h.2c3.132-.191,5.073-.059,5.865.387-.826.045-1.66.082-2.474.138a8.9,8.9,0,0,0-1.115.147A10.359,10.359,0,0,1,1356.06,9.97Zm-4.477.056c.3-.013.609-.016.913-.025a.788.788,0,0,0-.055.188C1352.157,10.133,1351.874,10.077,1351.583,10.025Zm-14.547-.533c1.545.065,3.066.148,4.532.259a.708.708,0,0,1-.05.051,18.287,18.287,0,0,0-2.613.665c-.194-.019-.372-.04-.564-.06A8.285,8.285,0,0,1,1337.036,9.492Zm-1.841.551c-1.553-.2-3.011-.435-4.4-.711,1.55.015,3.1.052,4.643.1A2.5,2.5,0,0,1,1335.194,10.042Zm-6.563.435q2.814.178,5.605.385C1333.2,11.264,1331.444,11.116,1328.632,10.477Zm-8.884-.447c1.406.049,2.793.114,4.171.182a.806.806,0,0,1,.071.382C1322.531,10.421,1321.112,10.239,1319.748,10.03Zm-64.354.948c.2,0,.414-.006.619-.006q4.765-.065,9.39.221l-.572.049q-2.145.114-4.192.264a3.775,3.775,0,0,0-.656-.126c-.572-.064-1.225-.126-1.9-.188a.582.582,0,0,1-.016-.066c-.053.018-.1.032-.144.049C1257.13,11.107,1256.286,11.039,1255.394,10.978Zm-12.719,1.345a5.434,5.434,0,0,1,.624-.248c1.338.1,2.659.166,3.987.223A8.812,8.812,0,0,1,1242.675,12.323Zm-21.06-1.007a3.862,3.862,0,0,0-1.057.173l-.635.289a.6.6,0,0,0-.073.05C1215.168,10.442,1218.489,10.836,1221.615,11.317Zm6.581,1.122c-2.681-.28-4.876-.486-5.034-.42a11.083,11.083,0,0,1,2.573-.015C1226.57,12.147,1227.381,12.294,1228.2,12.439Zm-23.924.422c.908.108,1.839.2,2.718.323.625.088,1.5.192,2.432.3-.929.1-1.739.169-2.434.2-.886-.152-1.794-.314-2.715-.477A.483.483,0,0,1,1204.272,12.861Zm-8.223-.813c2.531.193,4.95.437,7.308.7-.257.059-.5.112-.745.164C1200.516,12.563,1198.334,12.238,1196.049,12.048Zm-8.2.228c1.275.116,2.508.245,3.754.372-.076.018-.144.033-.215.052-.351-.024-.7-.05-1.049-.074q-1.637-.154-3.231-.332Q1180.194,11.709,1187.852,12.276Zm-45.574,1.532q2.805-.009,5.611.054a.537.537,0,0,0-.234.17,10.475,10.475,0,0,1-2,.348,1.624,1.624,0,0,0-.38-.106C1144.3,14.1,1143.3,13.948,1142.279,13.808Zm-14.814-.312c-.247.12-.3.255-.115.375C1125.3,13.59,1124.43,13.392,1127.464,13.5Zm-9.5.359c3.693.344,7.273.739,10.906,1.113-1.975.057-4.22,0-6.751-.133C1120.568,14.524,1119.2,14.214,1117.961,13.854Zm-35.391,1c-2.327-.494-4.388-.926-4.574-.94,2.067.136,4.063.31,6.022.5C1083.548,14.582,1083.063,14.728,1082.57,14.856Zm-16.7.046c.3.015.574.029.947.049q3.793.174,7.391.493c.7.064,1.38.132,2.072.2-.679.014-1.38.015-2.119,0A63.955,63.955,0,0,1,1065.872,14.9Zm-1.309-.059a1.139,1.139,0,0,1-.113.157C1063.467,14.871,1063.244,14.8,1064.563,14.842Zm-8.5.247c.787.011,2.77.13,6.455.407q-1,.194-1.86.322c-2.028-.237-3.8-.459-4.585-.595A.754.754,0,0,1,1056.06,15.09Zm-29.089.723c.029-.021.053-.046.081-.065.693.07,1.414.13,2.119.193C1028.469,15.925,1027.737,15.883,1026.971,15.813Zm-23.268-.387a47.589,47.589,0,0,1,8.247.261,24.987,24.987,0,0,1-2.888.559Q1006.3,15.864,1003.7,15.426ZM985.03,16.9c.635.055,1.272.112,1.92.16A4.638,4.638,0,0,1,985.03,16.9Zm-17.041-.609c1.482.168,2.917.357,4.346.563A26.173,26.173,0,0,1,967.989,16.289Zm-3.69-1.25c4.671.438,9.666.736,14.313,1.223q1.471.154,2.946.307c-1.655.138-3.176.235-4.6.29-3.793-.616-7.724-1.123-12.021-1.528C964.723,15.24,964.508,15.138,964.3,15.039Zm-35.037,2.123q1.522.155,3.045.307C930.685,17.543,929.4,17.473,929.261,17.162Zm-9.563-1c2.565.274,5.149.542,7.735.809q-1.944.142-3.68.229C922.4,16.857,921.053,16.509,919.7,16.166Zm-10.374-1.084a19.634,19.634,0,0,1,5.7.846c1.241.315,2.46.632,3.69.947-1.1,0-2.334.02-3.788.07a1.482,1.482,0,0,0-.178.025A13.71,13.71,0,0,1,909.324,15.082Zm-9,.584c.758.3,1.482.594,2.211.893-.2.036-.407.073-.608.105C901.366,16.332,900.817,16,900.327,15.665Zm-3.134,1.164c.338.084.656.172.989.257-.189.011-.375.023-.564.032C894.942,16.345,892,15.485,897.193,16.829Zm-21.2.08c.018-.008.045-.017.071-.026q2.007.177,3.992.368c-.354.032-.7.061-1.02.087Q877.477,17.131,875.988,16.909ZM747.739,15.126c3.546.073,6.967.288,10.293.587A24.6,24.6,0,0,1,747.739,15.126Zm-8.677.364c1.1.114,2.177.243,3.258.368-.349.028-.713.047-1.086.06C740.489,15.777,739.784,15.632,739.062,15.49ZM721.3,14.627c3.751.263,7.234.655,10.665,1.086-1.081.037-2.243.045-3.452.026-.472,0-.947,0-1.414-.01Q724.122,15.188,721.3,14.627Zm-38.686-.688c1.353.164,2.7.334,4.037.5-.469,0-.939.009-1.416.007-.388,0-.774-.009-1.162-.014C683.589,14.27,683.1,14.1,682.619,13.938Zm-59.88-1.9c1.474.164,2.948.327,4.433.486A19.273,19.273,0,0,1,622.739,12.036Zm-5.831-.613c1.608.155,3.192.323,4.763.5-.451.046-.892.085-1.314.115C619.138,11.845,617.976,11.645,616.909,11.423Z" fill="#003153"/>
</svg>
