<svg xmlns="http://www.w3.org/2000/svg" width="32" height="20" viewBox="0 0 32 20">
  <path id="Menu" d="M-6158.375,19A1.626,1.626,0,0,1-6160,17.375a1.625,1.625,0,0,1,1.625-1.625h28.75A1.625,1.625,0,0,1-6128,17.375,1.626,1.626,0,0,1-6129.625,19Zm0-8.374A1.626,1.626,0,0,1-6160,9a1.626,1.626,0,0,1,1.625-1.626h28.75A1.626,1.626,0,0,1-6128,9a1.626,1.626,0,0,1-1.625,1.625Zm0-8.376A1.625,1.625,0,0,1-6160,.625,1.626,1.626,0,0,1-6158.375-1h28.75A1.626,1.626,0,0,1-6128,.625a1.625,1.625,0,0,1-1.625,1.625Z" transform="translate(6160 1)" fill="#003153"/>
</svg>
