<svg xmlns="http://www.w3.org/2000/svg" viewBox="0 0 1439.186 51.847" preserveAspectRatio="xMidYMid meet" x="0" y="0">
    <path id="Path_265" data-name="Path 265" d="M232.773,266.631l1439.186-.049V230.538c-.673.073-1.3.139-1.928.2a51.142,51.142,0,0,0-7.345-2.083c.161-.073.3-.14.463-.217l-.737.159c-1.416-.293-2.942-.571-4.648-.836-.971-.151-2.074.134-1.553.376.889.411,1.821.8,2.814,1.168l-.058.011-.807-.145a107.661,107.661,0,0,0-12-1.379,6.767,6.767,0,0,1-.177-1.166c-.624.4-1.221.752-1.8,1.078-.713-.025-1.444-.044-2.208-.057a4.209,4.209,0,0,0-.85.064c-6.35-.8-13.065-1.428-20.191-1.862-.868-.053-1.724.177-1.218.385a36.271,36.271,0,0,0,3.776,1.281c-3.523-.212-7.215-.307-11.2-.217a7.05,7.05,0,0,0-1.285.14c.131-.094.25-.181.393-.282-.813.272-1.553.512-2.257.737-2.369.068-4.733.208-7.041.421a9.01,9.01,0,0,1,1.279-1.827c-1.556.785-2.9,1.4-4.078,1.865-2.019-.093-4.05-.161-6.109-.172a19.373,19.373,0,0,0-2.333-.648,16.657,16.657,0,0,1-1.367-1.409c-.3.366-.606.687-.9.986a97.885,97.885,0,0,0-16.439-.786c-.171-.175-.335-.357-.49-.552-.131.2-.256.4-.372.579-3.2.108-6.316.33-9.051.664-.737-.079-1.492-.15-2.251-.216a10.493,10.493,0,0,1-.871-1.347c-.25.453-.487.852-.719,1.221-2.284-.172-4.641-.3-7.047-.373-.207-.224-.417-.453-.639-.7,0,.244-.009.465-.025.685-3.292-.095-6.648-.115-9.962-.073-1.617.02-2.5.478-1.361.788.819.223,1.656.427,2.5.622-1.2-.082-2.412-.158-3.627-.228-.722-.225-1.471-.468-2.272-.729.231.228.42.439.591.642-3.347-.173-6.752-.3-10.294-.345-1.642-.02-2.558.52-1.385.8,1.992.482,4.135.887,6.377,1.253-7.117-.269-14.225-.362-21.623-.083a5.675,5.675,0,0,0-.792.082c.122-.129.253-.263.4-.41-1.148.362-2.183.672-3.14.936q-4.171.027-8.314.142a3.881,3.881,0,0,1-1.063-1.821,34.239,34.239,0,0,1-4.1,1.653c-5.086-.252-10.422-.308-15.678-.179-11.317-1.925-26.078-1.573-38.169-.253-.917.1-1.4.346-1.443.6a12.683,12.683,0,0,0-2.175.639,5.56,5.56,0,0,0-.731.36c-3.058-.261-6.17-.477-9.365-.643-4.023-.763-8.241-1.457-12.9-2.025-1.4-.172-2.854.091-2.573.479.914,1.278,2.491,1.841,6.161,2.752a3.168,3.168,0,0,0,1.858-.09c2.025.31,4.1.593,6.192.866-2.138-.121-4.51-.329-7.19-.611-.079.285-.42.508-.871.7-3.021-.735-6.259-1.44-9.913-1.962a52.4,52.4,0,0,0-10.744-.819c-.518.04-.841.225-.366.326,2.945.627,7.449.727,10.808,1.255,3.082.485,5.854,1.06,8.524,1.67q-.731.123-1.605.2c-.7.074-1.44.129-2.162.159a215.482,215.482,0,0,0-25.259-3.2c-1.279-.083-2.64.357-1.437.6q1.156.229,2.318.463c-.15.051-.3.1-.445.155-4.721-.534-9.526-.972-14.865-1.244-1.392-.071-2.863.369-1.565.648q1.27.271,2.564.51c-2.2-.1-4.437-.17-6.733-.216-2.461-.049-2.911.755-1.218,1.06.6.107,1.2.2,1.8.3-1.745-.076-3.487-.162-5.223-.244-.363-.064-.71-.123-1.081-.192a1.34,1.34,0,0,1-.073.139c-1.379-.065-2.756-.127-4.142-.194-2.354-.114-3.752.418-3.3.85-1.3,0-2.592.018-3.886.033a1.267,1.267,0,0,1-.012-.286c-.32.1-.624.2-.926.294l-.292,0c-3.137-.225-6.328-.394-9.542-.515a4.986,4.986,0,0,1-.195-.5c-.274.163-.539.313-.8.46-4.587-.155-9.219-.194-13.823-.1-.18-.089-.35-.171-.536-.266-.119.1-.247.191-.369.288-1.922.047-3.837.109-5.738.2-3.929-.229-8.04-.326-12.316-.32-1.044,0-2.1.218-2.043.495a.672.672,0,0,0,.307.342c-2.5-.288-5.028-.565-7.653-.795-1.608-.142-3.043.346-2.208.7.158.069.35.125.518.191-1.572-.276-3.164-.545-4.793-.8-1.8-.284-3.32.309-2.162.678a14.939,14.939,0,0,0,2.245.584c.545.127,1.431.009,1.261-.178.594.641,4.681,1.34,8.6,1.921a5.074,5.074,0,0,1-2.144-.008c-5.193.675-8.695.74-6.542-.957a93.816,93.816,0,0,1-12.316,1.264,81.4,81.4,0,0,0-12.292-2.341c-.524-.243-1.045-.5-1.574-.785-.289.188-.585.348-.874.519-2.12-.207-4.325-.378-6.676-.487-1.364-.063-2.576.328-1.462.607l.027.006c-1.763-.153-3.554-.3-5.424-.418-.874-.058-1.879.1-1.849.342.094.886,4.526,1.516,6.852,2.043.4.091,1.154.225,2.022.372-.384.077-.764.159-1.167.219-1.785-.206-3.56-.418-5.372-.609-3.17-.346-12.417-1.456-15.511-.546-.579.17-.49.383.237.515.582.105,1.182.2,1.772.3-2.814-.2-5.716-.347-8.737-.438a2.081,2.081,0,0,1,.088-.323c-.317.105-.612.2-.917.3-1.693-.044-3.42-.076-5.214-.08-1.322,0-1.931.462-.722.63.819.114,1.62.234,2.439.348q-4.011-.4-8.064-.742a6.365,6.365,0,0,1-.9-1.11,13.375,13.375,0,0,1-1.148.952q-2.631-.2-5.3-.362a9.4,9.4,0,0,1-.536-.8c-.442.252-.886.48-1.325.7-5.549-.292-11.241-.42-17.173-.279-.036,0-.064.005-.1.006a15.213,15.213,0,0,0-5.046.445c-.579-.28-1.17-.6-1.76-.943a25.492,25.492,0,0,1-4.462,2.075,125.281,125.281,0,0,0-15.294-.936c-1.166,0-2.086.4-1.063.615.935.2,1.925.372,2.884.561-3.164-.328-6.368-.634-9.7-.878-2.315-.17-3.274.691-1.038.888,4.288.376,8.473.805,12.617,1.254-3.444-.079-7.416-.452-12.237-1.043a.662.662,0,0,1-.046.267c-1.645-.39-3.362-.761-5.2-1.094a68.887,68.887,0,0,0-12.106-1.415c-1.118,0-1.312.33-.551.479,3.67.716,8.564,1.027,12.407,1.726,1.693.309,3.271.647,4.781,1a3.253,3.253,0,0,1-.786.3c-.07-.006-.119-.018-.2-.023-2.059-.118-4.139-.318-6.24-.559.076-.043.1-.076.192-.122l-.63.07c-8.329-.974-16.93-2.556-25.536-2.336-.125-.079-.25-.15-.375-.233-.661.345-1.309.651-1.958.941-.161-.014-.3-.032-.466-.046-1.669-.144-2.494.376-1.6.663.109.034.222.063.329.1-.5.187-1,.36-1.5.518-2.278-.221-4.6-.423-7.044-.587-1.943-.131-3.024.426-1.885.782.356.111.713.212,1.072.315-2.464-.219-4.937-.428-7.471-.6-2.132-.147-3.21.383-2.448.778-3.947-.308-7.9-.609-11.948-.84a6.558,6.558,0,0,0-3.116.441,158.071,158.071,0,0,0-16.585-1.407,5.088,5.088,0,0,0-.646.025c-2.357-.6-4.845-1.173-7.623-1.682a4.6,4.6,0,0,0-2.546.247c-1.392.94-1.922,1.818-1.912,2.709l-.171.049c-2.381-1.1-4.857-2.182-7.8-3.216-1.06-.374-3.307-.163-2.972.3a15.427,15.427,0,0,0,4.349,3.536c-.131-.041-.268-.08-.4-.121q-3.12-.895-6.724-1.667c-.984-.226-2.683-.02-2.315.325a7.17,7.17,0,0,0,2.44,1.751c-3.408-.542-6.889-1.008-10.589-1.4a5.13,5.13,0,0,1-3.32.288c-1.118-.247-2.254-.493-3.42-.729-.844.15-1.154.485-.338.707.9.244,1.854.461,2.808.683-3.113-.373-6.277-.711-9.578-.984.091.212-.28.444-1.285.542a24.687,24.687,0,0,1-3.807,0c-.094,0-.171,0-.274,0-1.212-.038-2.4-.112-3.56-.206l-.073.017q-1.891-.148-3.859-.237c1.532.206,3,.446,4.443.753,1.687.36-.518,1.057-2.363.762-1.666-.268-3.432-.549-5.126-.853-.067-.008-.131-.015-.2-.021a5.731,5.731,0,0,0,1.922.858l.061.014-.012,0c.113.032.195.067.314.1,1.322.459-1.523.962-3.058.587-1.706-.417-3.8-.825-6.079-1.155.947.444-.923.874-2.665.662-1.928-.235-3.539-.487-5.037-.791-2.3.464-4.623.534-5.853-.009-.25.01-.518.012-.828-.005h-.034q-.859.011-1.672-.005a12.955,12.955,0,0,1-5.241-.308,1.186,1.186,0,0,1-.432-.17c-.043.049-.073.091-.119.146l-.012,0c.1.221-.375.443-1.352.524-1.051.089-2.123.15-3.21.193a5.553,5.553,0,0,1-2.476.138l-.512-.078c-4.294.027-8.695-.229-12.843-.619-.064.2-.387.423-1.112.712a4.837,4.837,0,0,1-1.684.241,71.182,71.182,0,0,1-10.117-.541,1.565,1.565,0,0,1-.862-.316l-.362-.017a3.548,3.548,0,0,1-1.6.211c-.92-.03-1.855-.069-2.79-.112a6.714,6.714,0,0,1-1.154,0c-1.772-.155-3.554-.3-5.339-.434a7.462,7.462,0,0,1-1.977.006c-.743-.114-1.486-.222-2.229-.331-.88-.067-1.766-.134-2.646-.2-.186.008-.387.022-.579.031,3.182.335,6.234.733,9.155,1.258.064.011.125.013.189.022a82.776,82.776,0,0,1-11.691-.738c-.323.524-1.946.761-3.42.681-.755.065-1.5.111-2.19.129.332-1.534-7.943-1.956-13.373-2.058-1.38-.026-1.879.349-1.45.611.094.059.2.11.3.168-2.449-.364-4.961-.706-7.516-1.007a3.671,3.671,0,0,1-.186-.4c-.292.1-.573.194-.856.286a142.716,142.716,0,0,0-22.1-.934c-1.136.049-1.629.279-1.623.519-3.706-.434-7.544-.814-11.606-1.11-1.568-.114-2.909.206-3.009.553-4.891-.6-10.026-1.047-15.891-1.2-1.657-.043-2.564.315-2.522.666-6.106-.875-12.31-1.7-18.888-2.335-2.7-.26-4.514.809-2.016,1.148q7.254.981,14.469,1.981a58.5,58.5,0,0,1-16.969-.356c-.64.074-1.3.133-1.97.183-4.477-.776-9.018-1.51-13.814-2.177-1.52-.212-3.7.221-2.586.627.987.359,1.91.728,2.826,1.1l-.234.005c-5.055-.876-10.193-1.693-15.888-2.319l-.012-.007-.024,0c-.9-.1-1.772-.206-2.7-.293-2.2-.207-3.508.524-2.184.905.11.03.222.057.329.087-3.505-.51-7-1.02-10.54-1.516a5.778,5.778,0,0,0-3.247.314,115.966,115.966,0,0,0-12.383-1.812c-2.187-.191-4.227.458-3.17.948-2.436-.45-4.918-.885-7.592-1.264-2.759-.392-5.433.481-3.383,1.062.813.23,1.6.462,2.378.7-6.6-.808-12.919-1.738-20.243-2.175-1.8-.108-3.886.332-3.289.786-5.473-.769-11.082-1.466-17.255-1.932-2-.151-3.25.234-3.222.634-4.586-.5-9.313-.918-14.338-1.161-3.07-.149-4.474.959-1.377,1.179,7.474.531,14.481,1.291,21.376,2.12a26.211,26.211,0,0,1-8.948-.576,26.553,26.553,0,0,1-10.787-.383c-3.408.235-6.822.288-10.248.25s-6.868-.167-10.321-.3c-6.91-.257-13.887-.515-19.929-1.7a114.707,114.707,0,0,1-11.521.383,61.117,61.117,0,0,1-10.361-.865c-4.188.331-7.665.3-9.31-.848-5.451.987-9.06.861-12.026-.714a73.691,73.691,0,0,1-11.283.822c-4.084.055-7.885-.143-7.346-1.265-7.885.877-11.427.83-8.022-1.459-10.647,2.119-14.35,2-14.387-1.582-11.1,3.225-18.562,2.99-30.914.869a8.618,8.618,0,0,1-5.381.862c-4.785.579-8.552.468-9.295-1.087C490.476,223.208,482.9,223,473.8,221.1c-3.045.742-6.475,1.063-7.486.232-6.231,1.055-10.047.958-11.463-1.072a79.958,79.958,0,0,1-27.458.136c-2.774.537-6.079.764-6.472.14-4.413.555-6.539.642-3.164-.494-6.877.86-8.256.5-4.934-1.354-9.078,1.732-13.461,1.98-12.231-1.411-9.794,3.246-13.979,2.853-20.024-.8-.819,1.757-2.1,2.7-2.72,2.353-3.959.729-7.257.169-11.314-1.629.122.59.171,1.059.231,1.374-4.212,1.452-6.956.987-9.816-1.343-2.57,2.5-5.29,2.712-10.02.191-1.821,2.68-5.649,2.63-13.108.861-2.007.816-4.921,1.2-5.762.682-5.887.87-9.7.834-9.347-1.194a69.861,69.861,0,0,1-14.612,1.205c-5.509.046-10.041-.6-12.776-2.8-4.842,2.158-7.891,2.763-4.315-.253-10.58,3.569-14.53,3.516-18.017-1.141-4.041,4.644-7.617,4.683-18.184.861,3.253,3.865-.49,3.869-11.981,1.865.149,1.015-5.645.661-6.053.263ZM1659.3,230.723a1.46,1.46,0,0,1,.438-.455c1.8.309,3.6.615,5.4.924q-2.032.157-3.353.176c-.037-.074-.162-.148-.46-.214C1660.654,231.006,1659.972,230.866,1659.3,230.723Zm-11.545-.819c.91.185,1.849.359,2.808.528A6.451,6.451,0,0,1,1647.751,229.9Zm5.2-.767c1.264.2,2.479.412,3.716.619-.42.074-.81.136-1.2.2q-3.942-.748-8.119-1.387C1646.347,228.236,1647.324,228.259,1652.949,229.137Zm-27.8-2.47c5.716.477,11.347,1.059,16.6,1.8.2.057.411.108.612.162a15.155,15.155,0,0,1-2.315.831c-4.093-.682-8.256-1.255-12.651-1.648q-.845-.3-1.76-.643A1.5,1.5,0,0,1,1625.153,226.668Zm-14.192,2.7c1.09-.038,2.177-.051,3.259-.051-.682.111-1.3.2-1.842.266C1611.905,229.511,1611.439,229.435,1610.962,229.367Zm-36.464-1.361c.076,0,.156,0,.235,0,3.636-.253,5.89-.078,6.809.513-.959.059-1.928.109-2.872.183a9.128,9.128,0,0,0-1.294.2A10.876,10.876,0,0,1,1574.5,228.006Zm-5.2.074c.344-.017.707-.021,1.06-.033a1.152,1.152,0,0,0-.064.25C1569.966,228.223,1569.637,228.149,1569.3,228.08Zm-16.89-.707c1.794.086,3.56.2,5.263.343a.858.858,0,0,1-.058.068,19.125,19.125,0,0,0-3.033.882c-.225-.025-.432-.053-.655-.079A9.712,9.712,0,0,1,1552.409,227.373Zm-2.138.73c-1.8-.271-3.5-.577-5.1-.943,1.8.021,3.6.068,5.391.134A3.608,3.608,0,0,1,1550.271,228.1Zm-7.62.577q3.267.236,6.508.511C1547.957,229.722,1545.916,229.527,1542.651,228.68Zm-10.315-.593c1.633.064,3.244.151,4.843.241a1.2,1.2,0,0,1,.082.506C1535.568,228.6,1533.92,228.363,1532.336,228.086Zm-74.72,1.258c.238,0,.481-.008.719-.008q5.532-.087,10.9.293l-.664.065q-2.49.151-4.867.351a3.9,3.9,0,0,0-.761-.168c-.664-.084-1.422-.168-2.211-.249a.878.878,0,0,1-.018-.087c-.061.024-.113.043-.168.065C1459.632,229.514,1458.652,229.425,1457.616,229.344Zm-14.768,1.784a5.876,5.876,0,0,1,.725-.329c1.553.127,3.088.22,4.629.3A9,9,0,0,1,1442.849,231.128Zm-24.452-1.335a3.984,3.984,0,0,0-1.227.229l-.737.383c-.042.022-.052.044-.085.066C1410.911,228.632,1414.766,229.155,1418.4,229.793Zm7.641,1.488a55.017,55.017,0,0,0-5.844-.557,11.28,11.28,0,0,1,2.988-.021C1424.149,230.893,1425.091,231.088,1426.038,231.281Zm-27.778.559c1.054.143,2.135.271,3.155.428.725.116,1.739.255,2.823.395-1.078.133-2.019.224-2.826.264-1.029-.2-2.083-.417-3.152-.632A.726.726,0,0,1,1398.26,231.841Zm-9.547-1.078c2.939.256,5.747.579,8.485.934-.3.078-.579.148-.865.218C1393.9,231.446,1391.365,231.015,1388.712,230.763Zm-9.517.3c1.48.153,2.912.326,4.358.493-.088.024-.168.044-.25.068-.408-.032-.813-.067-1.218-.1-1.267-.137-2.519-.281-3.752-.44Q1370.3,230.313,1379.2,231.065ZM1326.28,233.1c2.171-.008,4.346.02,6.514.072a.639.639,0,0,0-.271.225,10.8,10.8,0,0,1-2.321.461,1.711,1.711,0,0,0-.442-.141C1328.631,233.483,1327.465,233.283,1326.28,233.1Zm-17.2-.414c-.286.159-.344.338-.134.5C1306.561,232.808,1305.556,232.545,1309.08,232.682Zm-11.034.476c4.288.457,8.445.98,12.663,1.476-2.293.075-4.9,0-7.839-.176C1301.073,234.047,1299.489,233.635,1298.046,233.158Zm-41.092,1.328c-2.7-.656-5.1-1.229-5.311-1.247,2.4.181,4.717.411,6.993.668C1258.089,234.123,1257.526,234.317,1256.953,234.486Zm-19.388.061c.347.02.667.038,1.1.065q4.4.231,8.582.653c.81.084,1.6.175,2.406.261-.789.019-1.6.02-2.461,0A65.258,65.258,0,0,1,1237.566,234.547Zm-1.52-.078a1.519,1.519,0,0,1-.131.209C1234.773,234.507,1234.514,234.409,1236.046,234.469Zm-9.873.328c.913.015,3.216.173,7.495.54q-1.161.257-2.159.427c-2.354-.314-4.413-.609-5.324-.789A1.146,1.146,0,0,1,1226.173,234.8Zm-33.774.959c.034-.027.061-.061.094-.087.8.093,1.642.172,2.461.257C1194.138,235.9,1193.288,235.849,1192.4,235.756Zm-27.016-.514a48.424,48.424,0,0,1,9.575.346,25.829,25.829,0,0,1-3.353.741Q1168.4,235.823,1165.382,235.242Zm-21.681,1.953c.737.074,1.477.148,2.229.212A4.753,4.753,0,0,1,1143.7,237.195Zm-19.786-.808c1.721.223,3.387.474,5.047.746A26.823,26.823,0,0,1,1123.915,236.387Zm-4.285-1.658c5.424.581,11.223.977,16.619,1.622q1.708.2,3.42.407c-1.922.183-3.688.311-5.339.385-4.4-.817-8.969-1.49-13.957-2.026C1120.124,235,1119.874,234.861,1119.63,234.729Zm-40.681,2.816q1.768.206,3.536.407C1080.6,238.05,1079.116,237.958,1078.949,237.545Zm-11.1-1.321c2.979.364,5.978.719,8.981,1.072q-2.257.189-4.273.3C1070.979,237.14,1069.42,236.679,1067.845,236.224Zm-12.045-1.438a20.157,20.157,0,0,1,6.624,1.122c1.441.418,2.857.838,4.285,1.256-1.273-.006-2.71.027-4.4.093a1.52,1.52,0,0,0-.207.033A14.68,14.68,0,0,1,1055.8,234.786Zm-10.446.774c.88.392,1.721.788,2.567,1.185-.234.048-.472.1-.706.14C1046.56,236.444,1045.924,236,1045.354,235.56Zm-3.639,1.544c.393.112.761.228,1.148.341-.219.015-.436.03-.655.043C1039.1,236.462,1035.688,235.32,1041.715,237.1Zm-24.62.105c.021-.011.052-.023.082-.034q2.33.235,4.635.488c-.411.043-.81.081-1.185.115Q1018.824,237.5,1017.1,237.209Zm-148.908-2.365c4.118.1,8.089.382,11.951.779A25.124,25.124,0,0,1,868.187,234.844Zm-10.074.483c1.282.152,2.528.323,3.783.488-.405.037-.828.062-1.261.079C859.77,235.708,858.951,235.515,858.113,235.327ZM837.5,234.183c4.355.349,8.4.869,12.383,1.44-1.255.049-2.6.06-4.008.034-.548,0-1.1,0-1.641-.014C841.92,235.165,839.673,234.684,837.5,234.183Zm-44.917-.913c1.571.218,3.131.442,4.687.669-.545.006-1.09.012-1.645.01-.451,0-.9-.011-1.349-.019C793.7,233.71,793.138,233.49,792.578,233.27Zm-69.525-2.523c1.712.218,3.423.434,5.147.645A19.724,19.724,0,0,1,723.053,230.746Zm-6.77-.813c1.867.2,3.706.428,5.531.657-.524.061-1.035.112-1.526.153C718.871,230.493,717.522,230.229,716.282,229.933Z" transform="translate(1671.959 266.631) rotate(180)" fill="#fff"/>
</svg>