<svg xmlns="http://www.w3.org/2000/svg" width="19.28%" height="127.225" viewBox="0 0 153.443 127.225">
  <g id="Paw_Prints" data-name="Paw Prints" transform="matrix(0.695, -0.719, 0.719, 0.695, -604.478, 453.393)">
    <g id="Group_1305" data-name="Group 1305" transform="translate(703.18 146.229)">
      <path id="Path_2022" data-name="Path 2022" d="M716.833,190.042c0,.065-.008.131-.012.194C716.827,190.152,716.831,190.092,716.833,190.042Z" transform="translate(-703.263 -146.498)" fill="#eb5c00"/>
      <path id="Path_2023" data-name="Path 2023" d="M752.531,176.191a25.992,25.992,0,0,0-2.871-2.408c.63.56-.9-.643.313.348-.212-.158-.423-.3-.645-.449q-.769-.566-1.565-1.07c.792.432.339.128-.28-.274-.635-.408-1.47-.858-1.247-.8-1.055-.546-1.565-.826-2.113-1.092a18.462,18.462,0,0,0-2.328-1c-.735-.222-.376-.074.267.171.636.266,1.553.639,1.947.843-.225-.091-.531-.245-.848-.37a11.843,11.843,0,0,1,1.676.891,31.173,31.173,0,0,0-4.454-1.732c-.016-.056-.076-.115-.684-.3a15.643,15.643,0,0,0-1.911-.525c-.837-.177-1.675-.342-1.936-.427-1.37-.236-2.6-.41-3.653-.559a9.829,9.829,0,0,0-2.641-.088c-.34-.062-.683-.1-1.027-.146s-.69-.1-1.039-.122a9.769,9.769,0,0,0-3.967.688c-.48.258,1.295-.2-.03.345-.234.113-.558.243-.869.4-.3.177-.62.305-.833.439-.073.012.016-.1.149-.207l.376-.261a7.98,7.98,0,0,0-2.715,2.437,10.2,10.2,0,0,0-1.373,2.9c-.273,1.4-.522,3-.724,4.494a30.8,30.8,0,0,0-.3,3.651q.088-.8.192-1.592c-.236,2.331.256.084-.07,2.681-.25,1.942-.228.972-.328,1.09-.089,1.091-.143,2.9-.224,3.758.043-1.246-.1.961-.076.376-.091,2.023-.016,2.213-.063,3.921l-.1.12a.908.908,0,0,0-.082.768,2.919,2.919,0,0,1,.1.465,1.389,1.389,0,0,0-.018-.149,1.145,1.145,0,0,1,.04.227.483.483,0,0,1,0,.1.6.6,0,0,0-.005.094l.006.07.054.822c.043.787-.06-.42-.039.124a11.186,11.186,0,0,0,.407,2.661,7.646,7.646,0,0,0,1.057,2.24,5.744,5.744,0,0,0,2,1.929,5.1,5.1,0,0,0,.572.3c.143.054.034-.006.286.275a2.273,2.273,0,0,0,1.3.588c.2.036.384.065.548.105a1.94,1.94,0,0,1,.286.094.515.515,0,0,0,.222.04l.149.007,1.249.1a6.29,6.29,0,0,0,.7,0,4.965,4.965,0,0,0,.719-.1l.723-.132.755-.167c-.37.056-.737.141-1.128.176a7.5,7.5,0,0,1-1.231.09,11.768,11.768,0,0,1-1.325-.17l-.719-.105a2.989,2.989,0,0,0-.715-.233c.141.023.281.044.416.078.07.015.133.037.2.058a.478.478,0,0,0,.222.055c.289.007.573.029.862.047l-.014,0a5.912,5.912,0,0,0,1.579.052,17.045,17.045,0,0,0,2.522-.569l-.645.228-.826.24a17.509,17.509,0,0,0,2.564-.477c.752-.186,1.173-.258.508.174a10.354,10.354,0,0,0,1.912-.835c.441-.247.793-.494,1.373-.858a17.348,17.348,0,0,1,1.832-.974,14.548,14.548,0,0,1,2.554-1.7c1.063-.763,2.011-1.568,1.238-1.142-.992.687-1.984,1.381-3,2.05-1.251.6.233-.545.631-.953.935-.635,1.861-1.284,2.789-1.919,1.237-.847,2.532-1.638,3.816-2.444l-1.135.854,2.172-1.364c-.3.4-1.283,1.336.492.3,1.327-1.023,2.581-2.055,3.772-3.178a23.67,23.67,0,0,0,3.326-3.805l.446-.774c.143-.262.258-.539.389-.809.264-.544.463-1.082.688-1.641a9.888,9.888,0,0,0,.808-3.57,5.158,5.158,0,0,0-.365-1.861A5.743,5.743,0,0,0,752.531,176.191Zm-35.7,13.267c-.013.349.018.143,0,.443.044-.693.121-1.509.185-2.039q-.176,2.135-.325,4.272l-.055.061C716.653,192.042,716.705,191.563,716.829,189.458Zm-.15,4.744a3.135,3.135,0,0,1-.03-.478,1.188,1.188,0,0,0-.078-.462,2.11,2.11,0,0,1-.122-.524.718.718,0,0,1,.211-.537l.027-.032,0,.053c-.485.532.119,1.048.021,1.574a17.579,17.579,0,0,0,.659,3.723,13.807,13.807,0,0,1-.44-1.658A16.544,16.544,0,0,1,716.679,194.2Zm2.674,6.662c-.387-.311-.32-.323-.387-.4a6.349,6.349,0,0,1-.515-.532c-.148-.2-.308-.387-.437-.6l-.105-.43c-.083-.182-.152-.354-.224-.528a6.035,6.035,0,0,0,2.14,2.592,6.552,6.552,0,0,1-.877-.66c-.052-.008.231.308.461.51S719.784,201.151,719.354,200.863Zm-1.817-2.851c.046.118.091.236.142.351C717.63,198.245,717.581,198.126,717.537,198.012Zm2.447,3.06c.055.035.113.068.17.1l-.076-.041C720.046,201.114,720.017,201.091,719.984,201.072Zm1.832,1.225a1.208,1.208,0,0,1-.72-.55c-.016-.036.026.014.082.069a1.868,1.868,0,0,0,1.19.592A3.267,3.267,0,0,1,721.816,202.3Zm10.7-1.654c-.609.313-1.88.832-1.754.664-.107.037-.219.079-.328.118.8-.349,1.578-.743,2.34-1.17C732.785,200.344,732.813,200.419,732.519,200.643Zm-.21-32.926c.443.021.823.041,1.038.039.308.058.4.092.4.115Q733.031,167.783,732.31,167.717ZM744.595,192.7a22.872,22.872,0,0,0,1.879-1.418,19.663,19.663,0,0,0,4.1-3.947A21.09,21.09,0,0,1,744.595,192.7Zm6.018-5.426c.116-.157.225-.323.336-.486l-.008.013C750.838,186.962,750.723,187.117,750.612,187.274Z" transform="translate(-703.26 -146.357)" fill="#eb5c00"/>
      <path id="Path_2024" data-name="Path 2024" d="M739.931,196.236c.865-.6,1.754-1.179,2.642-1.76l-.2.06C741.555,195.1,740.731,195.654,739.931,196.236Z" transform="translate(-703.405 -146.526)" fill="#eb5c00"/>
      <path id="Path_2025" data-name="Path 2025" d="M723.532,203.469a11.224,11.224,0,0,0,1.95.351l-.1-.2A12.469,12.469,0,0,1,723.532,203.469Z" transform="translate(-703.304 -146.581)" fill="#eb5c00"/>
      <path id="Path_2026" data-name="Path 2026" d="M716.543,193.713a.563.563,0,0,1,0,.109A.423.423,0,0,0,716.543,193.713Z" transform="translate(-703.261 -146.521)" fill="#eb5c00"/>
      <path id="Path_2027" data-name="Path 2027" d="M722.145,157.818a5.964,5.964,0,0,1,.147.817c-.051.078-.174-.2-.212-.266.1.293.141.58.239.829.041.127.077.252.112.378l.127.352.122.347.146.325a3.4,3.4,0,0,0,.346.622,10.981,10.981,0,0,0,1.553,1.352,7.175,7.175,0,0,0,1.445.789c-.213-.108-.406-.245-.61-.368.9.518.11-.117,1.1.472.752.411.361.25.387.318a11.868,11.868,0,0,0,1.578.522c-.416-.1.063.029.177.062l.52.083c.145.012.264.009.378.013a3.718,3.718,0,0,0,.7-.046c-.018.011.065,0,.187-.019l.585-.113-.131.022.223-.062c.078-.031.176-.07.339-.124.329-.11-.171.076.058,0a5.12,5.12,0,0,0,1.913-1.137l.253-.191.216-.211a4.527,4.527,0,0,0,.394-.418,4.766,4.766,0,0,0,.575-.911,13.509,13.509,0,0,0,.772-2.237c-.11.309-.273.614-.408.956-.181.328-.323.7-.563,1.1l.139-.353.1-.367,0,.006a9.868,9.868,0,0,0,.508-1.755,5.767,5.767,0,0,1-.073.687,11.523,11.523,0,0,0,.478-1.063c.128-.323.258-.494.356-.132a3.469,3.469,0,0,0,.032-1.646c.044-.307-.022-.849.1-.925a2.828,2.828,0,0,1-.1-1.374c-.109-.581-.315-1.111-.343-.707l.12.8.068.807c-.138.611-.341-.184-.478-.421-.045-.467-.1-.94-.19-1.426a16.053,16.053,0,0,0-.474-1.969l.034.06.253.516-.145-.544L735,150.73c.23.128.678.628.447-.284a12.746,12.746,0,0,0-1.307-1.836,10,10,0,0,0-1.632-1.6,5.676,5.676,0,0,0-3.111-.784c-.269.014-.541.018-.809.045l-.805.109-.8.164a2.107,2.107,0,0,0-.788.335c.354-.138-.407.273.216-.034-.09.064-.175.127-.261.193a4.009,4.009,0,0,0-.644.548c.238-.313.053-.168-.172.068s-.481.572-.465.462c-.3.427-.45.634-.616.847a5.822,5.822,0,0,0-.586.948c-.248.627.384-.567.614-.882l-.2.351a2.652,2.652,0,0,1,.537-.64,13.339,13.339,0,0,0-.974,1.836c-.052-.008-.1.006-.215.257-.179.186-.523,1.4-.673,1.6-.317,1.164-.789,2.06-.622,2.7-.125.285-.25.575-.369.875a3.792,3.792,0,0,0,.057,1.78C721.957,158.014,721.942,157.21,722.145,157.818Zm9.235,6.334a7.352,7.352,0,0,1-.868.234l-.06.015c-.04,0-.1,0-.2,0s-.2.022-.357.016c-.131-.012-.3-.018-.5-.035a.679.679,0,0,1,.182,0,3.9,3.9,0,0,1-.8-.136,4.178,4.178,0,0,0,1.722.1,5.592,5.592,0,0,0,1.977-.759c-.142.089-.288.171-.434.261A5.152,5.152,0,0,1,731.38,164.152Zm2.631-1.76c-.137.164-.141.136-.177.163a4.005,4.005,0,0,1-.446.453l-.18.074-.584.425-.024.015a5.967,5.967,0,0,0,1.53-1.464l-.007.011-.367.485C733.759,162.609,734.273,162.034,734.011,162.392Zm.41-.757c-.01.008-.007,0,0-.025.107-.172.207-.352.3-.537A1.6,1.6,0,0,1,734.421,161.635Zm1.57-4.982c-.044.3-.144.891-.239.8-.019.052-.033.106-.048.16.041-.373.069-.754.078-1.149A.221.221,0,0,1,735.991,156.652Zm-1.125-6.209a5.381,5.381,0,0,0-.525-.908,5.864,5.864,0,0,0-1.606-1.958A5.83,5.83,0,0,1,734.866,150.444Zm-2.181-2.9c-.042-.032-.087-.057-.13-.085l.014.008C732.61,147.491,732.647,147.52,732.686,147.546ZM722.68,153.37c-.053.2-.1.41-.147.615.021-.2.04-.364.04-.461C722.624,153.4,722.657,153.363,722.68,153.37Z" transform="translate(-703.293 -146.229)" fill="#eb5c00"/>
      <path id="Path_2028" data-name="Path 2028" d="M728.845,164.48l-.019,0C728.882,164.491,728.877,164.489,728.845,164.48Z" transform="translate(-703.337 -146.341)" fill="#eb5c00"/>
      <path id="Path_2029" data-name="Path 2029" d="M735.474,151.641c.16.413.289.836.411,1.262l-.171-.685-.21-.676Z" transform="translate(-703.378 -146.262)" fill="#eb5c00"/>
      <path id="Path_2030" data-name="Path 2030" d="M735.966,160.132l-.179-.023c-.073.276-.236.481-.325.751C735.622,160.622,735.809,160.383,735.966,160.132Z" transform="translate(-703.378 -146.314)" fill="#eb5c00"/>
      <path id="Path_2031" data-name="Path 2031" d="M711.2,174.31a6.866,6.866,0,0,0,.731.054c.257.022.5.035.664.032-.463.012.358.018.14.021a8.271,8.271,0,0,0,1.373-.106c-.1.042.3-.043.536-.107.124-.057.189-.089.451-.2.261-.136-.132.087.05,0a3.112,3.112,0,0,0,.5-.292,1.965,1.965,0,0,0,.331-.265,2.51,2.51,0,0,0,.278-.284,4.425,4.425,0,0,0,.322-.395,3.9,3.9,0,0,0,.875-1.7,16.5,16.5,0,0,0,.248-1.981c-.126.546-.273,1.115-.487,1.857a4.586,4.586,0,0,0,.055-.638l0,.005a9.934,9.934,0,0,0,.134-1.536,5.116,5.116,0,0,1,.055.581c.224-.491.3-1.68.6-1.115.011-.094.018-.179.022-.255s-.007-.17-.014-.243a1.34,1.34,0,0,0-.085-.368,3.719,3.719,0,0,0-.32-.614c-.065-.288-.356-.689-.291-.8a2.849,2.849,0,0,1-.74-.985c-.366-.375-.81-.6-.621-.306a7.674,7.674,0,0,1,.925,1.057c.1.345-.08.261-.27.14a2.476,2.476,0,0,0-.318-.185,9.885,9.885,0,0,0-2.151-1.9c.159.061.318.116.475.185-.252-.19-.516-.367-.783-.535.234-.06.812,0,.19-.489a34.3,34.3,0,0,1-3.528-1.242,8.053,8.053,0,0,0-2.66-.314,5.546,5.546,0,0,0-2.641.832c.3-.1-.34.231.187-.016-.07.055-.14.1-.212.156a3.622,3.622,0,0,0-.575.436c.2-.272.047-.148-.158.038s-.42.479-.415.379c-.245.378-.357.566-.484.763a3.374,3.374,0,0,0-.358.9c-.025.292.017.15.1-.1a7.157,7.157,0,0,1,.292-.743c-.028.086-.076.206-.124.324a1.626,1.626,0,0,1,.4-.589,4.96,4.96,0,0,0-.509,1.666c-.051,0-.094.028-.124.26a2.537,2.537,0,0,0-.072.731,3.783,3.783,0,0,1-.024.736c.016.256.073.507.089.742a5.921,5.921,0,0,0,.136.647,1.715,1.715,0,0,0,.2.525.993.993,0,0,0,.291.352l.2.8a2.972,2.972,0,0,0,1.024,1.105c.219.06-.21-.462.26-.191a2.668,2.668,0,0,1,.508.471c-.007.085-.226-.039-.281-.06a4.212,4.212,0,0,1,.525.467c.157.155.305.3.441.453a6,6,0,0,0,.855.828,12.092,12.092,0,0,0,1.609.625,6.182,6.182,0,0,0,1.365.261l-.58-.153c.858.185.068-.142,1.006.092C711.523,174.291,711.167,174.255,711.2,174.31Zm2.986-.027-.041.014c-.079-.006-.287,0-.884.042a.814.814,0,0,1,.138-.016,4.891,4.891,0,0,1-.5,0,8.154,8.154,0,0,0,1.277-.07,3.424,3.424,0,0,0,1.537-.781A3.161,3.161,0,0,1,714.191,174.283Zm1.712-.991c-.052.055-.105.107-.159.159C715.8,173.4,715.851,173.346,715.9,173.292Zm1.089-1.819c-.006.009-.007,0-.006-.021q.083-.246.149-.506A1.334,1.334,0,0,1,716.992,171.473Zm.422-4.414c.071.26.095.79-.017.73-.007.039-.01.078-.015.116a3.2,3.2,0,0,0-.229-.913A.218.218,0,0,1,717.415,167.06Zm-.58,4.791a4.548,4.548,0,0,1-.21.506c.021.048.341-.52.2-.175-.084.16-.1.137-.122.165a3.88,3.88,0,0,1-.278.46c-.049.03-.1.06-.147.085l-.194.213A4.689,4.689,0,0,0,716.834,171.851Zm-4-8.879a13.255,13.255,0,0,0-2.156-.877,9.472,9.472,0,0,1,2.963,1.217A5.332,5.332,0,0,0,712.839,162.972Zm-9.366,4.929c.034.143.075.285.123.427a2.354,2.354,0,0,0-.148-.268C703.442,167.952,703.453,167.911,703.473,167.9Z" transform="translate(-703.179 -146.322)" fill="#eb5c00"/>
      <path id="Path_2032" data-name="Path 2032" d="M715.641,164.4a11.079,11.079,0,0,0-.981-.694l.029.087A11.234,11.234,0,0,1,715.641,164.4Z" transform="translate(-703.25 -146.336)" fill="#eb5c00"/>
      <path id="Path_2033" data-name="Path 2033" d="M717.775,170.658c.111-.223.222-.45.321-.683l-.181.008A5.916,5.916,0,0,1,717.775,170.658Z" transform="translate(-703.269 -146.375)" fill="#eb5c00"/>
      <path id="Path_2034" data-name="Path 2034" d="M714.817,174.252l-.1.03-.01,0Z" transform="translate(-703.25 -146.401)" fill="#eb5c00"/>
      <path id="Path_2035" data-name="Path 2035" d="M753.364,158.694c.082.268-.2-.305,0,.168-.056-.071-.1-.141-.152-.217-.1-.184-.2-.361-.312-.533.441.429-.384-.65-.238-.582-.251-.305-.374-.454-.494-.622a3.081,3.081,0,0,0-.6-.612c-.228-.129-.132-.035.037.122s.409.386.495.508c-.057-.057-.134-.139-.22-.214a1.587,1.587,0,0,1,.347.532,6.153,6.153,0,0,0-1.188-1.009c.02-.049.022-.1-.159-.206-.11-.177-1.017-.5-1.172-.614-.222-.077-.437-.123-.638-.182a5.2,5.2,0,0,0-.571-.138,1.62,1.62,0,0,0-.5-.049.747.747,0,0,0-.4.11c-.234-.052-.481-.13-.734-.176a2.353,2.353,0,0,0-1.3.438c-.119.176.46-.009.081.313a2.147,2.147,0,0,1-.562.268c-.074-.039.1-.189.135-.232a12.8,12.8,0,0,0-2.034,1.157,5.7,5.7,0,0,0-.717,1.461,4.817,4.817,0,0,0-.155.722,4.021,4.021,0,0,0-.013.55c.029-.18.052-.362.09-.541-.1.794.149.06.014.919-.047.321-.063.4-.079.407s-.042-.067-.063-.047c.014.185.028.428.052.659s.062.448.072.591c-.027-.2-.024-.124-.016-.017s.039.239.018.143a10.539,10.539,0,0,0,.305,1.218c.011.119.056.408.066.534l-.008-.1c.026.123.045.18.094.432s-.042-.133-.013.043a6.62,6.62,0,0,0,.47,1.605,2.983,2.983,0,0,0,.906,1.476,4.564,4.564,0,0,0,1.673.827,4.926,4.926,0,0,1-1.457-.983,3.372,3.372,0,0,0,.5.278l0,0a3.416,3.416,0,0,0,1.268.458,3.105,3.105,0,0,1-.506-.035c.377.325,1.506.486.948.743a1.946,1.946,0,0,0,1.3-.187c.25.013.641-.146.727-.042a1.7,1.7,0,0,1,1.012-.3c.417-.185.765-.453.451-.425a12.152,12.152,0,0,1-1.16.4c-.317-.042-.2-.164-.048-.3.089-.081.194-.162.246-.224a9.876,9.876,0,0,0,2.359-1.094c-.11.122-.225.243-.345.355a8.5,8.5,0,0,0,.72-.454c-.017.226-.266.714.374.362a15.493,15.493,0,0,0,1.852-2.937,4.833,4.833,0,0,0,.114-2.434A7.3,7.3,0,0,0,753.364,158.694Zm-4.491-3.363c.1.04.123.069.118.092-.159-.029-.321-.049-.484-.064A2.449,2.449,0,0,0,748.873,155.331Zm-5.219,10.621c-.084-.137-.06-.136-.069-.169-.083-.136-.146-.284-.22-.426l.005-.153a10.448,10.448,0,0,1-.637-2.178c-.01-.039-.017-.062-.022-.076-.015-.1-.061-.313-.168-.809.027.131.014.015.048.2-.039-.212-.08-.477-.1-.667a8.564,8.564,0,0,0,.27,1.343,7.638,7.638,0,0,0,1.126,3.081l-.008-.008-.264-.374C743.57,165.714,743.854,166.222,743.654,165.952Zm.466.459c0-.009.007,0,.02,0a3.748,3.748,0,0,0,.323.33A1.078,1.078,0,0,1,744.121,166.411Zm3.608,1.355c-.231.019-.694-.039-.634-.132-.044-.01-.089-.013-.132-.022a5.84,5.84,0,0,0,.869-.081A.223.223,0,0,1,747.728,167.766Zm5.383-2.965a4.755,4.755,0,0,1-1.037,1.029,3.024,3.024,0,0,0,.526-.584,4.883,4.883,0,0,0,1.127-1.73l0,.009A4.25,4.25,0,0,1,753.111,164.8Z" transform="translate(-703.419 -146.283)" fill="#eb5c00"/>
      <path id="Path_2036" data-name="Path 2036" d="M750.564,167.12a9.583,9.583,0,0,0,.929-.548l-.084-.012A9.864,9.864,0,0,1,750.564,167.12Z" transform="translate(-703.47 -146.354)" fill="#eb5c00"/>
      <path id="Path_2037" data-name="Path 2037" d="M744.529,167.447a5.008,5.008,0,0,0,.513.541l.048-.176A3.329,3.329,0,0,1,744.529,167.447Z" transform="translate(-703.433 -146.359)" fill="#eb5c00"/>
      <path id="Path_2038" data-name="Path 2038" d="M713.711,188.148c-.142-.325-.376-.585-.375-.336a8.855,8.855,0,0,1,.3.9c-.063.253-.182.166-.3.051a2.033,2.033,0,0,0-.2-.178,7.822,7.822,0,0,0-.8-1.8c.094.079.187.152.28.235-.106-.189-.214-.379-.338-.558.212-.009.631.163.386-.347-.762-.6-1.454-.971-2.19-1.56a3.8,3.8,0,0,0-1.852-.369,5.644,5.644,0,0,0-1.851.443c.218-.019-.25.127.135.039-.06.035-.117.066-.178.1a4.153,4.153,0,0,0-.432.183c.347-.323-.532.236-.483.109-.237.195-.381.255-.509.352a1.727,1.727,0,0,0-.493.454c-.2.353.316-.275.515-.394-.043.047-.108.1-.175.163a1.032,1.032,0,0,1,.438-.229,3.448,3.448,0,0,0-.766.9c-.047-.019-.1-.023-.179.113a1.491,1.491,0,0,0-.243.447,1.479,1.479,0,0,1-.2.473c-.131.691-.42,1.268-.15,1.617-.07.178-.16.366-.225.556a1.635,1.635,0,0,0,.246,1.011c.146.1.076-.363.319-.051a.948.948,0,0,1,.144.456c-.056.06-.156-.085-.185-.117a7.256,7.256,0,0,1,.311.908,2.428,2.428,0,0,0,.149.434,1.663,1.663,0,0,0,.222.408,4.573,4.573,0,0,0,1.13.665,2.106,2.106,0,0,0,1,.154,4.121,4.121,0,0,1-.409-.114c.607.13.09-.246.732-.056.478.14.225.171.239.262.283.035.748-.013.961.027-.317.016.237.056.089.058.492,0,.56-.079.955-.081-.028.013.024.008.1.009a2.747,2.747,0,0,1,.356.034l-.082-.016a2.241,2.241,0,0,1,.343-.032c.2-.006-.1.039.042.043a2.716,2.716,0,0,0,1.281-.317,1.826,1.826,0,0,0,1.168-.737,5.215,5.215,0,0,0,.652-1.338,4.724,4.724,0,0,1-.867,1.07,2.07,2.07,0,0,0,.2-.4l0,0a2.69,2.69,0,0,0,.41-.957,1.879,1.879,0,0,1-.031.4c.322-.252.5-1.141.756-.683a1.377,1.377,0,0,0-.129-1.039c.007-.192-.093-.512,0-.578A1.036,1.036,0,0,1,713.711,188.148Zm-1.562-1.81a2.309,2.309,0,0,0-.429-.391,4.575,4.575,0,0,0-1.254-1l.006,0A3.656,3.656,0,0,1,712.148,186.339Zm-7.861,1.567c-.017.119-.03.24-.038.362-.016-.113-.029-.213-.039-.269C704.238,187.924,704.263,187.9,704.287,187.906Zm7.789,4.934c-.1.072-.113.035-.143.034-.1.071-.216.122-.325.183l-.151-.074a6.83,6.83,0,0,1-1.667.479l-.037.013a2.539,2.539,0,0,0-.659-.1c.1,0,.018-.031.162-.014a2.958,2.958,0,0,1-.55-.1c.387.052.754.1,1.077.165a5.928,5.928,0,0,0,2.35-.86c-.088.08-.182.155-.278.23C711.87,192.874,712.269,192.658,712.076,192.84Zm.305-.433c-.009,0-.007-.009,0-.022a3.057,3.057,0,0,0,.261-.242A.533.533,0,0,1,712.381,192.407Zm1.051-2.23c-.014.036-.018.072-.029.106a4.174,4.174,0,0,0-.029-.672.227.227,0,0,1,.225.08C713.591,189.873,713.53,190.227,713.432,190.177Z" transform="translate(-703.183 -146.462)" fill="#eb5c00"/>
      <path id="Path_2039" data-name="Path 2039" d="M712.72,186.9a7.4,7.4,0,0,1,.445.642,6.905,6.905,0,0,0-.424-.713Z" transform="translate(-703.238 -146.479)" fill="#eb5c00"/>
      <path id="Path_2040" data-name="Path 2040" d="M713.338,192.3l.247-.174.23-.207-.187-.072C713.575,192.037,713.427,192.136,713.338,192.3Z" transform="translate(-703.241 -146.509)" fill="#eb5c00"/>
    </g>
    <g id="Group_1301" data-name="Group 1301" transform="translate(712.688 199.15)">
      <path id="Path_2003" data-name="Path 2003" d="M732.926,263.722c-.028.1-.058.2-.083.3C732.88,263.892,732.906,263.8,732.926,263.722Z" transform="translate(-712.87 -199.872)" fill="#eb5c00"/>
      <path id="Path_2004" data-name="Path 2004" d="M793.046,254.16a41.246,41.246,0,0,0-3.658-4.708c.793,1.081-1.183-1.3.37.645-.277-.316-.559-.609-.853-.914-.672-.76-1.365-1.488-2.077-2.19,1.087.939.485.312-.343-.52-.852-.847-2-1.829-1.672-1.664-1.458-1.2-2.16-1.81-2.922-2.407a29.666,29.666,0,0,0-3.285-2.337c-1.071-.591-.562-.241.358.356.9.628,2.2,1.515,2.746,1.964-.319-.217-.742-.56-1.2-.86a18.829,18.829,0,0,1,2.309,1.949,49.629,49.629,0,0,0-6.35-4.188c-.006-.092-.079-.2-.964-.69a25.154,25.154,0,0,0-2.8-1.457c-1.242-.556-2.491-1.093-2.868-1.314-2.052-.825-3.9-1.51-5.5-2.094a15.7,15.7,0,0,0-4.079-1.024c-.509-.209-1.027-.388-1.548-.571s-1.039-.389-1.575-.538a15.528,15.528,0,0,0-6.4-.26c-.834.242,2.08.129-.162.526-.4.1-.949.191-1.483.324-.523.177-1.068.267-1.443.4-.118,0,.057-.144.3-.271l.673-.281a12.717,12.717,0,0,0-5.043,2.882,16.245,16.245,0,0,0-3.107,4.044c-.895,2.083-1.817,4.486-2.632,6.75a48.789,48.789,0,0,0-1.7,5.578q.4-1.21.831-2.413c-1.148,3.547.371.217-1.008,4.148-1.041,2.936-.681,1.436-.876,1.586-.506,1.667-1.194,4.458-1.607,5.771.484-1.925-.481,1.46-.244.559-.821,3.118-.767,3.438-1.411,6.079-.063.046-.131.1-.2.151a1.447,1.447,0,0,0-.386,1.169,4.623,4.623,0,0,1-.007.755,1.828,1.828,0,0,0,.023-.239,1.927,1.927,0,0,1-.013.366.888.888,0,0,1-.039.155.966.966,0,0,0-.04.145l-.014.11c-.048.322-.1.675-.192,1.3-.2,1.239.048-.674-.1.18a17.74,17.74,0,0,0-.259,4.276,12.186,12.186,0,0,0,.894,3.839,9.139,9.139,0,0,0,2.469,3.672,8.185,8.185,0,0,0,.788.652c.206.13.056,0,.355.524a3.622,3.622,0,0,0,1.827,1.352c.3.122.576.228.817.347a2.984,2.984,0,0,1,.413.242.835.835,0,0,0,.333.136l.229.062,1.912.568a10.027,10.027,0,0,0,1.086.239,7.821,7.821,0,0,0,1.153.081l1.168.036,1.231-.007c-.594-.035-1.194-.026-1.813-.1a11.92,11.92,0,0,1-1.947-.271,19.008,19.008,0,0,1-2-.709l-1.082-.405a4.838,4.838,0,0,0-1.034-.6c.212.083.423.164.622.261.1.046.195.1.3.158a.772.772,0,0,0,.325.159c.448.107.885.237,1.326.361l-.02-.01a9.418,9.418,0,0,0,2.439.609,27.154,27.154,0,0,0,4.116-.04l-1.08.137-1.366.1a27.977,27.977,0,0,0,4.149.117c1.233-.038,1.912-.01.732.441a16.528,16.528,0,0,0,3.255-.658c.768-.238,1.4-.5,2.423-.875a27.233,27.233,0,0,1,3.177-.9,22.99,22.99,0,0,1,4.542-1.786c1.91-.833,3.653-1.767,2.31-1.364-1.773.737-3.55,1.486-5.355,2.185-2.148.511.544-.77,1.3-1.271,1.668-.675,3.325-1.374,4.982-2.051,2.208-.9,4.487-1.7,6.756-2.523l-2.052.949,3.836-1.393c-.591.516-2.442,1.647.667.623a77.9,77.9,0,0,0,6.933-3.68,37.573,37.573,0,0,0,6.451-4.8l.954-1.055c.309-.36.582-.751.875-1.127.593-.758,1.084-1.53,1.62-2.324A15.694,15.694,0,0,0,794.066,260a8.189,8.189,0,0,0,.056-3.017A9.16,9.16,0,0,0,793.046,254.16Zm-59.987,8.672c-.137.538-.021.229-.147.689.3-1.062.693-2.3.971-3.11q-.99,3.26-1.938,6.537c-.034.024-.067.047-.105.076C731.919,266.792,732.16,266.066,733.06,262.833Zm-1.824,7.329a5.3,5.3,0,0,1,.112-.753,1.876,1.876,0,0,0,.036-.744,3.36,3.36,0,0,1-.015-.857,1.149,1.149,0,0,1,.508-.765l.053-.039-.024.08c-.933.664-.167,1.67-.5,2.455a28.073,28.073,0,0,0-.224,6.014,21.893,21.893,0,0,1-.128-2.726A26.216,26.216,0,0,1,731.236,270.161Zm1.928,11.261c-.5-.614-.391-.611-.469-.751a10.34,10.34,0,0,1-.622-1c-.165-.356-.35-.706-.48-1.075l-.02-.706c-.068-.311-.118-.6-.172-.9a9.623,9.623,0,0,0,2.461,4.75,10.556,10.556,0,0,1-1.142-1.32,3.144,3.144,0,0,0,.547.947C733.56,281.762,733.736,282.015,733.164,281.423Zm-1.871-5.045c.032.2.063.4.1.592C731.36,276.771,731.322,276.57,731.293,276.378Zm2.782,5.58c.073.074.152.144.229.216-.034-.031-.07-.06-.1-.09S734.118,282,734.074,281.957Zm2.439,2.52a1.922,1.922,0,0,1-.937-1.1c-.012-.063.036.031.1.134a2.982,2.982,0,0,0,1.652,1.32A5.089,5.089,0,0,1,736.513,284.478Zm17.205,1.016c-1.052.283-3.2.664-2.952.445-.18.022-.368.051-.55.074,1.362-.275,2.7-.626,4.031-1.036C754.231,285.118,754.25,285.242,753.719,285.493ZM764.429,234.2c.684.181,1.266.34,1.6.409.458.193.6.279.582.313Q765.53,234.544,764.429,234.2Zm10.738,42.986a36.732,36.732,0,0,0,3.4-1.577,31.244,31.244,0,0,0,7.7-4.767A33.566,33.566,0,0,1,775.167,277.185Zm11.18-6.424c.234-.206.458-.428.686-.644l-.016.017C786.8,270.351,786.572,270.552,786.347,270.761Z" transform="translate(-712.856 -199.672)" fill="#eb5c00"/>
      <path id="Path_2005" data-name="Path 2005" d="M766.781,281.108c1.546-.65,3.123-1.246,4.7-1.853l-.325.026C769.688,279.879,768.219,280.469,766.781,281.108Z" transform="translate(-713.079 -199.968)" fill="#eb5c00"/>
      <path id="Path_2006" data-name="Path 2006" d="M738.847,286.857a17.93,17.93,0,0,0,2.916,1.2l-.083-.337A19.987,19.987,0,0,1,738.847,286.857Z" transform="translate(-712.907 -200.014)" fill="#eb5c00"/>
      <path id="Path_2007" data-name="Path 2007" d="M731.244,269.337a.875.875,0,0,1-.041.169A.679.679,0,0,0,731.244,269.337Z" transform="translate(-712.86 -199.907)" fill="#eb5c00"/>
      <path id="Path_2008" data-name="Path 2008" d="M751.97,215.388a9.893,9.893,0,0,1-.044,1.32c-.106.1-.2-.374-.242-.486.058.491.026.951.1,1.37.021.212.036.42.048.626l.079.59.074.58.119.555a5.434,5.434,0,0,0,.33,1.083,17.426,17.426,0,0,0,1.964,2.624,11.318,11.318,0,0,0,1.983,1.711c-.294-.24-.55-.517-.825-.776,1.228,1.108.209-.145,1.545,1.1,1.033.891.477.509.5.625a19.017,19.017,0,0,0,2.281,1.34c-.615-.3.087.067.253.155l.781.3c.222.068.409.1.584.147a5.978,5.978,0,0,0,1.106.163c-.032.012.1.027.3.034l.949.021-.213-.011.367-.02c.132-.023.3-.05.57-.08.548-.061-.292.06.087.024a8.175,8.175,0,0,0,3.358-1.127l.457-.213.406-.255a7.423,7.423,0,0,0,.755-.518,7.63,7.63,0,0,0,1.2-1.226,21.369,21.369,0,0,0,1.951-3.222c-.274.446-.631.866-.956,1.353-.391.448-.738.985-1.242,1.516l.335-.5.275-.537-.007.007a15.668,15.668,0,0,0,1.378-2.559,9.065,9.065,0,0,1-.344,1.043c.352-.36.76-1.046,1.1-1.494.306-.459.566-.682.6-.086a5.5,5.5,0,0,0,.6-2.55c.171-.462.25-1.327.462-1.406a4.483,4.483,0,0,1,.3-2.173c.023-.942-.118-1.834-.3-1.215l-.081,1.284-.165,1.278c-.42.9-.468-.4-.6-.816.087-.741.155-1.5.183-2.282a25.257,25.257,0,0,0-.079-3.223l.034.105.221.888-.044-.894-.1-.891c.314.275.844,1.2.791-.292a20.437,20.437,0,0,0-1.417-3.294,16.013,16.013,0,0,0-2-3.031,9.04,9.04,0,0,0-4.577-2.262c-.424-.068-.847-.153-1.274-.2l-1.289-.1-1.3-.012a3.369,3.369,0,0,0-1.337.256c.6-.1-.727.289.346.02-.162.07-.315.139-.471.214a6.254,6.254,0,0,0-1.186.635c.474-.408.138-.243-.29.048s-.94.729-.878.563c-.613.565-.914.836-1.243,1.112a9.082,9.082,0,0,0-1.23,1.278c-.6.891.787-.755,1.251-1.166l-.435.476a4.253,4.253,0,0,1,1.049-.816,21.409,21.409,0,0,0-2.131,2.529c-.078-.029-.165-.026-.42.329-.34.229-1.282,2-1.582,2.261-.885,1.705-1.918,2.942-1.873,4-.29.4-.582.811-.868,1.237a6.013,6.013,0,0,0-.507,2.787C751.612,215.628,751.859,214.373,751.97,215.388Zm12.243,12.949a12.169,12.169,0,0,1-1.428.073l-.1,0c-.063-.016-.156-.035-.314-.061-.135-.029-.322-.035-.561-.1-.2-.063-.461-.128-.759-.221a1.135,1.135,0,0,1,.281.067,6.171,6.171,0,0,1-1.195-.478,6.681,6.681,0,0,0,2.646.735,8.9,8.9,0,0,0,3.329-.52c-.251.091-.506.169-.763.261A8.453,8.453,0,0,1,764.213,228.336Zm4.683-1.858c-.268.21-.265.165-.329.195a6.554,6.554,0,0,1-.847.556l-.305.055-1.052.465-.042.016a9.483,9.483,0,0,0,2.87-1.765l-.014.016-.733.631C768.433,226.732,769.424,226.011,768.9,226.479Zm.893-1.041c-.018.01-.009-.009.009-.038.224-.232.439-.478.65-.734A2.56,2.56,0,0,1,769.789,225.438Zm4.114-7.224c-.169.452-.523,1.34-.641,1.168-.046.076-.086.155-.127.235.188-.567.36-1.151.506-1.762A.352.352,0,0,1,773.9,218.214Zm.33-10.036a8.525,8.525,0,0,0-.512-1.589,9.3,9.3,0,0,0-1.843-3.583A9.272,9.272,0,0,1,774.232,208.178Zm-2.419-5.24c-.055-.062-.118-.116-.175-.176l.019.017C771.712,202.829,771.76,202.887,771.813,202.939Zm-17.521,5.707q-.225.452-.434.908c.1-.3.184-.554.216-.7C754.2,208.669,754.26,208.626,754.293,208.645Z" transform="translate(-712.985 -199.477)" fill="#eb5c00"/>
      <path id="Path_2009" data-name="Path 2009" d="M760.182,227.982l-.027-.011C760.236,228.011,760.229,228.007,760.182,227.982Z" transform="translate(-713.038 -199.652)" fill="#eb5c00"/>
      <path id="Path_2010" data-name="Path 2010" d="M774.8,210.232c.111.7.17,1.4.216,2.1l-.036-1.122-.1-1.122Z" transform="translate(-713.128 -199.542)" fill="#eb5c00"/>
      <path id="Path_2011" data-name="Path 2011" d="M772.717,223.605l-.271-.1c-.2.405-.528.669-.756,1.06C772.017,224.251,772.388,223.944,772.717,223.605Z" transform="translate(-713.109 -199.625)" fill="#eb5c00"/>
      <path id="Path_2012" data-name="Path 2012" d="M729.431,237.37a10.918,10.918,0,0,0,1.12.33c.394.119.771.222,1.023.271-.725-.136.55.148.211.08a13.189,13.189,0,0,0,2.171.3,3.208,3.208,0,0,0,.87.011c.212-.046.324-.074.769-.157.452-.123-.237.092.078.013a4.852,4.852,0,0,0,.881-.286,3.177,3.177,0,0,0,.6-.3,3.824,3.824,0,0,0,.529-.35,6.816,6.816,0,0,0,.634-.5,6.2,6.2,0,0,0,1.929-2.351,26.109,26.109,0,0,0,1.052-3c-.38.807-.8,1.643-1.38,2.724a7.494,7.494,0,0,0,.3-.973l-.005.007a15.923,15.923,0,0,0,.723-2.345,7.915,7.915,0,0,1-.109.924c.513-.689,1.027-2.513,1.313-1.534.048-.143.087-.272.119-.39s.046-.267.06-.383a2.137,2.137,0,0,0-.009-.6,5.881,5.881,0,0,0-.293-1.062c0-.47-.323-1.191-.183-1.349a4.522,4.522,0,0,1-.821-1.779c-.444-.708-1.06-1.207-.865-.686a12.27,12.27,0,0,1,1.085,1.955c.032.569-.213.38-.467.127a4.24,4.24,0,0,0-.433-.394,15.694,15.694,0,0,0-2.708-3.682c.227.148.457.287.678.447-.33-.381-.68-.742-1.041-1.094.385-.015,1.265.265.46-.7a54.515,54.515,0,0,1-5.073-3.115,12.8,12.8,0,0,0-4.033-1.379,8.8,8.8,0,0,0-4.385.408c.5-.061-.606.244.3.038-.129.061-.254.115-.383.172a5.718,5.718,0,0,0-1.042.485c.4-.356.123-.214-.259.007s-.814.6-.772.449c-.509.506-.745.76-1.009,1.026A5.332,5.332,0,0,0,720.2,220c-.137.445-.024.238.193-.116a11.687,11.687,0,0,1,.7-1.058c-.072.126-.188.294-.3.463a2.6,2.6,0,0,1,.818-.784,7.917,7.917,0,0,0-1.35,2.421c-.079-.009-.156.012-.279.363a3.959,3.959,0,0,0-.357,1.114,5.925,5.925,0,0,1-.285,1.138c-.061.406-.056.813-.108,1.186a9.113,9.113,0,0,0-.006,1.052,2.76,2.76,0,0,0,.128.882,1.592,1.592,0,0,0,.335.645l.043,1.315a4.723,4.723,0,0,0,1.221,2.063c.32.166-.17-.789.469-.21a4.252,4.252,0,0,1,.633.9c-.041.13-.338-.137-.419-.189a6.843,6.843,0,0,1,.66.9c.192.292.375.567.535.852a9.528,9.528,0,0,0,1.052,1.575,19.056,19.056,0,0,0,2.293,1.511,9.775,9.775,0,0,0,2.035.864l-.852-.431c1.273.574.153-.2,1.534.48C729.935,237.447,729.392,237.274,729.431,237.37Zm4.655.961c-.035,0-.045,0-.068.008-.122-.038-.448-.1-1.388-.234a1.747,1.747,0,0,1,.221.023,7.284,7.284,0,0,1-.774-.168,12.859,12.859,0,0,0,2.008.32,5.459,5.459,0,0,0,2.655-.7A5.058,5.058,0,0,1,734.086,238.331Zm3-.968c-.1.068-.2.13-.3.193C736.885,237.5,736.983,237.429,737.082,237.363Zm2.3-2.465c-.013.011-.01-.007,0-.035.142-.237.275-.482.4-.736A2.111,2.111,0,0,1,739.387,234.9Zm2.136-6.724c.024.428-.118,1.26-.271,1.13-.024.058-.042.117-.063.176a5.085,5.085,0,0,0-.048-1.5A.347.347,0,0,1,741.523,228.174Zm-2.508,7.259a7.194,7.194,0,0,1-.5.716c.017.081.7-.694.363-.206-.185.221-.195.18-.245.215a6.206,6.206,0,0,1-.587.624c-.085.03-.169.06-.257.082l-.373.266A7.457,7.457,0,0,0,739.015,235.433Zm-3.239-15.153a21.172,21.172,0,0,0-3.06-2.086,15.061,15.061,0,0,1,4.2,2.887A8.537,8.537,0,0,0,735.776,220.28Zm-16.225,4.529c.006.233.021.467.05.7a4,4,0,0,0-.14-.467C719.486,224.877,719.518,224.817,719.551,224.809Z" transform="translate(-712.786 -199.579)" fill="#eb5c00"/>
      <path id="Path_2013" data-name="Path 2013" d="M739.667,223.434a17.926,17.926,0,0,0-1.293-1.408l.016.146A17.554,17.554,0,0,1,739.667,223.434Z" transform="translate(-712.904 -199.616)" fill="#eb5c00"/>
      <path id="Path_2014" data-name="Path 2014" d="M740.888,233.883c.248-.309.5-.626.729-.955l-.284-.049A9.21,9.21,0,0,1,740.888,233.883Z" transform="translate(-712.92 -199.682)" fill="#eb5c00"/>
      <path id="Path_2015" data-name="Path 2015" d="M735.084,238.482c-.045.005-.1.01-.163.013l-.016,0Z" transform="translate(-712.883 -199.717)" fill="#eb5c00"/>
      <path id="Path_2016" data-name="Path 2016" d="M800.255,227.208c.037.446-.214-.542-.058.263-.063-.129-.113-.255-.163-.389q-.133-.477-.306-.933c.543.815-.381-1.141-.175-.986-.289-.559-.429-.832-.562-1.133a4.878,4.878,0,0,0-.721-1.153c-.312-.277-.195-.1.016.2.189.319.507.737.6.956-.071-.107-.163-.262-.271-.408a2.525,2.525,0,0,1,.362.944,9.724,9.724,0,0,0-1.51-1.967c.047-.07.067-.145-.178-.374-.113-.313-1.413-1.121-1.617-1.349-.319-.193-.639-.339-.932-.5a8.071,8.071,0,0,0-.843-.406,2.594,2.594,0,0,0-.758-.242,1.18,1.18,0,0,0-.654.04c-.346-.16-.7-.365-1.082-.522a3.754,3.754,0,0,0-2.168.247c-.245.234.718.14.021.514a3.425,3.425,0,0,1-.965.23c-.1-.085.218-.261.287-.316-1.349.475-2.489.5-3.553,1.119a9.085,9.085,0,0,0-1.6,2.032,7.442,7.442,0,0,0-.483,1.07,6.361,6.361,0,0,0-.2.85c.105-.268.2-.545.322-.81-.418,1.2.211.143-.286,1.434-.181.484-.232.605-.259.608s-.043-.117-.081-.092c-.041.291-.1.674-.141,1.041-.023.37-.054.72-.087.945.026-.328,0-.2-.019-.033s-.019.385-.021.23a16.433,16.433,0,0,0,.068,2c-.024.189-.052.654-.078.852l.02-.157c0,.2.009.3,0,.7s-.02-.221-.035.064a10.472,10.472,0,0,0,.194,2.654,4.727,4.727,0,0,0,.914,2.6,7.238,7.238,0,0,0,2.324,1.848,7.855,7.855,0,0,1-1.937-2.017,5.524,5.524,0,0,0,.689.6l0,0a5.431,5.431,0,0,0,1.819,1.137,4.908,4.908,0,0,1-.775-.223c.477.631,2.18,1.26,1.226,1.474a3.091,3.091,0,0,0,2.08.144c.385.1,1.047-.012,1.144.179a2.71,2.71,0,0,1,1.675-.123c.711-.147,1.342-.448.845-.511a19.48,19.48,0,0,1-1.941.242c-.479-.172-.257-.324.027-.485a4.97,4.97,0,0,0,.458-.266,15.624,15.624,0,0,0,4.037-.91c-.213.152-.429.3-.655.437.433-.125.853-.3,1.272-.467-.1.346-.654,1.022.46.689a24.687,24.687,0,0,0,3.864-3.948,7.7,7.7,0,0,0,.995-3.748A11.644,11.644,0,0,0,800.255,227.208Zm-5.861-6.737c.138.094.169.148.153.184-.238-.1-.482-.183-.731-.26A3.666,3.666,0,0,0,794.394,220.471Zm-11.679,14.776c-.087-.242-.047-.233-.05-.286-.085-.241-.133-.491-.2-.736l.059-.238a16.494,16.494,0,0,1-.26-3.6c0-.064-.007-.1-.01-.124.011-.162.012-.508.01-1.315a2.936,2.936,0,0,1,.007.331c.011-.342.036-.768.072-1.07a13.528,13.528,0,0,0-.029,2.181,12.139,12.139,0,0,0,.719,5.17l-.009-.016-.287-.67C782.664,234.846,782.935,235.733,782.715,235.247Zm.571.87c0-.015.012,0,.03.013a5.736,5.736,0,0,0,.392.621A1.7,1.7,0,0,1,783.287,236.116Zm5.158,3.317c-.365-.049-1.066-.293-.942-.418-.065-.031-.133-.051-.2-.077a9.593,9.593,0,0,0,1.379.164A.356.356,0,0,1,788.445,239.434Zm9.367-2.809a7.492,7.492,0,0,1-1.957,1.252,4.79,4.79,0,0,0,1.014-.731,7.761,7.761,0,0,0,2.334-2.315l-.006.013A6.72,6.72,0,0,1,797.812,236.625Z" transform="translate(-713.173 -199.598)" fill="#eb5c00"/>
      <path id="Path_2017" data-name="Path 2017" d="M793.085,239.371a15.176,15.176,0,0,0,1.629-.541l-.128-.047A15.849,15.849,0,0,1,793.085,239.371Z" transform="translate(-713.241 -199.719)" fill="#eb5c00"/>
      <path id="Path_2018" data-name="Path 2018" d="M783.588,237.856a7.876,7.876,0,0,0,.616,1.012l.133-.256A5.383,5.383,0,0,1,783.588,237.856Z" transform="translate(-713.182 -199.713)" fill="#eb5c00"/>
      <path id="Path_2019" data-name="Path 2019" d="M728.693,259.74c-.113-.554-.389-1.038-.472-.648a13.946,13.946,0,0,1,.169,1.5c-.183.374-.339.2-.481-.021a3.264,3.264,0,0,0-.251-.344,12.463,12.463,0,0,0-.641-3.064c.117.153.238.3.356.46-.1-.33-.206-.661-.339-.981.332.057.927.465.717-.411-.985-1.183-1.936-2-2.883-3.16a6.033,6.033,0,0,0-2.757-1.195,8.986,8.986,0,0,0-3.028.069c.345.044-.433.113.2.105-.1.034-.2.064-.31.092a6.43,6.43,0,0,0-.733.14c.649-.387-.905.188-.788.008-.435.224-.677.269-.909.378a2.7,2.7,0,0,0-.919.54c-.43.483.584-.322.933-.439-.082.058-.2.126-.327.2a1.629,1.629,0,0,1,.759-.21,5.5,5.5,0,0,0-1.495,1.145c-.068-.044-.141-.068-.316.117-.121.043-.32.333-.53.613a2.327,2.327,0,0,1-.466.671c-.435,1.03-1.079,1.832-.776,2.465-.167.253-.37.515-.535.79a2.6,2.6,0,0,0,.043,1.653c.195.208.242-.537.513.029a1.5,1.5,0,0,1,.072.758c-.105.075-.214-.186-.248-.244a11.73,11.73,0,0,1,.181,1.517,3.814,3.814,0,0,0,.085.726,2.684,2.684,0,0,0,.209.71,7.307,7.307,0,0,0,1.536,1.413,3.38,3.38,0,0,0,1.5.573,6.509,6.509,0,0,1-.6-.316c.9.406.224-.353,1.158.159.7.379.291.342.284.489.429.149,1.169.231,1.487.364-.5-.082.349.166.117.119.766.165.9.067,1.514.195-.047.01.034.021.16.049a4.483,4.483,0,0,1,.541.172l-.121-.052a3.4,3.4,0,0,1,.545.066c.321.059-.172.026.051.081a4.338,4.338,0,0,0,2.1-.064,2.905,2.905,0,0,0,2.063-.756,8.25,8.25,0,0,0,1.464-1.862,7.491,7.491,0,0,1-1.708,1.374,3.151,3.151,0,0,0,.443-.559l0,0a4.246,4.246,0,0,0,.957-1.353,2.849,2.849,0,0,1-.183.618c.585-.284,1.165-1.607,1.405-.808a2.187,2.187,0,0,0,.147-1.66c.076-.3.027-.828.2-.9A1.651,1.651,0,0,1,728.693,259.74Zm-1.825-3.34a3.7,3.7,0,0,0-.537-.75,7.289,7.289,0,0,0-1.617-1.973l.008,0A5.821,5.821,0,0,1,726.869,256.4Zm-12.756-.2c-.065.18-.126.363-.18.551.013-.183.027-.341.031-.433C714.032,256.216,714.078,256.192,714.113,256.2Zm10.463,10.286c-.186.078-.188.017-.234.006-.184.074-.377.117-.567.175l-.209-.165c-.959,0-1.508.4-2.755.187-.031,0-.044,0-.062.007a4.094,4.094,0,0,0-.991-.373c.159.033.037-.043.256.032a4.7,4.7,0,0,1-.823-.334c.584.21,1.14.4,1.621.617a9.447,9.447,0,0,0,3.945-.549c-.165.094-.336.18-.51.263C724.245,266.474,724.938,266.27,724.576,266.49Zm.62-.571c-.013,0-.008-.016,0-.034a4.864,4.864,0,0,0,.489-.29A.845.845,0,0,1,725.2,265.919Zm2.382-3.117a1.655,1.655,0,0,0-.08.156,6.566,6.566,0,0,0,.18-1.055c.128.025.252.041.324.2C727.928,262.382,727.715,262.912,727.578,262.8Z" transform="translate(-712.747 -199.799)" fill="#eb5c00"/>
      <path id="Path_2020" data-name="Path 2020" d="M727.582,257.455a12.052,12.052,0,0,1,.477,1.149,10.929,10.929,0,0,0-.422-1.252Z" transform="translate(-712.838 -199.833)" fill="#eb5c00"/>
      <path id="Path_2021" data-name="Path 2021" d="M726.732,266.066l.442-.187.427-.245-.266-.175C727.188,265.734,726.926,265.839,726.732,266.066Z" transform="translate(-712.833 -199.883)" fill="#eb5c00"/>
    </g>
    <g id="Group_1303" data-name="Group 1303" transform="translate(760.324 164.008)">
      <path id="Path_2041" data-name="Path 2041" d="M767.285,182.234l-.069.091Z" transform="translate(-760.717 -164.229)" fill="#eb5c00"/>
      <path id="Path_2042" data-name="Path 2042" d="M789.173,186.961a15.213,15.213,0,0,0-.631-2.1c.129.477-.233-.6.042.271-.053-.146-.111-.283-.171-.427q-.2-.526-.422-1.03c.248.467.124.172-.049-.224s-.444-.894-.354-.794c-.341-.607-.5-.909-.684-1.215a10.768,10.768,0,0,0-.818-1.239c-.289-.346-.16-.158.077.169s.555.814.682,1.041c-.081-.117-.181-.291-.3-.454a6.971,6.971,0,0,1,.534.976,18.352,18.352,0,0,0-1.624-2.283c.01-.033,0-.081-.24-.366a9.489,9.489,0,0,0-.767-.873c-.354-.356-.71-.707-.811-.833-.6-.556-1.14-1.038-1.61-1.45a5.755,5.755,0,0,0-1.265-.893c-.147-.14-.3-.27-.456-.4s-.305-.271-.469-.395a5.74,5.74,0,0,0-2.166-.941c-.318-.028.7.322-.125.16-.151-.02-.352-.061-.553-.086-.2-.009-.4-.05-.55-.053-.04-.018.039-.042.139-.054l.268-.007a4.688,4.688,0,0,0-2.115.32,5.971,5.971,0,0,0-1.605.976c-.584.6-1.221,1.3-1.8,1.969a18.229,18.229,0,0,0-1.325,1.691q.3-.361.606-.718c-.866,1.065.1.123-.9,1.291-.748.87-.425.4-.512.428-.4.5-1,1.372-1.32,1.769.422-.6-.36.437-.158.159-.7.962-.721,1.079-1.293,1.9l-.09.025a.536.536,0,0,0-.288.35,1.776,1.776,0,0,1-.1.259.734.734,0,0,0,.04-.08.656.656,0,0,1-.054.124.232.232,0,0,1-.034.048.475.475,0,0,0-.033.045l-.02.036-.239.42c-.233.4.106-.226-.059.049a6.539,6.539,0,0,0-.658,1.434,4.535,4.535,0,0,0-.2,1.438,3.377,3.377,0,0,0,.36,1.59,3,3,0,0,0,.185.328c.053.073.019.008.052.228a1.339,1.339,0,0,0,.448.708c.086.082.167.154.234.228a1.049,1.049,0,0,1,.109.138.314.314,0,0,0,.1.091l.07.051.582.45a3.756,3.756,0,0,0,.341.227,2.923,2.923,0,0,0,.386.181l.4.168.424.161c-.2-.091-.408-.168-.609-.277a4.383,4.383,0,0,1-.633-.352,6.964,6.964,0,0,1-.594-.51l-.318-.283a1.745,1.745,0,0,0-.275-.344c.062.057.124.112.179.172a1.229,1.229,0,0,1,.08.093.28.28,0,0,0,.091.1c.139.1.271.2.407.3l-.006-.006a3.505,3.505,0,0,0,.756.534,10.213,10.213,0,0,0,1.419.534l-.389-.1-.482-.148a10.264,10.264,0,0,0,1.41.592c.428.151.658.25.193.248a6.041,6.041,0,0,0,1.206.207c.3.021.548.014.949.023a10.033,10.033,0,0,1,1.21.112,8.5,8.5,0,0,1,1.8-.009c.766-.032,1.49-.121.974-.161-.707.017-1.417.038-2.13.038-.806-.109.289-.192.616-.263.662-.01,1.325-.03,1.984-.042.879-.017,1.768.013,2.657.032l-.831.053,1.5.032c-.272.1-1.058.241.146.3a28.822,28.822,0,0,0,2.871-.342,13.836,13.836,0,0,0,2.855-.793l.468-.236c.154-.082.3-.181.45-.271.305-.181.576-.381.866-.582a5.763,5.763,0,0,0,1.545-1.488,3.023,3.023,0,0,0,.421-1.03A3.394,3.394,0,0,0,789.173,186.961Zm-21.762-5c-.119.167-.038.076-.142.217.245-.325.545-.7.747-.939q-.774.988-1.536,1.989l-.046.011C766.493,183.172,766.672,182.954,767.411,181.963Zm-1.6,2.275a1.838,1.838,0,0,1,.139-.243.692.692,0,0,0,.11-.251,1.233,1.233,0,0,1,.109-.3.423.423,0,0,1,.276-.195l.023-.007-.019.025c-.409.1-.279.552-.5.777a10.367,10.367,0,0,0-.877,2.036,8.038,8.038,0,0,1,.319-.953A9.7,9.7,0,0,1,765.81,184.238Zm-.836,4.125a.66.66,0,0,1-.061-.32,3.849,3.849,0,0,1-.081-.426c-.009-.144-.026-.288-.022-.433l.087-.244c.018-.116.039-.223.06-.331a3.542,3.542,0,0,0,.214,1.959,3.889,3.889,0,0,1-.217-.605,1.17,1.17,0,0,0,.062.4C765.066,188.533,765.092,188.644,764.974,188.364Zm.029-1.982c-.016.073-.032.144-.044.217C764.973,186.526,764.987,186.451,765,186.382Zm.213,2.287c.016.035.034.07.051.1l-.024-.045C765.233,188.71,765.226,188.689,765.216,188.669Zm.5,1.191a.709.709,0,0,1-.176-.5c0-.023.008.016.018.061a1.1,1.1,0,0,0,.392.673A1.972,1.972,0,0,1,765.719,189.859Zm5.776,2.637c-.4-.043-1.189-.2-1.073-.24-.065-.017-.133-.032-.2-.048.5.086,1.013.144,1.524.18C771.72,192.435,771.711,192.48,771.495,192.5ZM782,176.3c.211.153.39.284.5.353.132.127.168.176.158.185C782.436,176.654,782.217,176.474,782,176.3Zm-2.028,16.2a13.665,13.665,0,0,0,1.378-.089,11.52,11.52,0,0,0,3.278-.614A12.359,12.359,0,0,1,779.968,192.494Zm4.7-.721c.107-.039.214-.085.321-.13l-.008,0C784.875,191.694,784.769,191.732,784.664,191.774Z" transform="translate(-760.701 -164.175)" fill="#eb5c00"/>
      <path id="Path_2043" data-name="Path 2043" d="M776.6,192.714c.618-.018,1.238-.013,1.861-.012l-.115-.034C777.765,192.678,777.181,192.685,776.6,192.714Z" transform="translate(-760.775 -164.294)" fill="#eb5c00"/>
      <path id="Path_2044" data-name="Path 2044" d="M766.242,190.97a6.6,6.6,0,0,0,.842.8l.017-.127A7.239,7.239,0,0,1,766.242,190.97Z" transform="translate(-760.711 -164.283)" fill="#eb5c00"/>
      <path id="Path_2045" data-name="Path 2045" d="M765.96,183.94a.331.331,0,0,1-.037.053A.257.257,0,0,0,765.96,183.94Z" transform="translate(-760.709 -164.24)" fill="#eb5c00"/>
      <path id="Path_2046" data-name="Path 2046" d="M780.24,168.17a3.649,3.649,0,0,1-.191.448c-.051.021-.021-.156-.019-.2-.045.176-.117.33-.149.483-.021.076-.044.149-.067.221l-.052.214-.052.21-.033.206a2.014,2.014,0,0,0-.031.416,6.428,6.428,0,0,0,.326,1.163,4.19,4.19,0,0,0,.453.852c-.069-.121-.12-.251-.18-.377.274.544.092-.022.385.584.236.443.1.239.087.28a6.994,6.994,0,0,0,.605.764c-.172-.184.021.034.067.086l.228.209c.068.053.127.089.181.128a2.176,2.176,0,0,0,.359.2c-.012,0,.031.023.1.052l.324.133-.072-.032.128.042c.049.01.109.023.207.048.2.053-.108-.018.027.02a3,3,0,0,0,1.3.06l.185-.012.174-.034a2.679,2.679,0,0,0,.328-.078,2.825,2.825,0,0,0,.575-.261,7.883,7.883,0,0,0,1.1-.848c-.153.116-.332.214-.508.337-.194.1-.385.24-.629.356l.182-.128.167-.147h0a5.746,5.746,0,0,0,.814-.7,3.211,3.211,0,0,1-.256.312,6.673,6.673,0,0,0,.577-.367c.166-.116.286-.159.216.05a2.018,2.018,0,0,0,.546-.8c.12-.136.262-.422.346-.421a1.659,1.659,0,0,1,.392-.707c.133-.321.2-.646.06-.457l-.2.43-.227.417c-.264.254-.107-.2-.1-.361.128-.243.252-.494.367-.759a9.552,9.552,0,0,0,.4-1.118l0,.041-.042.334.1-.313.084-.32c.071.136.13.526.31,0a7.438,7.438,0,0,0-.049-1.32,5.889,5.889,0,0,0-.285-1.308,3.336,3.336,0,0,0-1.271-1.386c-.137-.08-.271-.165-.411-.239l-.429-.206-.444-.177a1.233,1.233,0,0,0-.494-.089c.218.047-.287,0,.117.053-.066,0-.127.006-.191.011a2.238,2.238,0,0,0-.492.061c.218-.078.081-.066-.105-.023s-.42.126-.377.077c-.286.112-.425.166-.576.217a3.49,3.49,0,0,0-.592.275c-.324.228.371-.154.584-.234l-.213.105a1.564,1.564,0,0,1,.469-.14,7.752,7.752,0,0,0-1.068.585c-.023-.02-.054-.031-.189.057-.147.034-.706.517-.844.566-.531.468-1.051.755-1.175,1.123-.153.1-.308.2-.463.31a2.225,2.225,0,0,0-.545.891C780.085,168.206,780.337,167.807,780.24,168.17Zm2.484,6.077a4.556,4.556,0,0,1-.5-.165l-.034-.012c-.02-.014-.049-.033-.1-.063s-.106-.055-.181-.107-.141-.105-.232-.177a.42.42,0,0,1,.089.061,2.282,2.282,0,0,1-.347-.323,2.456,2.456,0,0,0,.811.6,3.273,3.273,0,0,0,1.214.264c-.1,0-.2-.009-.3-.012A3.151,3.151,0,0,1,782.724,174.247Zm1.855-.015c-.119.036-.112.021-.138.023a2.536,2.536,0,0,1-.365.079l-.112-.022-.423.02a.091.091,0,0,0-.017,0,3.5,3.5,0,0,0,1.221-.225l-.007,0-.336.119C784.387,174.257,784.824,174.141,784.579,174.232Zm.445-.24c-.007,0,0,0,.008-.012.108-.05.215-.105.321-.166A.925.925,0,0,1,785.025,173.993Zm2.374-1.935c-.118.133-.358.392-.376.316-.026.02-.05.042-.075.064.14-.17.276-.348.407-.538A.13.13,0,0,1,787.4,172.058Zm1.448-3.4a3.172,3.172,0,0,0,.036-.614,3.433,3.433,0,0,0-.157-1.476A3.414,3.414,0,0,1,788.847,168.654Zm-.134-2.122c-.011-.029-.025-.056-.037-.083l0,.008C788.693,166.481,788.7,166.507,788.713,166.532Zm-6.778-.37c-.092.083-.182.169-.27.254.073-.088.137-.165.168-.213C781.9,166.158,781.926,166.152,781.935,166.162Z" transform="translate(-760.794 -164.118)" fill="#eb5c00"/>
      <path id="Path_2047" data-name="Path 2047" d="M781.4,173.58l-.008-.007C781.417,173.6,781.415,173.595,781.4,173.58Z" transform="translate(-760.804 -164.176)" fill="#eb5c00"/>
      <path id="Path_2048" data-name="Path 2048" d="M788.783,169.426c-.055.254-.127.5-.2.75l.137-.391.114-.4Z" transform="translate(-760.848 -164.15)" fill="#eb5c00"/>
      <path id="Path_2049" data-name="Path 2049" d="M786.289,173.745l-.079-.07c-.125.112-.27.16-.4.264C785.963,173.874,786.131,173.817,786.289,173.745Z" transform="translate(-760.831 -164.177)" fill="#eb5c00"/>
      <path id="Path_2050" data-name="Path 2050" d="M769.58,172.721a3.772,3.772,0,0,0,.341.261c.119.093.235.179.315.23-.231-.143.169.124.062.056a4.818,4.818,0,0,0,.707.39c-.063-.012.16.076.3.12.078.012.121.017.285.048s-.094,0,.025.015a1.8,1.8,0,0,0,.341.019,1.224,1.224,0,0,0,.246-.023,1.461,1.461,0,0,0,.229-.051,2.233,2.233,0,0,0,.284-.089,2.274,2.274,0,0,0,.976-.551,9.768,9.768,0,0,0,.76-.89c-.237.227-.493.458-.837.752a2.616,2.616,0,0,0,.233-.294h0a5.765,5.765,0,0,0,.561-.709,2.762,2.762,0,0,1-.161.3c.268-.168.688-.726.656-.352.035-.043.066-.081.092-.118s.052-.085.072-.123a.816.816,0,0,0,.077-.208,2.132,2.132,0,0,0,.041-.4c.062-.162.048-.452.116-.488a1.67,1.67,0,0,1-.046-.721c-.058-.3-.2-.556-.206-.35a4.435,4.435,0,0,1,.113.816c-.065.2-.123.1-.178-.019a1.388,1.388,0,0,0-.1-.193,5.777,5.777,0,0,0-.44-1.625c.059.08.118.159.174.243-.064-.174-.135-.346-.213-.514.134.046.4.259.251-.179a19.941,19.941,0,0,1-1.329-1.744,4.7,4.7,0,0,0-1.2-1.011,3.248,3.248,0,0,0-1.56-.443c.181.047-.242,0,.1.053-.053,0-.1.006-.154.008a2.1,2.1,0,0,0-.422.029c.185-.07.071-.058-.091-.033s-.36.1-.325.052c-.242.106-.357.162-.483.219a1.973,1.973,0,0,0-.463.324c-.107.135-.041.079.081-.014a4.16,4.16,0,0,1,.384-.27c-.042.034-.1.076-.166.118a.947.947,0,0,1,.386-.16,2.9,2.9,0,0,0-.786.652c-.026-.014-.056-.017-.144.087a1.465,1.465,0,0,0-.271.335,2.219,2.219,0,0,1-.248.354c-.076.131-.127.271-.2.393a3.656,3.656,0,0,0-.142.361,1.012,1.012,0,0,0-.073.32.6.6,0,0,0,.029.266l-.16.457a1.748,1.748,0,0,0,.145.872c.089.1.047-.294.19-.01a1.571,1.571,0,0,1,.1.395c-.031.04-.1-.091-.118-.12a2.474,2.474,0,0,1,.106.4c.027.126.054.244.071.364a3.489,3.489,0,0,0,.152.681,7.07,7.07,0,0,0,.586.825,3.616,3.616,0,0,0,.584.566l-.234-.261c.361.367.078-.048.463.37C769.742,172.815,769.579,172.683,769.58,172.721Zm1.471.949-.024-.007c-.038-.029-.141-.092-.446-.264a.716.716,0,0,1,.073.037,2.629,2.629,0,0,1-.244-.16,4.8,4.8,0,0,0,.648.377,2.014,2.014,0,0,0,1,.113A1.872,1.872,0,0,1,771.05,173.671Zm1.159.066-.129.027C772.123,173.756,772.166,173.745,772.209,173.736Zm1.119-.541c-.006,0,0,0,0-.012q.119-.094.236-.2A.779.779,0,0,1,773.328,173.2Zm1.628-2.025c-.049.15-.208.417-.243.352-.016.017-.03.035-.045.053a1.871,1.871,0,0,0,.183-.521A.127.127,0,0,1,774.956,171.17Zm-1.827,2.161a2.656,2.656,0,0,1-.266.179c-.005.031.335-.144.152-.022-.092.051-.09.036-.112.041a2.147,2.147,0,0,1-.285.136c-.033,0-.066,0-.1,0l-.163.042A2.791,2.791,0,0,0,773.13,173.331Zm.9-5.637a7.826,7.826,0,0,0-.774-1.124,5.574,5.574,0,0,1,1.059,1.55A3.189,3.189,0,0,0,774.032,167.694Zm-6.177-.6c-.029.081-.055.164-.076.248a1.477,1.477,0,0,0,.014-.179C767.824,167.106,767.843,167.09,767.855,167.091Z" transform="translate(-760.718 -164.123)" fill="#eb5c00"/>
      <path id="Path_2051" data-name="Path 2051" d="M774.958,169.289a6.749,6.749,0,0,0-.256-.655l-.014.052A6.579,6.579,0,0,1,774.958,169.289Z" transform="translate(-760.763 -164.146)" fill="#eb5c00"/>
      <path id="Path_2052" data-name="Path 2052" d="M773.988,173.042c.126-.074.253-.149.377-.232l-.09-.055A3.507,3.507,0,0,1,773.988,173.042Z" transform="translate(-760.759 -164.171)" fill="#eb5c00"/>
      <path id="Path_2053" data-name="Path 2053" d="M771.383,173.85l-.058-.017h-.006Z" transform="translate(-760.742 -164.178)" fill="#eb5c00"/>
      <path id="Path_2054" data-name="Path 2054" d="M795.259,178.65c-.047.158,0-.215-.055.083,0-.053,0-.1,0-.155.012-.121.018-.242.019-.362.078.353.021-.442.071-.362-.025-.231-.037-.343-.042-.464a1.806,1.806,0,0,0-.094-.492c-.071-.136-.054-.06-.022.073s.077.32.079.408c-.01-.047-.021-.112-.04-.177a.922.922,0,0,1,0,.373,3.6,3.6,0,0,0-.256-.877c.025-.017.042-.041-.012-.152,0-.122-.336-.572-.376-.678-.085-.109-.175-.2-.254-.3a2.915,2.915,0,0,0-.236-.251.947.947,0,0,0-.228-.184.427.427,0,0,0-.23-.074c-.1-.1-.194-.22-.3-.323a1.379,1.379,0,0,0-.777-.2c-.115.048.229.143-.062.18a1.3,1.3,0,0,1-.362-.05c-.023-.043.109-.061.141-.071a7.543,7.543,0,0,0-1.369-.088,3.374,3.374,0,0,0-.821.485,2.809,2.809,0,0,0-.309.3,2.278,2.278,0,0,0-.183.264c.071-.078.141-.16.219-.236-.3.358.054.077-.289.455-.126.142-.161.177-.17.174s0-.046-.016-.043c-.053.094-.124.219-.187.339s-.114.241-.155.313c.052-.108.028-.069,0-.014s-.058.13-.038.077a6.066,6.066,0,0,0-.242.695c-.034.063-.105.219-.14.283l.028-.052c-.027.069-.037.1-.092.242s.022-.079-.021.017a3.834,3.834,0,0,0-.286.937,1.743,1.743,0,0,0-.032,1.015,2.67,2.67,0,0,0,.553.944,2.89,2.89,0,0,1-.4-.951,2.086,2.086,0,0,0,.157.3v0a1.993,1.993,0,0,0,.473.632,1.806,1.806,0,0,1-.237-.18c.08.28.581.724.226.67a1.137,1.137,0,0,0,.7.326c.118.087.361.135.369.214a1,1,0,0,1,.592.181c.263.044.521.024.358-.064a6.9,6.9,0,0,1-.7-.175c-.142-.123-.046-.146.074-.163a1.838,1.838,0,0,0,.193-.031,5.78,5.78,0,0,0,1.508.225c-.092.024-.187.046-.283.063.166.015.333.01.5.009-.081.105-.361.263.067.3a9.11,9.11,0,0,0,1.852-.842,2.837,2.837,0,0,0,.84-1.156A4.283,4.283,0,0,0,795.259,178.65Zm-1.117-3.094c.035.051.038.073.028.083-.069-.066-.141-.127-.217-.187A1.516,1.516,0,0,0,794.142,175.556Zm-5.978,3.522c0-.094.015-.085.022-.1,0-.094.019-.187.029-.279l.052-.075a6.125,6.125,0,0,1,.39-1.271.229.229,0,0,0,.013-.044c.026-.055.072-.173.179-.451-.029.074,0,.012-.042.115.049-.116.114-.259.167-.359a5.073,5.073,0,0,0-.3.745,4.475,4.475,0,0,0-.44,1.872v-.007l-.01-.268C788.2,178.934,788.175,179.275,788.164,179.079Zm.082.376c0-.006,0,0,.008.008a2.315,2.315,0,0,0,.052.265A.621.621,0,0,1,788.246,179.454Zm1.331,1.826c-.119-.066-.328-.243-.268-.269-.018-.019-.039-.035-.058-.054a3.491,3.491,0,0,0,.451.241A.131.131,0,0,1,789.576,181.28Zm3.592.28a2.746,2.746,0,0,1-.84.17,1.745,1.745,0,0,0,.446-.116,2.854,2.854,0,0,0,1.109-.485l0,0A2.454,2.454,0,0,1,793.168,181.56Z" transform="translate(-760.845 -164.182)" fill="#eb5c00"/>
      <path id="Path_2055" data-name="Path 2055" d="M791.191,181.87a5.358,5.358,0,0,0,.631.031l-.038-.033A5.633,5.633,0,0,1,791.191,181.87Z" transform="translate(-760.864 -164.227)" fill="#eb5c00"/>
      <path id="Path_2056" data-name="Path 2056" d="M788.13,180.085a2.86,2.86,0,0,0,.078.43l.08-.071A1.989,1.989,0,0,1,788.13,180.085Z" transform="translate(-760.846 -164.216)" fill="#eb5c00"/>
      <path id="Path_2057" data-name="Path 2057" d="M766.352,180.308c.035-.2.005-.407-.076-.285a5.066,5.066,0,0,1-.142.54c-.112.1-.143.023-.163-.072a1.18,1.18,0,0,0-.041-.151,4.566,4.566,0,0,0,.188-1.138c.02.069.042.134.061.2.009-.126.018-.254.015-.382.106.064.256.283.3-.046-.181-.538-.4-.944-.571-1.47a2.218,2.218,0,0,0-.788-.777,3.322,3.322,0,0,0-1.05-.379c.113.061-.164-.019.054.063l-.118-.01a2.471,2.471,0,0,0-.271-.05c.274-.047-.336-.056-.271-.1-.179.019-.268,0-.363.008a1.014,1.014,0,0,0-.388.064c-.212.108.243-.033.379-.027-.036.009-.086.016-.138.024a.6.6,0,0,1,.289.029,2.03,2.03,0,0,0-.667.195c-.017-.024-.039-.042-.123,0a.877.877,0,0,0-.263.14.875.875,0,0,1-.25.169c-.287.3-.614.485-.594.743-.091.065-.2.128-.289.2a.956.956,0,0,0-.2.574c.039.1.154-.153.172.078a.56.56,0,0,1-.077.27c-.046.011-.049-.092-.053-.117a4.2,4.2,0,0,1-.14.546,1.492,1.492,0,0,0-.067.26,1,1,0,0,0-.023.271,2.667,2.667,0,0,0,.34.69,1.246,1.246,0,0,0,.437.4c-.059-.057-.109-.124-.163-.188.255.259.124-.091.377.209.189.223.055.156.033.206.127.108.371.236.462.323-.16-.094.1.1.025.057.241.159.3.142.494.268-.018,0,.009.012.049.038a1.753,1.753,0,0,1,.163.131l-.035-.034a1.271,1.271,0,0,1,.178.094c.1.064-.063-.014.007.035a1.606,1.606,0,0,0,.729.257,1.07,1.07,0,0,0,.81.014,3.028,3.028,0,0,0,.75-.445,2.741,2.741,0,0,1-.77.245,1.167,1.167,0,0,0,.227-.133h0a1.554,1.554,0,0,0,.509-.338,1.084,1.084,0,0,1-.145.189c.24-.02.614-.4.59-.091.253-.239.209-.337.271-.551.066-.091.119-.28.189-.281A.611.611,0,0,1,766.352,180.308Zm-.182-1.389a1.434,1.434,0,0,0-.084-.33,2.7,2.7,0,0,0-.294-.892l0,0A2.148,2.148,0,0,1,766.17,178.919Zm-4.357-1.764c-.046.053-.091.107-.135.165.029-.061.055-.113.069-.145C761.784,177.147,761.8,177.145,761.813,177.154Zm2.227,4.926c-.075,0-.068-.02-.081-.03a1.993,1.993,0,0,1-.218-.015l-.051-.084a3.96,3.96,0,0,1-.971-.3l-.022-.006a1.483,1.483,0,0,0-.291-.259c.051.032.019-.01.085.045a1.635,1.635,0,0,1-.239-.224c.173.149.338.29.474.427a3.493,3.493,0,0,0,1.429.336c-.07.011-.14.017-.211.023C763.928,182.03,764.193,182.052,764.04,182.08Zm.288-.114s0-.006.006-.011a1.911,1.911,0,0,0,.207-.035A.311.311,0,0,1,764.328,181.966Zm1.233-.753c-.018.012-.032.029-.049.043a2.376,2.376,0,0,0,.2-.339c.041.026.08.048.084.111C765.738,181.114,765.595,181.268,765.562,181.212Z" transform="translate(-760.677 -164.193)" fill="#eb5c00"/>
      <path id="Path_2058" data-name="Path 2058" d="M766.282,179.371c.008.151.018.305.011.458a4.212,4.212,0,0,0,.022-.487Z" transform="translate(-760.711 -164.212)" fill="#eb5c00"/>
      <path id="Path_2059" data-name="Path 2059" d="M764.844,182.216l.177,0,.18-.028-.068-.1C765.045,182.163,764.941,182.164,764.844,182.216Z" transform="translate(-760.702 -164.228)" fill="#eb5c00"/>
    </g>
  </g>
</svg>
