<svg xmlns="http://www.w3.org/2000/svg" width="44.756" height="44.94" viewBox="0 0 44.756 44.94">
  <g id="paw" transform="translate(-759.972 -356.402)">
    <path id="Path_3413" data-name="Path 3413" d="M787.632,444.69c-.014.051-.03.1-.043.152C787.608,444.777,787.621,444.729,787.632,444.69Z" transform="translate(-17.422 -55.697)" fill="#eb5c00"/>
    <path id="Path_3414" data-name="Path 3414" d="M816.353,411.649a21.087,21.087,0,0,0-1.867-2.4c.4.552-.6-.665.189.329-.141-.162-.285-.311-.435-.467-.343-.388-.7-.759-1.061-1.118.555.479.248.159-.175-.265s-1.021-.933-.853-.849c-.744-.614-1.1-.924-1.491-1.229a15.072,15.072,0,0,0-1.677-1.192c-.547-.3-.286-.123.183.181.46.32,1.124.773,1.4,1-.163-.111-.379-.285-.61-.439a9.672,9.672,0,0,1,1.179.995,25.286,25.286,0,0,0-3.241-2.137c0-.047-.04-.1-.492-.353a12.876,12.876,0,0,0-1.427-.744c-.634-.283-1.271-.558-1.464-.67-1.048-.421-1.992-.77-2.805-1.069a8,8,0,0,0-2.082-.522c-.26-.107-.524-.2-.79-.292s-.53-.2-.8-.274A7.928,7.928,0,0,0,794.76,400c-.425.123,1.062.066-.082.269-.2.05-.485.1-.757.165-.267.09-.545.137-.736.206-.06,0,.029-.073.154-.139l.343-.143a6.49,6.49,0,0,0-2.574,1.471,8.278,8.278,0,0,0-1.586,2.064c-.456,1.064-.927,2.29-1.343,3.445a25.076,25.076,0,0,0-.867,2.848q.207-.617.425-1.231c-.586,1.81.189.111-.515,2.117-.531,1.5-.347.733-.447.81-.258.851-.609,2.275-.821,2.946.247-.983-.245.745-.124.285-.419,1.591-.391,1.755-.72,3.1l-.1.077a.738.738,0,0,0-.2.6,2.4,2.4,0,0,1,0,.386.98.98,0,0,0,.012-.122.928.928,0,0,1-.007.187.4.4,0,0,1-.02.079.52.52,0,0,0-.02.074l-.007.056c-.024.165-.051.344-.1.662-.1.632.024-.344-.052.092a9.061,9.061,0,0,0-.133,2.183,6.227,6.227,0,0,0,.456,1.959,4.668,4.668,0,0,0,1.26,1.875,4.2,4.2,0,0,0,.4.333c.1.066.028,0,.181.267a1.848,1.848,0,0,0,.933.69c.152.062.294.117.417.177a1.444,1.444,0,0,1,.211.124.431.431,0,0,0,.17.069l.117.031.976.29a4.961,4.961,0,0,0,.555.122,3.946,3.946,0,0,0,.589.042l.6.018.628,0c-.3-.018-.609-.014-.925-.053a6.074,6.074,0,0,1-.993-.139,9.551,9.551,0,0,1-1.023-.361l-.553-.207a2.465,2.465,0,0,0-.528-.307c.108.042.216.083.317.133.053.024.1.052.151.081a.39.39,0,0,0,.166.081c.229.055.451.121.677.184l-.01,0a4.816,4.816,0,0,0,1.245.311,13.874,13.874,0,0,0,2.1-.02l-.552.07-.7.049a14.131,14.131,0,0,0,2.118.06c.629-.019.976,0,.374.226a8.42,8.42,0,0,0,1.662-.336c.392-.121.714-.257,1.237-.446a13.945,13.945,0,0,1,1.621-.46,11.786,11.786,0,0,1,2.319-.912c.975-.425,1.865-.9,1.178-.7-.9.376-1.812.758-2.733,1.115-1.1.261.278-.393.664-.649.851-.344,1.7-.7,2.543-1.047,1.127-.46,2.29-.867,3.448-1.288l-1.047.484,1.958-.711c-.3.264-1.247.841.34.319a39.952,39.952,0,0,0,3.539-1.879,19.2,19.2,0,0,0,3.293-2.452l.487-.539c.158-.183.3-.384.447-.576.3-.387.553-.781.827-1.186a8.021,8.021,0,0,0,1.253-2.7,4.186,4.186,0,0,0,.028-1.54A4.678,4.678,0,0,0,816.353,411.649Zm-30.619,4.426c-.07.275-.011.117-.075.352.153-.542.354-1.177.5-1.587q-.5,1.664-.989,3.336l-.054.038C785.151,418.1,785.274,417.725,785.734,416.075Zm-.931,3.741a2.689,2.689,0,0,1,.058-.384.958.958,0,0,0,.018-.38,1.735,1.735,0,0,1-.008-.437.584.584,0,0,1,.26-.39l.027-.02-.012.041c-.476.339-.085.852-.253,1.254a14.308,14.308,0,0,0-.114,3.069,11.153,11.153,0,0,1-.065-1.391A13.432,13.432,0,0,1,784.8,419.816Zm.984,5.748c-.254-.313-.2-.312-.24-.383a5.288,5.288,0,0,1-.317-.51c-.084-.181-.179-.36-.245-.549l-.01-.36c-.035-.159-.06-.306-.088-.457a4.909,4.909,0,0,0,1.256,2.424,5.362,5.362,0,0,1-.583-.674,1.618,1.618,0,0,0,.279.484C785.989,425.737,786.079,425.867,785.787,425.564Zm-.955-2.575c.016.1.032.2.053.3C784.866,423.19,784.847,423.087,784.832,422.989Zm1.42,2.848c.037.037.078.073.117.11l-.053-.046C786.293,425.882,786.274,425.858,786.252,425.838Zm1.245,1.286a.981.981,0,0,1-.478-.559c-.006-.032.018.016.053.068a1.524,1.524,0,0,0,.843.674A2.65,2.65,0,0,1,787.5,427.124Zm8.782.518c-.537.145-1.636.339-1.507.227-.092.011-.188.026-.281.038.695-.141,1.38-.32,2.058-.529C796.54,427.45,796.55,427.514,796.279,427.642Zm5.467-26.182c.349.092.646.173.818.209.234.1.3.142.3.159Q802.308,401.636,801.746,401.46Zm5.481,21.941a18.771,18.771,0,0,0,1.735-.805,15.964,15.964,0,0,0,3.928-2.433A17.138,17.138,0,0,1,807.227,423.4Zm5.707-3.28c.119-.1.234-.218.35-.329l-.008.009C813.166,419.913,813.048,420.016,812.934,420.122Z" transform="translate(-15.449 -27.434)" fill="#eb5c00"/>
    <path id="Path_3415" data-name="Path 3415" d="M834.228,466.981c.789-.332,1.594-.636,2.4-.946l-.166.013C835.712,466.354,834.962,466.655,834.228,466.981Z" transform="translate(-46.844 -69.162)" fill="#eb5c00"/>
    <path id="Path_3416" data-name="Path 3416" d="M795.84,476.482a9.132,9.132,0,0,0,1.488.612l-.043-.172A10.124,10.124,0,0,1,795.84,476.482Z" transform="translate(-22.627 -75.753)" fill="#eb5c00"/>
    <path id="Path_3417" data-name="Path 3417" d="M785.357,452.406a.468.468,0,0,1-.021.086A.348.348,0,0,0,785.357,452.406Z" transform="translate(-16.001 -60.564)" fill="#eb5c00"/>
    <path id="Path_3418" data-name="Path 3418" d="M813.447,364.523a4.986,4.986,0,0,1-.023.674c-.054.052-.1-.191-.123-.248.029.25.013.485.048.7.011.108.019.214.024.319s.027.2.041.3.025.2.038.3l.061.283a2.754,2.754,0,0,0,.168.553,8.92,8.92,0,0,0,1,1.34,5.8,5.8,0,0,0,1.012.873c-.15-.122-.28-.264-.421-.4.627.566.107-.074.789.563.527.455.244.26.254.319a9.691,9.691,0,0,0,1.164.684c-.314-.151.045.034.13.079l.4.156c.113.034.209.052.3.075a3.031,3.031,0,0,0,.565.083c-.016.006.051.014.152.017l.484.011-.108-.006.187-.01c.068-.011.152-.025.291-.041.279-.031-.149.03.045.012a4.168,4.168,0,0,0,1.714-.575l.234-.109.207-.13a3.719,3.719,0,0,0,.385-.264,3.887,3.887,0,0,0,.612-.626,10.91,10.91,0,0,0,1-1.644c-.14.227-.322.442-.488.69-.2.229-.377.5-.634.774l.171-.256.141-.275,0,0a8,8,0,0,0,.7-1.306,4.733,4.733,0,0,1-.175.532c.179-.184.388-.534.562-.763.156-.234.289-.348.3-.044a2.8,2.8,0,0,0,.306-1.3c.087-.236.128-.677.236-.718a2.3,2.3,0,0,1,.153-1.109c.012-.481-.061-.936-.152-.62l-.041.655-.084.652c-.215.462-.239-.2-.307-.416.044-.378.079-.764.093-1.165a12.962,12.962,0,0,0-.04-1.645l.017.054.113.453-.022-.457-.053-.455c.16.14.431.614.4-.15a10.442,10.442,0,0,0-.724-1.681,8.15,8.15,0,0,0-1.023-1.547,4.611,4.611,0,0,0-2.336-1.155c-.217-.035-.432-.078-.65-.1l-.658-.051-.663-.006a1.726,1.726,0,0,0-.683.131c.3-.049-.371.148.177.01-.083.035-.161.07-.241.109a3.2,3.2,0,0,0-.605.324c.242-.209.07-.124-.148.024s-.48.372-.449.287c-.312.288-.466.427-.634.568a4.658,4.658,0,0,0-.628.652c-.3.456.4-.385.639-.595l-.223.243a2.166,2.166,0,0,1,.535-.416,10.959,10.959,0,0,0-1.088,1.291c-.039-.014-.084-.013-.214.168-.174.117-.654,1.02-.808,1.154-.451.87-.979,1.5-.956,2.039-.148.205-.3.415-.443.632a3.076,3.076,0,0,0-.259,1.423C813.264,364.646,813.39,364.005,813.447,364.523Zm6.249,6.61a6.119,6.119,0,0,1-.729.037h-.049c-.032-.008-.08-.018-.16-.031s-.164-.018-.286-.049c-.1-.032-.236-.065-.388-.113a.568.568,0,0,1,.144.034,3.156,3.156,0,0,1-.61-.244,3.405,3.405,0,0,0,1.351.375,4.546,4.546,0,0,0,1.7-.265c-.128.047-.258.086-.39.133A4.185,4.185,0,0,1,819.7,371.133Zm2.39-.948c-.137.107-.135.084-.168.1a3.314,3.314,0,0,1-.432.284l-.155.028-.537.237-.021.008a4.843,4.843,0,0,0,1.465-.9l-.007.008-.374.322C821.85,370.314,822.356,369.946,822.086,370.185Zm.455-.531c-.008.005,0,0,0-.019.114-.118.224-.244.331-.375A1.293,1.293,0,0,1,822.542,369.654Zm2.1-3.687c-.086.231-.267.684-.327.6-.024.038-.044.079-.065.119.1-.289.184-.587.258-.9A.18.18,0,0,1,824.642,365.966Zm.168-5.123a4.345,4.345,0,0,0-.261-.811,4.751,4.751,0,0,0-.94-1.829A4.732,4.732,0,0,1,824.81,360.843Zm-1.235-2.674c-.028-.032-.06-.059-.089-.09l.01.008C823.524,358.113,823.548,358.143,823.575,358.169Zm-8.943,2.913q-.115.231-.221.464c.05-.152.094-.282.11-.36C814.584,361.094,814.616,361.072,814.632,361.082Z" transform="translate(-33.575)" fill="#eb5c00"/>
    <path id="Path_3419" data-name="Path 3419" d="M825.136,395.565l-.014-.005C825.163,395.58,825.16,395.578,825.136,395.565Z" transform="translate(-41.1 -24.703)" fill="#eb5c00"/>
    <path id="Path_3420" data-name="Path 3420" d="M845.247,371.058c.056.355.087.713.11,1.072l-.018-.573-.051-.573Z" transform="translate(-53.796 -9.199)" fill="#eb5c00"/>
    <path id="Path_3421" data-name="Path 3421" d="M841.5,389.478l-.138-.049c-.1.207-.269.342-.386.541C841.14,389.808,841.329,389.651,841.5,389.478Z" transform="translate(-51.099 -20.835)" fill="#eb5c00"/>
    <path id="Path_3422" data-name="Path 3422" d="M774.077,390.045a5.4,5.4,0,0,0,.571.168c.2.061.394.113.522.139-.37-.07.281.075.107.041a6.762,6.762,0,0,0,1.108.151,1.642,1.642,0,0,0,.444.006c.108-.023.165-.038.393-.081.23-.063-.121.047.039.007a2.429,2.429,0,0,0,.45-.146,1.618,1.618,0,0,0,.308-.154,2.044,2.044,0,0,0,.27-.179,3.349,3.349,0,0,0,.323-.258,3.163,3.163,0,0,0,.985-1.2,13.458,13.458,0,0,0,.537-1.53c-.194.412-.408.839-.7,1.391a3.81,3.81,0,0,0,.152-.5l0,0a8.1,8.1,0,0,0,.369-1.2,3.967,3.967,0,0,1-.056.472c.262-.351.524-1.283.67-.783.024-.073.045-.139.061-.2s.024-.136.031-.2a1.087,1.087,0,0,0-.005-.307,2.972,2.972,0,0,0-.149-.542c0-.24-.165-.608-.094-.688a2.316,2.316,0,0,1-.419-.908c-.227-.361-.541-.616-.441-.35a6.3,6.3,0,0,1,.554,1c.016.291-.109.194-.239.065a2.08,2.08,0,0,0-.221-.2,8.025,8.025,0,0,0-1.383-1.88c.116.076.233.147.346.228-.169-.194-.347-.379-.531-.559.2-.007.646.135.235-.356a28.022,28.022,0,0,1-2.59-1.59,6.532,6.532,0,0,0-2.058-.7,4.5,4.5,0,0,0-2.238.209c.257-.031-.31.125.151.02-.066.031-.13.059-.2.087a2.95,2.95,0,0,0-.532.248c.2-.182.063-.109-.132,0s-.416.308-.394.229c-.26.258-.381.388-.515.523a2.709,2.709,0,0,0-.437.651c-.07.227-.012.121.1-.059a5.863,5.863,0,0,1,.36-.54c-.037.064-.1.15-.155.236a1.323,1.323,0,0,1,.417-.4,4.029,4.029,0,0,0-.689,1.236c-.041,0-.08.006-.143.185a2.027,2.027,0,0,0-.182.568,3.026,3.026,0,0,1-.145.581c-.031.207-.029.415-.056.605a4.768,4.768,0,0,0,0,.538,1.4,1.4,0,0,0,.066.45.811.811,0,0,0,.171.329l.021.671a2.406,2.406,0,0,0,.624,1.053c.163.085-.087-.4.24-.107a2.161,2.161,0,0,1,.323.461c-.02.066-.172-.07-.213-.1a3.467,3.467,0,0,1,.337.461c.1.149.191.29.273.435a4.868,4.868,0,0,0,.537.8,9.8,9.8,0,0,0,1.171.771,4.982,4.982,0,0,0,1.039.441l-.435-.22c.649.293.078-.1.783.245C774.333,390.085,774.057,390,774.077,390.045Zm2.376.491-.035,0c-.062-.019-.229-.049-.708-.119a.8.8,0,0,1,.113.011,3.7,3.7,0,0,1-.4-.086,6.577,6.577,0,0,0,1.026.163,2.785,2.785,0,0,0,1.355-.356A2.586,2.586,0,0,1,776.453,390.536Zm1.53-.494c-.051.035-.1.067-.154.1C777.881,390.11,777.932,390.075,777.982,390.042Zm1.176-1.258c-.006.006-.005,0,0-.018q.109-.181.205-.376A1.082,1.082,0,0,1,779.159,388.784Zm1.09-3.433c.012.219-.06.643-.138.577-.013.029-.022.06-.032.09a2.589,2.589,0,0,0-.025-.765A.177.177,0,0,1,780.249,385.351Zm-1.28,3.706a3.637,3.637,0,0,1-.254.365c.008.042.36-.354.185-.1-.095.112-.1.092-.125.109a3.212,3.212,0,0,1-.3.318c-.044.016-.086.031-.131.042l-.19.136A3.81,3.81,0,0,0,778.969,389.057Zm-1.653-7.734a10.839,10.839,0,0,0-1.562-1.065,7.7,7.7,0,0,1,2.144,1.474A4.353,4.353,0,0,0,777.315,381.322Zm-8.281,2.311c0,.119.011.239.025.36a1.957,1.957,0,0,0-.072-.238C769,383.669,769.017,383.638,769.034,383.634Z" transform="translate(-5.608 -14.353)" fill="#eb5c00"/>
    <path id="Path_3423" data-name="Path 3423" d="M795.851,388.109a9.179,9.179,0,0,0-.66-.719l.008.074A9.014,9.014,0,0,1,795.851,388.109Z" transform="translate(-22.218 -19.549)" fill="#eb5c00"/>
    <path id="Path_3424" data-name="Path 3424" d="M798.645,402.817c.127-.158.253-.32.372-.488l-.145-.025A4.777,4.777,0,0,1,798.645,402.817Z" transform="translate(-24.397 -28.958)" fill="#eb5c00"/>
    <path id="Path_3425" data-name="Path 3425" d="M790.514,410l-.083.007-.008,0Z" transform="translate(-19.21 -33.815)" fill="#eb5c00"/>
    <path id="Path_3426" data-name="Path 3426" d="M864.572,387.586c.018.228-.109-.276-.029.134a1.984,1.984,0,0,1-.083-.2c-.045-.162-.1-.321-.156-.476.277.416-.194-.582-.089-.5-.147-.285-.219-.425-.286-.578a2.483,2.483,0,0,0-.368-.588c-.159-.141-.1-.05.008.1s.259.376.306.488c-.036-.055-.083-.134-.138-.208a1.288,1.288,0,0,1,.185.482,4.975,4.975,0,0,0-.77-1c.024-.036.034-.075-.091-.191-.058-.16-.722-.572-.826-.688-.163-.1-.326-.173-.475-.254a4.239,4.239,0,0,0-.43-.207,1.328,1.328,0,0,0-.387-.124.608.608,0,0,0-.334.02c-.176-.081-.36-.186-.553-.266a1.917,1.917,0,0,0-1.107.126c-.125.12.367.072.011.263a1.735,1.735,0,0,1-.492.117c-.052-.043.111-.133.147-.161a10.428,10.428,0,0,0-1.813.571,4.635,4.635,0,0,0-.819,1.037,3.919,3.919,0,0,0-.247.547,3.21,3.21,0,0,0-.1.434c.054-.137.1-.278.164-.413-.214.614.108.073-.146.732-.092.247-.119.309-.132.31s-.022-.06-.042-.048c-.021.149-.052.344-.072.531s-.027.367-.044.482c.013-.167,0-.1-.01-.017s-.01.2-.011.117a8.445,8.445,0,0,0,.034,1.019c-.012.1-.026.334-.039.435l.01-.08c0,.1,0,.151,0,.36s-.01-.113-.018.032a5.347,5.347,0,0,0,.1,1.355,2.414,2.414,0,0,0,.467,1.327,3.707,3.707,0,0,0,1.186.943,4.018,4.018,0,0,1-.989-1.03,2.873,2.873,0,0,0,.352.307v0a2.775,2.775,0,0,0,.928.581,2.509,2.509,0,0,1-.4-.114c.244.322,1.113.643.626.752a1.576,1.576,0,0,0,1.062.073c.2.053.534-.006.584.092a1.378,1.378,0,0,1,.855-.063c.362-.075.685-.229.431-.261a9.789,9.789,0,0,1-.991.123c-.245-.087-.131-.165.014-.248a2.644,2.644,0,0,0,.234-.135,8,8,0,0,0,2.061-.465c-.109.078-.219.154-.334.223.221-.064.435-.153.649-.238-.052.176-.333.522.235.351a12.611,12.611,0,0,0,1.972-2.015,3.935,3.935,0,0,0,.508-1.913A5.959,5.959,0,0,0,864.572,387.586Zm-2.992-3.439c.07.048.086.076.078.094-.121-.05-.246-.093-.373-.133A1.848,1.848,0,0,0,861.58,384.147Zm-5.961,7.542c-.044-.124-.024-.118-.025-.146-.043-.123-.068-.25-.1-.375l.03-.121a8.456,8.456,0,0,1-.133-1.838c0-.032,0-.052,0-.064.005-.083.006-.259.005-.671a1.634,1.634,0,0,1,0,.169c.005-.175.018-.393.036-.547a6.948,6.948,0,0,0-.014,1.113,6.191,6.191,0,0,0,.367,2.639l-.005-.008-.147-.342C855.593,391.484,855.731,391.937,855.619,391.688Zm.292.444c0-.008.006,0,.015.007a2.99,2.99,0,0,0,.2.317A.871.871,0,0,1,855.911,392.132Zm2.632,1.693c-.186-.025-.544-.15-.481-.213-.033-.016-.068-.026-.1-.04a4.868,4.868,0,0,0,.7.084A.181.181,0,0,1,858.543,393.826Zm4.782-1.434a3.83,3.83,0,0,1-1,.64,2.445,2.445,0,0,0,.518-.374,3.961,3.961,0,0,0,1.191-1.181l0,.007A3.434,3.434,0,0,1,863.325,392.392Z" transform="translate(-60.15 -17.09)" fill="#eb5c00"/>
    <path id="Path_3427" data-name="Path 3427" d="M870.376,410.719a7.664,7.664,0,0,0,.831-.276l-.065-.024A8.045,8.045,0,0,1,870.376,410.719Z" transform="translate(-69.648 -34.077)" fill="#eb5c00"/>
    <path id="Path_3428" data-name="Path 3428" d="M857.324,409.144a4.1,4.1,0,0,0,.315.516l.068-.131A2.736,2.736,0,0,1,857.324,409.144Z" transform="translate(-61.414 -33.272)" fill="#eb5c00"/>
    <path id="Path_3429" data-name="Path 3429" d="M768.112,432.344c-.058-.283-.2-.53-.241-.331a7.054,7.054,0,0,1,.086.768c-.093.191-.173.1-.245-.011a1.647,1.647,0,0,0-.128-.175,6.32,6.32,0,0,0-.327-1.564c.06.078.122.153.182.234-.052-.168-.1-.337-.173-.5.169.029.473.237.366-.21-.5-.6-.989-1.019-1.472-1.613a3.073,3.073,0,0,0-1.407-.609,4.588,4.588,0,0,0-1.546.035c.176.022-.221.058.1.054-.053.017-.1.032-.158.047a3.432,3.432,0,0,0-.374.072c.331-.2-.463.1-.4,0-.222.114-.346.137-.464.193a1.394,1.394,0,0,0-.47.276c-.219.246.3-.164.477-.224-.042.03-.1.065-.167.1a.831.831,0,0,1,.387-.107,2.8,2.8,0,0,0-.763.585c-.034-.023-.072-.035-.161.06-.062.021-.163.17-.27.313a1.209,1.209,0,0,1-.238.342c-.223.526-.551.935-.4,1.258-.085.129-.189.263-.273.4a1.328,1.328,0,0,0,.022.844c.1.106.123-.274.262.014a.766.766,0,0,1,.037.387c-.054.038-.109-.094-.127-.125a5.981,5.981,0,0,1,.092.774,1.99,1.99,0,0,0,.044.37,1.378,1.378,0,0,0,.107.362,3.7,3.7,0,0,0,.784.721,1.71,1.71,0,0,0,.764.293,3.336,3.336,0,0,1-.3-.161c.46.207.114-.18.591.081.355.193.148.175.145.249.219.076.6.118.759.186-.255-.041.178.085.06.061.391.085.458.034.773.1-.024.005.017.011.082.025a2.231,2.231,0,0,1,.276.087l-.062-.026a1.732,1.732,0,0,1,.278.033c.164.03-.088.013.026.041a2.213,2.213,0,0,0,1.071-.033,1.485,1.485,0,0,0,1.053-.386,4.215,4.215,0,0,0,.747-.951,3.853,3.853,0,0,1-.872.7,1.647,1.647,0,0,0,.226-.286h0a2.177,2.177,0,0,0,.489-.691,1.5,1.5,0,0,1-.093.316c.3-.145.594-.821.717-.413a1.12,1.12,0,0,0,.075-.847c.039-.151.013-.422.1-.458A.843.843,0,0,1,768.112,432.344Zm-.931-1.7a1.9,1.9,0,0,0-.274-.384,3.727,3.727,0,0,0-.826-1.007l0,0A2.971,2.971,0,0,1,767.181,430.639Zm-6.511-.1c-.033.092-.065.185-.092.281.007-.093.014-.173.016-.221C760.628,430.545,760.652,430.533,760.669,430.539Zm5.341,5.251c-.1.04-.1.008-.12,0-.094.038-.192.06-.289.089l-.107-.084a5.537,5.537,0,0,1-1.406.1l-.031,0a2.108,2.108,0,0,0-.506-.19c.081.017.019-.022.131.017a2.364,2.364,0,0,1-.42-.171c.3.107.582.207.827.315a4.821,4.821,0,0,0,2.014-.28c-.084.048-.171.092-.26.134C765.841,435.782,766.194,435.678,766.01,435.79Zm.316-.292c-.007,0,0-.008,0-.018a2.484,2.484,0,0,0,.25-.148A.432.432,0,0,1,766.327,435.5Zm1.216-1.591c-.018.025-.027.053-.042.079a3.272,3.272,0,0,0,.092-.538c.066.013.128.021.165.1C767.721,433.693,767.613,433.963,767.543,433.907Z" transform="translate(0 -45.346)" fill="#eb5c00"/>
    <path id="Path_3430" data-name="Path 3430" d="M780.359,435.988a6.139,6.139,0,0,1,.244.587,5.641,5.641,0,0,0-.215-.639Z" transform="translate(-12.861 -50.174)" fill="#eb5c00"/>
    <path id="Path_3431" data-name="Path 3431" d="M779.191,447.387l.226-.1.218-.125-.136-.089C779.424,447.217,779.29,447.271,779.191,447.387Z" transform="translate(-12.124 -57.202)" fill="#eb5c00"/>
  </g>
</svg>
