<svg xmlns="http://www.w3.org/2000/svg" viewBox="0 0 1441.72 105.87">
  <g id="Hero_Bottom_Edging" data-name="Hero Bottom Edging" transform="translate(409.294 -815.228)">
    <path id="Edging_-_Green" data-name="Edging - Green" d="M-.032,31.9,1.217,43.13l1439,12.26.408-47.872c-.581.1-1.125.2-1.663.287a32.477,32.477,0,0,0-6.305-2.7c.14-.1.256-.188.4-.293l-.637.218c-1.217-.376-2.528-.73-3.995-1.066-.835-.191-1.788.2-1.342.514.762.537,1.56,1.04,2.411,1.525l-.05.016-.694-.185a61.272,61.272,0,0,0-10.323-1.719,13.506,13.506,0,0,1-.139-1.548c-.542.539-1.061,1.01-1.563,1.448-.614-.027-1.243-.045-1.9-.055a2.407,2.407,0,0,0-.733.093c-5.462-1.006-11.241-1.774-17.376-2.284-.747-.062-1.487.251-1.054.523A24.173,24.173,0,0,0,1398.9,3.96a75.151,75.151,0,0,0-9.649-.183,4.1,4.1,0,0,0-1.109.2c.114-.126.217-.243.342-.378-.7.368-1.344.7-1.952,1-2.042.112-4.08.321-6.072.626a13.807,13.807,0,0,1,1.123-2.438,38.437,38.437,0,0,1-3.535,2.515c-1.739-.1-3.488-.176-5.262-.17a12.226,12.226,0,0,0-2-.839,20.183,20.183,0,0,1-1.162-1.859c-.264.489-.53.918-.791,1.318a54.892,54.892,0,0,0-14.156-.889c-.145-.231-.285-.472-.416-.728-.115.271-.225.528-.327.773a60.152,60.152,0,0,0-7.806.967c-.634-.1-1.284-.185-1.937-.266a15.81,15.81,0,0,1-.735-1.781c-.22.6-.429,1.136-.633,1.629-1.966-.206-4-.35-6.068-.429-.176-.3-.354-.6-.543-.928,0,.324-.013.618-.029.91-2.835-.1-5.727-.09-8.582,0-1.393.041-2.162.659-1.182,1.059.7.289,1.423.551,2.145.8-1.033-.1-2.076-.187-3.123-.269-.619-.293-1.262-.607-1.949-.946.2.3.357.58.5.847-2.882-.2-5.814-.334-8.865-.361-1.414-.012-2.21.714-1.2,1.079a51.516,51.516,0,0,0,5.48,1.6,158.572,158.572,0,0,0-18.63.093,3.285,3.285,0,0,0-.683.116c.106-.172.221-.352.351-.548-.993.492-1.889.913-2.716,1.272q-3.594.075-7.165.267a6.05,6.05,0,0,1-.9-2.408,25.57,25.57,0,0,1-3.551,2.234,119.64,119.64,0,0,0-13.506-.091c-9.729-2.45-22.451-1.845-32.884.023-.791.142-1.208.473-1.25.807a8.494,8.494,0,0,0-1.881.869,4.579,4.579,0,0,0-.634.486c-2.631-.318-5.311-.575-8.062-.766A112.664,112.664,0,0,0,1216.806,6.6c-1.208-.215-2.46.148-2.223.66.773,1.689,2.126,2.422,5.277,3.6a1.849,1.849,0,0,0,1.6-.137c1.741.393,3.528.75,5.325,1.092-1.841-.141-3.883-.394-6.188-.744a1.571,1.571,0,0,1-.758.943,60.664,60.664,0,0,0-8.519-2.513c-2.6-.542-6.193-1.382-9.248-.987-.447.058-.727.306-.319.437,2.531.8,6.41.9,9.3,1.566a73.865,73.865,0,0,1,7.326,2.139,12.6,12.6,0,0,1-1.386.283c-.6.1-1.243.185-1.865.231A123.25,123.25,0,0,0,1193.4,9.157c-1.1-.1-2.279.5-1.245.806.662.2,1.327.395,1.992.593-.129.069-.256.142-.385.21-4.061-.665-8.2-1.2-12.794-1.513-1.2-.082-2.47.517-1.356.876.727.232,1.463.448,2.2.653-1.9-.107-3.821-.184-5.8-.223-2.12-.041-2.517,1.03-1.062,1.42.513.137,1.032.252,1.55.378-1.5-.084-3-.183-4.5-.276-.311-.081-.61-.157-.929-.245-.016.066-.043.121-.065.185-1.188-.074-2.373-.142-3.566-.218-2.027-.129-3.238.591-2.857,1.16-1.118.017-2.233.049-3.349.081a2.612,2.612,0,0,1-.007-.38c-.277.142-.54.271-.8.4l-.252.006c-2.7-.269-5.448-.464-8.215-.594-.058-.207-.115-.424-.162-.658-.238.219-.468.42-.7.618-3.95-.163-7.941-.17-11.909,0-.154-.116-.3-.223-.459-.348-.1.136-.215.256-.321.385-1.656.081-3.307.181-4.946.326-3.382-.268-6.924-.357-10.608-.309-.9.012-1.811.309-1.766.676a.865.865,0,0,0,.261.452c-2.149-.359-4.326-.7-6.585-.984-1.384-.173-2.625.488-1.91.946.135.09.3.163.444.249-1.351-.352-2.72-.694-4.121-1.019-1.548-.36-2.864.441-1.871.921a9.312,9.312,0,0,0,1.927.755c.469.163,1.233,0,1.088-.248.5.845,4.018,1.736,7.388,2.47a2.879,2.879,0,0,1-1.847.01c-4.482.945-7.5,1.064-5.625-1.21a54.087,54.087,0,0,1-10.626,1.794,48.207,48.207,0,0,0-10.564-2.994c-.449-.318-.894-.655-1.348-1.028-.251.253-.508.467-.759.7-1.824-.255-3.722-.461-5.746-.584-1.175-.071-2.224.46-1.266.82l.023.008c-1.517-.186-3.059-.359-4.668-.5-.753-.068-1.62.153-1.6.471.071,1.176,3.882,1.972,5.881,2.649.345.117.992.289,1.738.475-.331.105-.66.218-1.008.3-1.535-.257-3.063-.522-4.622-.759-2.728-.43-10.682-1.817-13.358-.579-.5.231-.427.513.2.681.5.135,1.016.255,1.524.385-2.422-.243-4.921-.407-7.523-.5a4.1,4.1,0,0,1,.079-.429c-.274.143-.53.272-.793.4-1.458-.043-2.946-.069-4.491-.057-1.139.008-1.669.632-.629.843.7.144,1.393.3,2.1.44-2.3-.33-4.613-.637-6.94-.909a8.632,8.632,0,0,1-.759-1.465,15.052,15.052,0,0,1-1,1.275q-2.265-.243-4.562-.431c-.152-.321-.3-.669-.453-1.062-.383.339-.769.645-1.149.937a125.052,125.052,0,0,0-14.794-.209c-.031,0-.055.008-.084.009a8.826,8.826,0,0,0-4.353.638c-.5-.367-1-.779-1.506-1.236a20.342,20.342,0,0,1-3.868,2.8,70.3,70.3,0,0,0-13.167-1.1c-1.005.012-1.8.554-.923.826.8.25,1.654.476,2.479.718-2.723-.406-5.48-.782-8.347-1.075-1.992-.2-2.829.949-.9,1.189,3.69.459,7.291.99,10.857,1.547a71.484,71.484,0,0,1-10.531-1.27,1.322,1.322,0,0,1-.042.355c-1.413-.5-2.888-.979-4.472-1.4a39.312,39.312,0,0,0-10.414-1.765c-.963.006-1.135.451-.48.641,3.154.917,7.367,1.283,10.671,2.176,1.455.394,2.811.828,4.108,1.286a2.393,2.393,0,0,1-.681.411c-.06-.007-.1-.023-.173-.028-1.772-.137-3.562-.383-5.37-.683.066-.058.088-.1.167-.164l-.544.1c-7.166-1.215-14.558-3.236-21.976-2.863-.107-.1-.214-.2-.32-.306-.573.464-1.136.877-1.7,1.268-.139-.018-.262-.039-.4-.057-1.436-.176-2.154.522-1.385.895.094.044.191.082.282.125-.432.254-.865.488-1.3.7-1.96-.272-3.963-.518-6.063-.714-1.673-.155-2.61.594-1.633,1.056.306.144.612.274.92.408-2.12-.267-4.249-.522-6.43-.73-1.835-.176-2.77.539-2.118,1.056-3.4-.372-6.8-.734-10.285-1a3.967,3.967,0,0,0-2.689.615,89.112,89.112,0,0,0-14.274-1.713,2.871,2.871,0,0,0-.557.039,67.618,67.618,0,0,0-6.549-2.162,2.73,2.73,0,0,0-2.2.353,5.132,5.132,0,0,0-1.679,3.615l-.148.066a62.009,62.009,0,0,0-6.681-4.2c-.909-.487-2.848-.186-2.564.427a16.227,16.227,0,0,0,3.707,4.655c-.112-.053-.23-.1-.345-.158q-2.678-1.159-5.775-2.151c-.845-.291-2.311,0-2,.453a6.986,6.986,0,0,0,2.082,2.3c-2.93-.688-5.924-1.274-9.108-1.763-.229.431-1.728.79-2.863.413-.96-.318-1.936-.633-2.939-.936-.729.208-1,.655-.3.942.776.316,1.593.6,2.411.881-2.677-.466-5.4-.886-8.241-1.216.076.28-.246.592-1.113.732a13.828,13.828,0,0,1-3.28.036c-.081,0-.147.008-.236,0-1.044-.039-2.064-.127-3.065-.24l-.063.024q-1.628-.179-3.322-.278a34.735,34.735,0,0,1,3.82.958c1.45.462-.458,1.409-2.045,1.034-1.432-.34-2.951-.7-4.407-1.085-.057-.009-.113-.019-.175-.026a4.31,4.31,0,0,0,1.646,1.121l.052.018-.01,0c.1.041.167.087.269.126,1.134.6-1.323,1.291-2.641.809a39.15,39.15,0,0,0-5.224-1.477c.811.581-.8,1.17-2.3.9a37.125,37.125,0,0,1-4.331-1c-1.984.638-3.99.752-5.043.043a4.734,4.734,0,0,1-.714,0h-.029q-.74.023-1.441.009a7.35,7.35,0,0,1-4.512-.36.847.847,0,0,1-.371-.222c-.037.066-.064.122-.1.195l-.01.005c.084.292-.328.592-1.171.709-.906.128-1.831.219-2.768.286a3.2,3.2,0,0,1-2.135.207l-.44-.1a73.064,73.064,0,0,1-11.059-.7c-.057.268-.338.565-.966.956a2.893,2.893,0,0,1-1.454.336,39.916,39.916,0,0,1-8.711-.624,1.117,1.117,0,0,1-.739-.412l-.312-.02a2.133,2.133,0,0,1-1.383.3c-.792-.032-1.6-.074-2.4-.122a3.764,3.764,0,0,1-.994.009c-1.525-.189-3.059-.359-4.6-.526a4.2,4.2,0,0,1-1.7.027c-.639-.144-1.278-.281-1.917-.419-.758-.08-1.52-.161-2.278-.243-.16.012-.334.033-.5.047a73.05,73.05,0,0,1,7.874,1.585c.055.014.108.016.162.027a46.453,46.453,0,0,1-10.065-.871c-.284.7-1.685,1.029-2.955.936-.651.094-1.295.161-1.888.192.3-2.04-6.821-2.523-11.5-2.607-1.188-.021-1.623.481-1.256.825.081.078.172.144.258.22-2.105-.461-4.267-.891-6.465-1.267-.056-.167-.11-.341-.156-.529-.253.139-.5.262-.741.388A79.951,79.951,0,0,0,742.5,19.345c-.979.075-1.407.386-1.4.7-3.189-.542-6.49-1.01-9.987-1.365-1.35-.136-2.508.3-2.6.762a91.218,91.218,0,0,0-13.679-1.441c-1.427-.042-2.213.442-2.18.908-5.251-1.1-10.587-2.143-16.248-2.924-2.319-.32-3.9,1.117-1.75,1.543q6.239,1.235,12.444,2.5a32.917,32.917,0,0,1-14.617-.313c-.552.1-1.122.189-1.7.261-3.848-.988-7.753-1.92-11.878-2.762-1.307-.268-3.193.328-2.235.857.846.468,1.637.949,2.423,1.431l-.2.009c-4.346-1.116-8.763-2.153-13.663-2.931l-.01-.009-.021.005c-.773-.122-1.525-.257-2.327-.364-1.892-.255-3.029.729-1.892,1.223.094.039.191.073.282.113-3.014-.644-6.024-1.289-9.065-1.915a3.44,3.44,0,0,0-2.8.448,66.918,66.918,0,0,0-10.649-2.29c-1.882-.234-3.647.647-2.742,1.289-2.094-.575-4.228-1.129-6.528-1.608-2.373-.494-4.687.69-2.927,1.442.7.3,1.372.6,2.041.9a175.357,175.357,0,0,0-17.417-2.7c-1.552-.126-3.352.478-2.843,1.074-4.707-.97-9.532-1.842-14.846-2.4-1.719-.182-2.8.341-2.783.873-3.946-.621-8.014-1.132-12.341-1.408-2.643-.169-3.866,1.315-1.2,1.578,6.433.634,12.463,1.579,18.394,2.615-2.934.329-5.607.28-7.7-.681a15.054,15.054,0,0,1-9.29-.408,72.1,72.1,0,0,1-8.833.428c-2.954-.018-5.915-.157-8.89-.3-5.951-.276-11.96-.553-17.152-2.075a64.52,64.52,0,0,1-9.931.617,34.5,34.5,0,0,1-8.917-1.052c-3.612.479-6.608.467-8.012-1.04-4.708,1.362-7.816,1.228-10.354-.836a41.988,41.988,0,0,1-9.731,1.2c-3.519.111-6.792-.115-6.315-1.611-6.8,1.239-9.855,1.209-6.9-1.862-9.2,2.914-12.387,2.79-12.378-1.967C461.548,10.246,455.122,10,444.5,7.3a5.289,5.289,0,0,1-4.646,1.2c-4.129.814-7.374.7-8-1.356-9.135,1.731-15.659,1.52-23.483-.911-2.632,1.014-5.591,1.473-6.452.379-5.381,1.46-8.667,1.366-9.865-1.317-8.668,2.41-15.258,2.239-23.66.438-2.4.74-5.246,1.072-5.578.246-3.809.778-5.641.914-2.721-.627-5.935,1.207-7.119.736-4.236-1.752-7.842,2.386-11.62,2.756-10.522-1.759-8.476,4.4-12.076,3.92-17.244-.872-.726,2.341-1.841,3.605-2.37,3.151-3.419,1-6.255.292-9.73-2.058.1.782.135,1.406.184,1.823-3.646,1.968-6,1.376-8.442-1.692-2.243,3.35-4.589,3.652-8.635.348-1.6,3.576-4.9,3.547-11.3,1.266-1.738,1.1-4.254,1.643-4.972.959-5.082,1.211-8.367,1.2-8.04-1.5-5.091,1.333-9.271,2-12.6,1.738-4.747.112-8.645-.7-10.976-3.6-4.2,2.912-6.83,3.744-3.715-.3-9.156,4.839-12.559,4.806-15.511-1.347-3.535,6.206-6.616,6.292-15.678,1.315,2.759,5.1-.466,5.143-10.344,2.59.117,1.347-1.426,2.049-1.774,1.523-4.387,1.289-7.581,1.35-7.063-1.218-10.07,2.77-16.405,2.924-25.3-.713-1.846,2-4.334,3.044-5.862,2.534-4.61,1.487-8.259,1.417-11.046-1.228-3.427,2.87-5.988,3.165-9.162-.033-1.23,1.811-2.61,2.749-3.93,2.726a8.327,8.327,0,0,1-6.746-2.154c-2.465,2.028-4.771,2.882-1.946.244-8.3,3.6-11.476,3.707-10.762-1.657-6.731,5.686-9.58,5.9-14.889-.134-.5,6.431-3.467,6.612-14.482,2.266,1.073,2.455.151,3.782-1.224,3.845-3.333,1.313-7.119,1.362-10.221-1.03-2.687,2.822-4.684,3.2-6.44-.106-3.1,3.927-5.942,4.164-11.471.587C62.105,13.308,57.9,13.69,48.923,12.1c.323,1.191-.546,1.891-1.41,1.639-2.311,1.11-4.621,1.268-6.251-.224-2.451,1.926-4.227,2.2-5.786.038-2.229,2.667-4.236,2.9-7.436.372-.8,2.992-2.788,3.23-7.567.934C21.305,17.646,5.677,19.65.142,18ZM1429.712,7.882a1.9,1.9,0,0,1,.383-.608c1.545.393,3.1.783,4.642,1.177q-1.753.228-2.891.265c-.031-.1-.137-.2-.394-.28C1430.879,8.245,1430.293,8.066,1429.712,7.882Zm-9.938-.979c.782.237,1.589.459,2.413.675A3.882,3.882,0,0,1,1419.774,6.9Zm4.488-1.067c1.087.251,2.131.524,3.195.788-.363.1-.7.188-1.036.274q-3.388-.956-6.98-1.766C1418.583,4.7,1419.425,4.722,1424.261,5.836ZM1400.34,2.816c4.92.58,9.765,1.3,14.283,2.241.173.074.353.139.526.21a10.812,10.812,0,0,1-2,1.126,95.775,95.775,0,0,0-10.881-2.071q-.725-.391-1.509-.837A1.841,1.841,0,0,1,1400.34,2.816Zm-12.258,3.719c.94-.061,1.876-.088,2.808-.1-.589.154-1.125.28-1.591.371C1388.893,6.717,1388.492,6.62,1388.082,6.535Zm-31.4-1.465c.066,0,.134,0,.2,0,3.136-.371,5.076-.159,5.861.618-.827.088-1.662.163-2.476.27a5.418,5.418,0,0,0-1.117.271A7.093,7.093,0,0,1,1356.68,5.07Zm-4.48.147c.3-.026.609-.035.913-.054a2.3,2.3,0,0,0-.058.332C1352.772,5.4,1352.49,5.305,1352.2,5.217Zm-14.545-.781c1.545.1,3.065.228,4.531.406-.016.032-.032.059-.051.09a12.767,12.767,0,0,0-2.624,1.2c-.194-.031-.372-.066-.563-.1A10.011,10.011,0,0,1,1337.654,4.436Zm-1.85.99a40.863,40.863,0,0,1-4.387-1.205c1.551.01,3.1.057,4.643.128A6.718,6.718,0,0,1,1335.8,5.426Zm-6.572.838q2.812.282,5.6.617C1333.792,7.6,1332.036,7.357,1329.232,6.263Zm-8.881-.691c1.406.07,2.793.17,4.17.275a2.374,2.374,0,0,1,.065.672C1323.13,6.23,1321.713,5.925,1320.352,5.572Zm-64.395,2.372c.2,0,.415-.015.62-.017a70.643,70.643,0,0,1,9.391.287c-.194.03-.384.062-.573.093q-2.147.224-4.2.511a2.36,2.36,0,0,0-.654-.216c-.571-.106-1.224-.209-1.9-.31,0-.04-.012-.074-.015-.116-.053.032-.1.057-.145.088C1257.692,8.151,1256.848,8.042,1255.957,7.943Zm-12.744,2.508a4.651,4.651,0,0,1,.628-.443c1.337.155,2.658.263,3.985.349A5.193,5.193,0,0,1,1243.213,10.452ZM1222.16,8.908a2.454,2.454,0,0,0-1.06.316c-.214.173-.428.344-.639.516-.037.03-.045.059-.074.088C1215.723,7.437,1219.04,8.095,1222.16,8.908Zm6.567,1.9a31.043,31.043,0,0,0-5.029-.685,6.363,6.363,0,0,1,2.574-.055C1227.1,10.316,1227.913,10.566,1228.727,10.813Zm-23.94,1c.906.18,1.836.34,2.714.539.623.147,1.5.322,2.428.5a22.9,22.9,0,0,1-2.438.377c-.884-.258-1.79-.534-2.708-.81A1.457,1.457,0,0,1,1204.787,11.817Zm-8.214-1.342c2.529.312,4.945.715,7.3,1.16-.258.107-.5.2-.748.3A46.4,46.4,0,0,0,1196.573,10.475Zm-8.2.491c1.273.19,2.505.405,3.75.614-.076.033-.145.06-.216.093-.351-.039-.7-.081-1.048-.119-1.09-.169-2.167-.349-3.228-.549Q1180.716,10.051,1188.369,10.966Zm-45.615,3.2c1.871-.031,3.744-.015,5.612.035a.725.725,0,0,0-.236.3,6.644,6.644,0,0,1-2,.635,1.132,1.132,0,0,0-.379-.183C1144.775,14.652,1143.773,14.4,1142.754,14.161Zm-14.816-.389c-.248.214-.3.453-.121.662C1125.767,13.963,1124.9,13.623,1127.938,13.772Zm-9.512.736c3.69.567,7.266,1.222,10.894,1.842a48.4,48.4,0,0,1-6.753-.16A33.628,33.628,0,0,1,1118.426,14.508Zm-35.421,2.15c-2.32-.846-4.376-1.584-4.562-1.606,2.066.217,4.06.5,6.018.821A13.915,13.915,0,0,1,1083.005,16.657Zm-16.7.263c.3.024.574.044.946.076q3.792.266,7.387.787c.7.1,1.378.217,2.07.324-.68.033-1.381.042-2.12.022A36.979,36.979,0,0,1,1066.3,16.92Zm-1.309-.09a2.4,2.4,0,0,1-.115.278C1063.894,16.893,1063.672,16.765,1064.992,16.83Zm-8.511.528c.787.012,2.769.2,6.451.647q-1,.353-1.865.588c-2.025-.4-3.8-.767-4.578-1A2.3,2.3,0,0,1,1056.481,17.359Zm-29.111,1.591c.029-.037.053-.081.082-.116.692.116,1.412.213,2.117.318A18.485,18.485,0,0,1,1027.369,18.95Zm-23.272-.429a27.151,27.151,0,0,1,8.246.37,16.156,16.156,0,0,1-2.9,1.015Q1006.693,19.265,1004.1,18.521Zm-18.7,2.8c.634.091,1.271.183,1.918.261C986.316,21.653,985.629,21.579,985.4,21.318Zm-17.039-.888c1.48.28,2.913.6,4.339.943A15.516,15.516,0,0,1,968.356,20.43Zm-3.673-2.161c4.667.72,9.658,1.192,14.3,2,.98.17,1.96.342,2.942.508-1.658.261-3.181.448-4.6.561a105.523,105.523,0,0,0-12-2.56C965.1,18.619,964.891,18.442,964.683,18.269ZM929.6,22.391c1.014.171,2.028.338,3.042.507C931.019,23.046,929.739,22.937,929.6,22.391Zm-9.552-1.65c2.562.455,5.143.9,7.726,1.34q-1.947.272-3.685.443C922.737,21.928,921.4,21.33,920.047,20.741Zm-10.362-1.8c1.114-.155,2.908.205,5.694,1.429,1.237.542,2.452,1.086,3.678,1.628-1.1,0-2.336.061-3.79.164a.906.906,0,0,0-.179.046A10.471,10.471,0,0,1,909.685,18.944Zm-9.009,1.126c.754.512,1.474,1.03,2.2,1.549-.2.066-.408.132-.61.192C901.706,21.233,901.162,20.654,900.676,20.07Zm-3.153,2.084c.337.144.653.3.985.442-.189.022-.376.044-.565.063C895.279,21.326,892.35,19.842,897.523,22.154Zm-21.214.371a.735.735,0,0,1,.071-.046q2.005.29,3.988.6c-.355.06-.7.115-1.022.164Q877.795,22.9,876.309,22.526ZM748.035,20.783a84.947,84.947,0,0,1,10.288.922C754.937,22.729,751.86,22.365,748.035,20.783Zm-8.686.736c1.1.19,2.174.4,3.253.613-.349.053-.715.09-1.087.117C740.772,22.009,740.069,21.76,739.349,21.518ZM721.6,20.192c3.748.423,7.227,1.075,10.653,1.8-1.082.076-2.244.1-3.454.083-.472.008-.947.005-1.414,0C725.4,21.456,723.468,20.837,721.6,20.192ZM682.906,19.4q2.027.412,4.031.845c-.47.013-.94.026-1.417.029-.388,0-.774-.007-1.162-.013C683.872,19.975,683.387,19.689,682.906,19.4Zm-59.875-2.7c1.472.273,2.945.544,4.427.809A11.342,11.342,0,0,1,623.031,16.7Zm-5.824-1.016c1.606.255,3.189.534,4.758.82-.452.086-.893.159-1.316.217C619.431,16.406,618.272,16.066,617.207,15.686Z" transform="matrix(0.999, -0.035, 0.035, 0.999, -409.254, 865.74)" fill="#a6bf37"/>
    <path id="Edging_-_White" data-name="Edging - White" d="M1440,239.343v32.5L0,275.49V232.137c.58.08,1.123.153,1.66.223a36.962,36.962,0,0,1,6.326-2.294c-.139-.08-.254-.154-.4-.239l.635.175c1.22-.323,2.534-.629,4-.92.837-.166,1.786.147,1.338.414-.766.452-1.569.877-2.424,1.287l.05.013.7-.16a73.452,73.452,0,0,1,10.335-1.519,9.421,9.421,0,0,0,.152-1.285c.538.442,1.052.828,1.55,1.187.614-.028,1.243-.048,1.9-.063a2.852,2.852,0,0,1,.732.07c5.469-.884,11.252-1.573,17.39-2.052.747-.059,1.484.195,1.049.424a26.874,26.874,0,0,1-3.252,1.411,90.61,90.61,0,0,1,9.647-.239,4.812,4.812,0,0,1,1.107.154c-.113-.1-.215-.2-.338-.31.7.3,1.338.564,1.943.812,2.041.074,4.076.229,6.064.464a10.38,10.38,0,0,0-1.1-2.012,38.316,38.316,0,0,0,3.512,2.054c1.739-.1,3.489-.177,5.262-.189a13.953,13.953,0,0,1,2.009-.714,17.124,17.124,0,0,0,1.178-1.552c.26.4.522.757.779,1.086a66.145,66.145,0,0,1,14.159-.865c.147-.193.288-.394.422-.608.113.224.22.436.32.638a71.525,71.525,0,0,1,7.8.732c.635-.087,1.285-.165,1.938-.238a12.292,12.292,0,0,0,.75-1.484c.215.5.42.938.619,1.345,1.967-.189,4-.326,6.069-.41.178-.247.359-.5.551-.775,0,.268.008.512.021.755,2.835-.1,5.726-.126,8.58-.08,1.393.022,2.156.527,1.172.868-.706.246-1.427.47-2.151.685,1.034-.09,2.077-.174,3.124-.252.621-.248,1.267-.515,1.957-.8-.2.251-.362.484-.509.707,2.883-.191,5.815-.329,8.866-.38,1.414-.023,2.2.573,1.193.884-1.715.531-3.562.977-5.492,1.38,6.13-.3,12.252-.4,18.623-.091a3.865,3.865,0,0,1,.682.09c-.1-.142-.217-.29-.346-.451.989.4,1.88.74,2.7,1.031q3.592.03,7.161.156a4.639,4.639,0,0,0,.915-2.005,26.2,26.2,0,0,0,3.531,1.821c4.38-.278,8.976-.339,13.5-.2,9.747-2.12,22.46-1.733,32.874-.278.789.11,1.2.381,1.243.658a9.212,9.212,0,0,1,1.873.7,4.456,4.456,0,0,1,.629.4c2.634-.288,5.314-.525,8.066-.708,3.465-.841,7.1-1.605,11.111-2.23,1.209-.189,2.458.1,2.217.527-.787,1.408-2.146,2.028-5.306,3.031a2.172,2.172,0,0,1-1.6-.1c-1.744.342-3.533.654-5.333.954,1.841-.134,3.885-.362,6.193-.673a1.339,1.339,0,0,0,.75.775,71.3,71.3,0,0,1,8.538-2.161c2.6-.473,6.2-1.2,9.254-.9.446.044.724.247.315.359-2.536.691-6.416.8-9.309,1.383-2.654.534-5.041,1.168-7.342,1.84q.63.135,1.383.222c.6.081,1.241.142,1.862.175a147.415,147.415,0,0,1,21.755-3.524c1.1-.091,2.274.394,1.238.657q-1,.252-2,.51c.129.056.255.115.383.171,4.066-.588,8.2-1.071,12.8-1.37,1.2-.079,2.465.406,1.348.714-.729.2-1.466.385-2.208.562,1.9-.106,3.822-.187,5.8-.237,2.119-.054,2.508.832,1.049,1.168-.514.118-1.033.218-1.553.328,1.5-.084,3-.179,4.5-.269.312-.07.611-.135.931-.212.016.054.042.1.063.153,1.188-.072,2.374-.14,3.567-.213,2.027-.125,3.231.461,2.846.936,1.117,0,2.232.02,3.347.037a1.776,1.776,0,0,0,.01-.315c.275.115.538.22.8.324l.252,0c2.7-.247,5.451-.434,8.218-.567.06-.172.118-.353.168-.548.236.18.464.344.693.507,3.95-.171,7.94-.213,11.906-.11.155-.1.3-.188.462-.293.1.112.213.211.318.317,1.655.052,3.3.12,4.942.226,3.384-.253,6.925-.359,10.607-.352.9,0,1.807.24,1.76.545a.717.717,0,0,1-.265.377c2.151-.317,4.331-.622,6.592-.875,1.385-.156,2.62.381,1.9.767-.136.076-.3.138-.446.211,1.353-.3,2.725-.6,4.128-.883,1.55-.313,2.859.34,1.862.747a10.691,10.691,0,0,1-1.933.644c-.47.14-1.233.01-1.086-.2-.511.706-4.032,1.476-7.407,2.116a3.443,3.443,0,0,0,1.846-.008c4.472.743,7.489.815,5.634-1.054a63.828,63.828,0,0,0,10.607,1.392,56.737,56.737,0,0,1,10.586-2.579c.451-.268.9-.551,1.356-.864.249.207.5.383.753.572,1.826-.228,3.725-.416,5.75-.537,1.175-.069,2.219.361,1.259.669l-.023.007c1.519-.168,3.061-.325,4.671-.461.753-.064,1.618.112,1.592.376-.081.976-3.9,1.67-5.9,2.25-.346.1-.994.248-1.741.41.33.084.658.175,1,.241,1.537-.227,3.066-.461,4.627-.671,2.73-.381,10.694-1.6,13.359-.6.5.187.422.421-.2.567-.5.116-1.018.221-1.527.333,2.424-.223,4.923-.382,7.525-.482a2.8,2.8,0,0,0-.076-.355c.273.116.527.221.789.329,1.458-.048,2.946-.084,4.49-.088,1.138,0,1.663.509.622.694-.706.125-1.4.257-2.1.384q3.454-.441,6.946-.817a6.977,6.977,0,0,0,.771-1.222,12.772,12.772,0,0,0,.989,1.048q2.266-.222,4.564-.4c.155-.268.31-.558.462-.885.38.278.763.528,1.141.767,4.779-.322,9.681-.462,14.791-.307.031,0,.055.006.084.007a10.383,10.383,0,0,1,4.346.49c.5-.308,1.007-.655,1.516-1.039a20.17,20.17,0,0,0,3.843,2.286,84.733,84.733,0,0,1,13.172-1.031c1,0,1.8.443.916.677-.805.215-1.658.41-2.484.618,2.725-.361,5.485-.7,8.354-.967,1.993-.187,2.82.762.894.978-3.693.414-7.3.887-10.867,1.381A86.037,86.037,0,0,0,447.6,237.8a.909.909,0,0,0,.039.294c1.416-.43,2.9-.839,4.483-1.2a47.062,47.062,0,0,1,10.426-1.558c.963,0,1.13.364.475.528-3.161.789-7.376,1.131-10.686,1.9-1.458.34-2.817.712-4.118,1.1a2.47,2.47,0,0,0,.677.334c.06-.007.1-.02.173-.025,1.773-.13,3.565-.35,5.375-.615-.066-.048-.087-.084-.165-.135l.543.077c7.174-1.073,14.581-2.816,21.994-2.573.107-.087.215-.166.322-.257.569.38,1.128.717,1.687,1.037.139-.016.262-.035.4-.051,1.437-.159,2.148.414,1.377.73-.094.038-.191.069-.283.106.43.207.86.4,1.3.571,1.962-.243,3.966-.466,6.067-.647,1.673-.144,2.6.469,1.623.861-.307.122-.614.233-.923.347,2.122-.241,4.252-.471,6.434-.664,1.836-.162,2.765.422,2.109.857,3.4-.339,6.8-.67,10.29-.925a4.557,4.557,0,0,1,2.683.486,107.235,107.235,0,0,1,14.285-1.55,3.431,3.431,0,0,1,.556.028c2.03-.663,4.173-1.292,6.565-1.853a3.174,3.174,0,0,1,2.193.273,3.887,3.887,0,0,1,1.647,2.984l.147.053a66.6,66.6,0,0,1,6.715-3.542c.913-.412,2.848-.18,2.56.331a14.626,14.626,0,0,1-3.745,3.895c.113-.045.231-.089.346-.134q2.687-.986,5.792-1.837c.847-.249,2.311-.023,1.993.358a6.512,6.512,0,0,1-2.1,1.929c2.935-.6,5.933-1.11,9.12-1.545.226.355,1.721.64,2.859.317.963-.273,1.941-.543,2.946-.8.727.166.994.534.291.778-.779.269-1.6.508-2.418.752,2.681-.41,5.406-.783,8.249-1.083-.079.233.241.489,1.107.6a16.638,16.638,0,0,0,3.279,0c.081,0,.147.005.236,0,1.044-.042,2.064-.124,3.066-.227l.063.019q1.629-.163,3.323-.261c-1.319.227-2.581.492-3.827.829-1.453.4.446,1.165,2.035.839,1.435-.3,2.956-.6,4.414-.94.058-.008.113-.017.176-.023a4.526,4.526,0,0,1-1.655.945l-.052.015.01,0c-.1.035-.168.074-.27.107-1.138.506,1.312,1.059,2.633.647A46.129,46.129,0,0,1,587.672,239c-.816.489.795.963,2.3.729a44.161,44.161,0,0,0,4.338-.871c1.978.512,3.982.588,5.041-.01a5.7,5.7,0,0,0,.714-.006h.029q.74.013,1.44-.006a8.8,8.8,0,0,0,4.514-.339.913.913,0,0,0,.372-.187c.037.054.063.1.1.16l.011,0c-.087.243.323.488,1.165.578.9.1,1.828.165,2.765.212a3.785,3.785,0,0,0,2.133.152l.441-.086a88.115,88.115,0,0,0,11.061-.681c.055.222.333.466.957.784a3.342,3.342,0,0,0,1.45.266,48.106,48.106,0,0,0,8.714-.6,1.2,1.2,0,0,0,.742-.349l.312-.019a2.459,2.459,0,0,0,1.38.232c.792-.033,1.6-.076,2.4-.123a4.527,4.527,0,0,0,.994,0c1.526-.171,3.061-.325,4.6-.478a5.039,5.039,0,0,0,1.7.007c.64-.125,1.28-.245,1.92-.364.758-.074,1.521-.147,2.279-.222.16.008.333.024.5.034-2.741.37-5.369.808-7.885,1.386-.055.013-.108.014-.163.024a55.976,55.976,0,0,0,10.069-.813c.278.577,1.676.839,2.946.75.65.072,1.293.122,1.886.142-.286-1.69,6.841-2.154,11.517-2.266,1.188-.028,1.618.385,1.249.673-.081.065-.173.121-.26.185,2.109-.4,4.273-.777,6.474-1.109a4.631,4.631,0,0,0,.16-.441c.252.113.493.213.737.315a96.366,96.366,0,0,1,19.037-1.029c.978.054,1.4.308,1.4.572,3.192-.478,6.5-.9,10-1.222,1.351-.125,2.505.227,2.592.609a109.865,109.865,0,0,1,13.687-1.319c1.427-.048,2.209.347,2.172.733,5.259-.964,10.6-1.873,16.268-2.572,2.321-.287,3.887.891,1.736,1.264q-6.248,1.081-12.462,2.182a39.547,39.547,0,0,0,14.615-.392c.551.081,1.12.146,1.7.2,3.856-.854,7.767-1.663,11.9-2.4,1.309-.234,3.19.243,2.227.691-.85.4-1.645.8-2.434,1.209l.2.006c4.354-.965,8.779-1.865,13.684-2.555l.01-.008.021,0c.774-.108,1.527-.227,2.329-.323,1.894-.228,3.022.578,1.881,1-.094.033-.192.063-.283.1,3.019-.562,6.033-1.124,9.078-1.67a3.991,3.991,0,0,1,2.8.346,79.717,79.717,0,0,1,10.665-2c1.883-.211,3.641.5,2.731,1.044,2.1-.5,4.236-.975,6.539-1.393,2.376-.431,4.679.53,2.914,1.17-.7.253-1.377.509-2.048.767,5.681-.89,11.126-1.914,17.435-2.4,1.553-.119,3.347.366,2.833.865,4.713-.847,9.545-1.614,14.862-2.128,1.721-.166,2.8.257,2.775.7,3.95-.551,8.021-1.012,12.349-1.279,2.644-.164,3.853,1.056,1.186,1.3-6.437.584-12.472,1.422-18.411,2.335a17.811,17.811,0,0,0,7.706-.635,18.025,18.025,0,0,0,9.291-.422,86.562,86.562,0,0,0,8.826.275c2.954-.042,5.915-.184,8.889-.327,5.951-.283,11.961-.567,17.165-1.876a77.359,77.359,0,0,0,9.923.422,41.486,41.486,0,0,0,8.923-.953c3.607.365,6.6.328,8.018-.935,4.7,1.087,7.8.948,10.358-.787a49.917,49.917,0,0,0,9.718.905c3.517.06,6.791-.157,6.327-1.394,6.791.966,9.841.914,6.909-1.607,9.17,2.334,12.359,2.2,12.391-1.743,9.561,3.552,15.987,3.294,26.626.957a6.031,6.031,0,0,0,4.635.95c4.121.638,7.365.516,8.005-1.2,9.117,1.353,15.641,1.119,23.483-.968,2.623.818,5.576,1.171,6.447.256,5.367,1.162,8.653,1.055,9.873-1.181,8.645,1.92,15.234,1.719,23.649.15,2.389.592,5.235.842,5.574.154,3.8.611,5.631.707,2.725-.544,5.923.947,7.111.546,4.249-1.491,7.819,1.908,11.594,2.181,10.534-1.554,8.435,3.575,12.039,3.142,17.246-.879.706,1.935,1.81,2.974,2.343,2.592,3.41.8,6.25.186,9.744-1.795-.1.65-.147,1.167-.2,1.514,3.628,1.6,5.991,1.087,8.454-1.48,2.214,2.758,4.556,2.988,8.63.211,1.569,2.952,4.866,2.9,11.289.948,1.729.9,4.239,1.324,4.963.751,5.07.959,8.354.919,8.05-1.315a47.4,47.4,0,0,0,12.585,1.328c4.745.05,8.648-.661,11-3.085,4.171,2.378,6.8,3.044,3.717-.278,9.112,3.931,12.514,3.873,15.517-1.257,3.481,5.115,6.56,5.159,15.662.949-2.8,4.258.422,4.262,10.319,2.055-.129,1.119,1.408,1.686,1.76,1.247,4.375,1.029,7.567,1.051,7.071-1.074,10.043,2.206,16.375,2.277,25.3-.82,1.828,1.639,4.307,2.485,5.839,2.049,4.6,1.192,8.244,1.1,11.053-1.119,3.4,2.349,5.959,2.571,9.159-.11a5.106,5.106,0,0,0,3.906,2.225,9.623,9.623,0,0,0,6.762-1.847c2.447,1.659,4.745,2.347,1.944.185,8.267,2.91,11.441,2.971,10.772-1.471,6.681,4.656,9.527,4.808,14.885-.246.448,5.329,3.41,5.453,14.458,1.749-1.094,2.046-.183,3.138,1.191,3.178a12.008,12.008,0,0,0,10.227-.946c2.662,2.317,4.656,2.615,6.439-.146,3.061,3.229,5.9,3.4,11.462.383,1.505,3.458,5.707,3.738,14.694,2.342-.333.991.53,1.563,1.4,1.347,2.3.9,4.609,1.01,6.25-.242,2.434,1.575,4.207,1.786,5.784-.021,2.206,2.192,4.21,2.363,7.431.242.771,2.474,2.759,2.654,7.557.706-.855,2.315,14.751,3.835,20.3,2.415Zm-1429.094-7a1.519,1.519,0,0,0-.378-.5c-1.547.34-3.1.677-4.65,1.018q1.751.173,2.888.194c.031-.081.139-.163.4-.236C9.738,232.652,10.325,232.5,10.907,232.34Zm9.943-.9c-.784.2-1.592.4-2.418.582A4.532,4.532,0,0,0,20.851,231.438Zm-4.477-.844c-1.089.218-2.135.454-3.2.682.362.082.7.15,1.034.218q3.4-.824,6.993-1.528C22.06,229.6,21.218,229.627,16.374,230.594Zm23.94-2.72c-4.923.526-9.773,1.167-14.3,1.988-.173.063-.354.119-.527.179a11.344,11.344,0,0,0,1.993.915c3.525-.751,7.111-1.382,10.9-1.816q.728-.331,1.516-.708A1.556,1.556,0,0,0,40.314,227.874Zm12.223,2.974c-.939-.042-1.875-.056-2.807-.056.588.122,1.123.222,1.587.293C51.723,231.005,52.125,230.922,52.536,230.847Zm31.4-1.5c-.066,0-.134,0-.2,0-3.132-.279-5.073-.086-5.865.565.826.065,1.66.12,2.473.2a6.278,6.278,0,0,1,1.115.215A7.97,7.97,0,0,0,83.941,229.348Zm4.477.081c-.3-.019-.609-.023-.913-.037a1.582,1.582,0,0,1,.055.275C87.844,229.588,88.127,229.506,88.418,229.43Zm14.547-.779c-1.545.094-3.066.217-4.533.378.016.027.031.048.05.074a13.868,13.868,0,0,1,2.612.971c.194-.028.372-.059.564-.087A9.105,9.105,0,0,0,102.965,228.65Zm1.841.8c1.553-.3,3.011-.635,4.4-1.039-1.55.023-3.1.075-4.643.148A4.738,4.738,0,0,0,104.807,229.455Zm6.563.635q-2.813.26-5.605.563C106.8,231.239,108.557,231.023,111.369,230.09Zm8.884-.654c-1.406.071-2.793.166-4.171.266a1.663,1.663,0,0,0-.071.558C117.47,230.007,118.889,229.741,120.253,229.436Zm64.354,1.385c-.2,0-.415-.008-.619-.008a85.194,85.194,0,0,0-9.39.323c.194.023.383.048.572.072q2.144.167,4.192.386a2.748,2.748,0,0,1,.656-.185c.572-.093,1.225-.185,1.9-.274.005-.033.013-.062.016-.1.053.026.1.047.144.072C182.871,231.01,183.716,230.911,184.607,230.821Zm12.719,1.965a4.623,4.623,0,0,0-.624-.362c-1.338.14-2.66.242-3.987.325A6.152,6.152,0,0,0,197.326,232.787Zm21.06-1.47a2.787,2.787,0,0,1,1.057.252l.635.422c.037.024.045.048.073.073C224.833,230.038,221.512,230.613,218.386,231.316Zm-6.581,1.639a37.34,37.34,0,0,1,5.033-.614,7.622,7.622,0,0,0-2.573-.023C213.431,232.528,212.621,232.743,211.8,232.956Zm23.924.616c-.908.157-1.839.3-2.717.471-.624.128-1.5.281-2.432.435.928.146,1.739.247,2.434.291.887-.222,1.794-.459,2.715-.7A1.007,1.007,0,0,0,235.729,233.572Zm8.223-1.187c-2.531.282-4.95.638-7.308,1.028.257.086.5.163.745.24A55.24,55.24,0,0,1,243.952,232.385Zm8.2.333c-1.275.169-2.508.359-3.754.543.076.027.144.049.215.075.351-.035.7-.074,1.049-.108,1.091-.15,2.169-.309,3.232-.485Q259.807,231.889,252.149,232.717Zm45.574,2.238c-1.87-.009-3.743.022-5.611.079a.615.615,0,0,1,.234.248,7.547,7.547,0,0,0,2,.508,1.267,1.267,0,0,1,.38-.155C295.7,235.381,296.7,235.16,297.722,234.955Zm14.815-.456c.246.176.3.373.115.548C314.706,234.638,315.572,234.348,312.537,234.5Zm9.5.524c-3.693.5-7.273,1.079-10.906,1.626a58.35,58.35,0,0,0,6.752-.194A38.486,38.486,0,0,0,322.04,235.023Zm35.391,1.463c2.327-.722,4.388-1.353,4.574-1.374-2.067.2-4.063.452-6.022.736A14.7,14.7,0,0,0,357.431,236.486Zm16.7.067c-.3.023-.574.042-.947.072q-3.793.255-7.391.72c-.7.093-1.38.192-2.072.288.679.021,1.38.023,2.119,0A44.4,44.4,0,0,0,374.129,236.553Zm1.309-.086a1.789,1.789,0,0,0,.113.23C376.534,236.509,376.757,236.4,375.438,236.467Zm8.5.361c-.787.017-2.77.191-6.455.6q1,.283,1.86.471c2.028-.346,3.8-.67,4.585-.869A1.617,1.617,0,0,0,383.942,236.828Zm29.089,1.057c-.029-.03-.053-.067-.081-.1-.693.1-1.414.19-2.119.283C411.532,238.048,412.264,237.987,413.03,237.885Zm23.268-.566a32.7,32.7,0,0,0-8.247.381,18.178,18.178,0,0,0,2.888.816Q433.7,237.959,436.3,237.319Zm18.673,2.151c-.635.081-1.272.163-1.92.234A3.27,3.27,0,0,0,454.971,239.47Zm17.041-.89c-1.482.246-2.917.522-4.346.822A18.463,18.463,0,0,0,472.013,238.579Zm3.69-1.826c-4.671.639-9.666,1.076-14.313,1.786-.981.15-1.962.3-2.946.448,1.655.2,3.176.343,4.6.424,3.793-.9,7.725-1.641,12.021-2.232C475.278,237.048,475.493,236.9,475.7,236.754Zm35.038,3.1c-1.015.151-2.03.3-3.045.448C509.316,240.412,510.6,240.31,510.741,239.855ZM520.3,238.4c-2.565.4-5.149.793-7.735,1.181q1.944.208,3.68.334C517.6,239.409,518.948,238.9,520.3,238.4Zm10.374-1.584c-1.112-.119-2.909.2-5.7,1.236-1.241.461-2.46.923-3.69,1.384,1.1-.007,2.334.029,3.788.1a1.051,1.051,0,0,1,.178.037A11.273,11.273,0,0,0,530.678,236.816Zm9,.853c-.758.431-1.482.868-2.211,1.3.2.053.407.106.609.154C538.636,238.643,539.184,238.158,539.674,237.669Zm3.134,1.7c-.338.123-.656.251-.989.375.189.017.375.033.564.047C545.059,238.662,548,237.4,542.809,239.369Zm21.2.116a.73.73,0,0,0-.071-.038q-2.007.258-3.992.538c.354.047.7.089,1.02.127Q562.524,239.81,564.013,239.485Zm128.249-2.6a102.416,102.416,0,0,0-10.293.858C685.345,238.558,688.425,238.227,692.262,236.881Zm8.677.532c-1.1.167-2.177.355-3.258.538.349.041.713.069,1.086.087C699.512,237.832,700.218,237.62,700.939,237.412Zm17.757-1.261c-3.751.385-7.234.957-10.665,1.587,1.081.053,2.243.066,3.452.038.472,0,.947,0,1.414-.015C714.885,237.234,716.821,236.7,718.7,236.152Zm38.686-1.006q-2.03.36-4.037.737c.47.007.939.013,1.416.011.388,0,.774-.013,1.162-.021C756.412,235.631,756.9,235.389,757.382,235.146Zm59.88-2.78c-1.474.24-2.948.478-4.433.711A13.528,13.528,0,0,0,817.262,232.366Zm5.831-.9c-1.608.226-3.192.472-4.763.723.451.067.892.124,1.314.168C820.863,232.088,822.025,231.8,823.093,231.471Z" transform="translate(-408.326 634.545)" fill="#fff"/>
  </g>
</svg>
