<svg id="Instagram" xmlns="http://www.w3.org/2000/svg" xmlns:xlink="http://www.w3.org/1999/xlink" width="53.345" height="53.345" viewBox="0 0 53.345 53.345">
  <defs>
    <clipPath id="clip-path">
      <rect width="26" height="26" fill="none"/>
    </clipPath>
  </defs>
  <path id="Path_1913" data-name="Path 1913" d="M45.632,113.592c.126-1.483-.253-2.965-.759-2.1a23.1,23.1,0,0,1-.759,4.077c-.759.865-1.012.247-1.265-.371a11.476,11.476,0,0,0-.379-1.112,32.447,32.447,0,0,0,.759-8.525c.253.494.379.988.632,1.483a21.371,21.371,0,0,0-.126-2.842c.885.371,2.15,1.977,2.276-.494-1.644-3.83-3.541-6.671-5.185-10.5a15.5,15.5,0,0,0-6.449-5.189,26.232,26.232,0,0,0-8.093-2.224c.885.371-1.265,0,.379.371h-.885c-.759-.124-1.391-.124-2.023-.247,2.023-.494-2.529-.247-2.15-.618-1.391.247-2.023.124-2.782.247a6.628,6.628,0,0,0-2.908.741c-1.517.865,1.77-.371,2.782-.371-.253.124-.632.124-1.012.247a5.851,5.851,0,0,1,2.15,0A16.876,16.876,0,0,0,14.9,88.018c-.126-.124-.379-.247-.885,0-.379,0-1.138.618-1.9,1.235s-1.391,1.359-1.77,1.359c-2.023,2.347-4.3,3.953-4.046,5.807-.632.494-1.391,1.112-2.023,1.606a6.569,6.569,0,0,0-1.138,4.324c.379.741,1.012-1.235,1.391.494a3.485,3.485,0,0,1-.379,1.977c-.379.124-.379-.618-.506-.865a33.794,33.794,0,0,1-.759,4.077c-.126.618-.253,1.235-.379,1.977a10.324,10.324,0,0,0,0,1.977A18.934,18.934,0,0,0,5.42,116.8,8.553,8.553,0,0,0,8.961,119.4c-.506-.371-.885-.865-1.391-1.235,2.023,1.73.885-.741,2.908,1.359,1.517,1.483.506,1.112.379,1.483,1.012.741,2.908,1.483,3.667,2.1-1.265-.618.759.741.253.371,1.9.988,2.276.865,3.92,1.73-.126,0,.126.124.379.247a10.944,10.944,0,0,1,1.265.865l-.253-.247a3.967,3.967,0,0,1,1.391.618c.759.371-.506-.124.126.247,2.656,1.359,3.161,1.112,5.69,1.483a7.833,7.833,0,0,0,6.07-.371,23.059,23.059,0,0,0,5.311-3.706,20.042,20.042,0,0,1-5.69,2.224,7.612,7.612,0,0,0,1.644-1.112h0a13.359,13.359,0,0,0,3.667-2.718,7.68,7.68,0,0,1-1.012,1.483c1.77-.247,4.426-3.336,4.426-.988,1.77-1.853,1.391-2.594,1.77-4.2.379-.741.759-2.1,1.265-2.224C44.62,115.445,44.494,115.568,45.632,113.592Zm-2.276-10.131a8.4,8.4,0,0,0-.885-2.347,17.2,17.2,0,0,0-2.782-6.424h0A14.851,14.851,0,0,1,43.356,103.461ZM9.593,93.083c-.253.371-.632.865-.885,1.235a11.186,11.186,0,0,0,.379-1.112C9.34,93.083,9.467,92.96,9.593,93.083ZM29.32,127.923a1.564,1.564,0,0,1-.632-.124H27.044l-.379-.618c-2.529-.741-4.3-.124-7.461-1.606h-.126a14.172,14.172,0,0,0-2.4-1.73c.379.247.126-.124.632.247a12.388,12.388,0,0,1-1.9-1.483c1.391.988,2.656,1.977,3.794,2.842a24.713,24.713,0,0,0,10.875,1.606,6.484,6.484,0,0,1-1.517.247C28.434,127.676,30.458,127.676,29.32,127.923Zm2.023-.988h0c.632-.247,1.138-.371,1.517-.494A2.434,2.434,0,0,1,31.343,126.934Zm8.852-6.3-.379.371a24.445,24.445,0,0,0,1.265-2.594.93.93,0,0,1,.759.741C41.459,119.892,40.447,121,40.195,120.634Z" transform="matrix(-0.259, -0.966, 0.966, -0.259, -70.485, 77.794)" fill="#eb5c00"/>
  <g id="Instagram-2" data-name="Instagram" transform="translate(12.878 13.784)" clip-path="url(#clip-path)">
    <path id="Path_3" data-name="Path 3" d="M13,2.311a39.861,39.861,0,0,1,5.2.144,6.7,6.7,0,0,1,2.456.433,5.073,5.073,0,0,1,2.456,2.456A6.7,6.7,0,0,1,23.544,7.8c0,1.3.144,1.733.144,5.2a39.861,39.861,0,0,1-.144,5.2,6.7,6.7,0,0,1-.433,2.456,5.073,5.073,0,0,1-2.456,2.456,6.7,6.7,0,0,1-2.456.433c-1.3,0-1.733.144-5.2.144a39.861,39.861,0,0,1-5.2-.144,6.7,6.7,0,0,1-2.456-.433,5.073,5.073,0,0,1-2.456-2.456A6.7,6.7,0,0,1,2.456,18.2c0-1.3-.144-1.733-.144-5.2a39.861,39.861,0,0,1,.144-5.2,6.7,6.7,0,0,1,.433-2.456A5.188,5.188,0,0,1,3.9,3.9,2.442,2.442,0,0,1,5.344,2.889,6.7,6.7,0,0,1,7.8,2.456,39.861,39.861,0,0,1,13,2.311M13,0A42.679,42.679,0,0,0,7.656.144,8.917,8.917,0,0,0,4.478.722,5.655,5.655,0,0,0,2.167,2.167,5.655,5.655,0,0,0,.722,4.478,6.581,6.581,0,0,0,.144,7.656,42.679,42.679,0,0,0,0,13a42.679,42.679,0,0,0,.144,5.344,8.917,8.917,0,0,0,.578,3.178,5.655,5.655,0,0,0,1.444,2.311,5.655,5.655,0,0,0,2.311,1.444,8.917,8.917,0,0,0,3.178.578A42.678,42.678,0,0,0,13,26a42.678,42.678,0,0,0,5.344-.144,8.917,8.917,0,0,0,3.178-.578,6.06,6.06,0,0,0,3.756-3.756,8.917,8.917,0,0,0,.578-3.178C25.856,16.9,26,16.467,26,13a42.678,42.678,0,0,0-.144-5.344,8.917,8.917,0,0,0-.578-3.178,5.655,5.655,0,0,0-1.444-2.311A5.655,5.655,0,0,0,21.522.722,8.917,8.917,0,0,0,18.344.144,42.679,42.679,0,0,0,13,0m0,6.356A6.537,6.537,0,0,0,6.356,13,6.644,6.644,0,1,0,13,6.356m0,10.978A4.256,4.256,0,0,1,8.667,13,4.256,4.256,0,0,1,13,8.667,4.256,4.256,0,0,1,17.333,13,4.256,4.256,0,0,1,13,17.333M19.933,4.478a1.589,1.589,0,1,0,1.589,1.589,1.6,1.6,0,0,0-1.589-1.589" fill="#fff" fill-rule="evenodd"/>
  </g>
</svg>
