<svg xmlns="http://www.w3.org/2000/svg" width="76.96" height="79.085" viewBox="0 0 76.96 79.085">
  <g id="Group_1252" data-name="Group 1252" transform="matrix(0.966, -0.259, 0.259, 0.966, -8.09, 16.078)">
    <path id="Path_1678" data-name="Path 1678" d="M42.552,119a.8.8,0,0,1-.152.228A.585.585,0,0,1,42.552,119Z" transform="translate(-27.218 -74.936)" fill="#eb5c00"/>
    <path id="Path_1679" data-name="Path 1679" d="M85.085,91.278A41.611,41.611,0,0,0,83.3,86.545c.38,1.086-.646-1.358.152.621-.152-.31-.3-.621-.456-.97a25.556,25.556,0,0,0-1.14-2.289c.646,1.047.3.388-.152-.5-.494-.892-1.178-1.978-.95-1.746C79.878,80.338,79.46,79.64,79,78.981a26.344,26.344,0,0,0-2.052-2.715c-.722-.737-.38-.349.19.388s1.406,1.784,1.71,2.289c-.19-.272-.456-.621-.76-1.009a16.186,16.186,0,0,1,1.368,2.134A41.833,41.833,0,0,0,75.393,75.1c0-.078,0-.194-.608-.815a24.2,24.2,0,0,0-1.9-1.862,25.684,25.684,0,0,1-1.976-1.784c-1.444-1.164-2.775-2.172-3.915-3.065a12.526,12.526,0,0,0-3-1.823,12.018,12.018,0,0,0-1.1-.853,12.21,12.21,0,0,0-1.14-.815A13.207,13.207,0,0,0,56.694,62.3c-.722,0,1.634.621-.266.388-.342,0-.8-.078-1.254-.078s-.912-.039-1.254-.039c-.076-.039.076-.116.3-.155s.494-.039.608-.078a10.465,10.465,0,0,0-4.713,1.125,12.62,12.62,0,0,0-3.459,2.56c-1.216,1.474-2.508,3.22-3.725,4.888a44.02,44.02,0,0,0-2.7,4.151c.418-.582.836-1.164,1.254-1.784-1.748,2.6.228.272-1.786,3.142-1.52,2.134-.874,1.009-1.064,1.086-.8,1.241-2.014,3.336-2.66,4.306.836-1.435-.722,1.086-.342.388-1.406,2.328-1.444,2.638-2.584,4.616-.076.039-.114.039-.19.078a1.129,1.129,0,0,0-.57.853,6.143,6.143,0,0,1-.19.621c.038-.078.038-.116.076-.194-.038.116-.076.194-.114.31-.038.039-.038.078-.076.116,0,0-.076.078-.076.116l-.038.078c-.114.233-.228.543-.456,1.009-.456.97.19-.543-.114.116a15.266,15.266,0,0,0-1.216,3.414,9.85,9.85,0,0,0-.19,3.336,7.87,7.87,0,0,0,1.1,3.608,4.945,4.945,0,0,0,.494.737c.114.155.038,0,.152.5a3.053,3.053,0,0,0,1.14,1.552,3.753,3.753,0,0,1,.57.466,2.894,2.894,0,0,1,.266.31.562.562,0,0,0,.228.194l.152.116c.456.31.912.621,1.406.931l.8.466a8.784,8.784,0,0,0,.912.349c.3.116.608.194.912.31.3.078.646.194.988.31a10.476,10.476,0,0,1-1.406-.543,10.048,10.048,0,0,1-1.482-.7c-.494-.31-.95-.7-1.444-1.047-.266-.194-.494-.388-.76-.582a4.193,4.193,0,0,0-.684-.737,4.058,4.058,0,0,1,.418.349l.19.194c.076.078.114.155.228.194.342.194.646.427.988.621h0a7.348,7.348,0,0,0,1.824,1.086,21.3,21.3,0,0,0,3.307.97c-.3-.039-.608-.116-.912-.155-.418-.078-.8-.194-1.1-.272a19.555,19.555,0,0,0,3.307,1.086c.988.272,1.52.466.494.543a14.9,14.9,0,0,0,2.775.272c.684,0,1.254-.078,2.128-.116a18.975,18.975,0,0,1,2.737.039,17.726,17.726,0,0,1,4.067-.349c1.71-.233,3.345-.543,2.166-.543-1.6.155-3.193.349-4.789.465-1.824-.116.608-.5,1.33-.737,1.482-.155,3-.31,4.485-.466,1.976-.194,3.991-.31,6.005-.427l-1.862.272,3.383-.194c-.608.272-2.356.737.38.659,2.2-.349,4.333-.776,6.423-1.319a32.129,32.129,0,0,0,6.309-2.366l1.026-.621c.342-.233.646-.466.95-.7.646-.466,1.216-.97,1.862-1.513a13.165,13.165,0,0,0,3.231-3.724,7.619,7.619,0,0,0,.76-2.444A14.13,14.13,0,0,0,85.085,91.278ZM35.03,83.752c-.228.388-.076.194-.266.543.494-.776,1.1-1.707,1.52-2.289-1.064,1.629-2.09,3.22-3.117,4.849-.038,0-.076.039-.114.039C33.167,86.7,33.547,86.2,35.03,83.752ZM31.837,89.3a3.954,3.954,0,0,1,.266-.582,1.5,1.5,0,0,0,.19-.582,2.393,2.393,0,0,1,.19-.7,1.043,1.043,0,0,1,.57-.5h.038c0,.039-.038.039-.038.078-.912.31-.532,1.319-.988,1.9a24.123,24.123,0,0,0-1.6,4.849A21.507,21.507,0,0,1,31,91.511C31.267,90.735,31.5,90.075,31.837,89.3ZM30.7,98.959a1.417,1.417,0,0,1-.19-.737,9.2,9.2,0,0,1-.266-.97,9.1,9.1,0,0,1-.114-1.009l.152-.582c.038-.272.038-.5.076-.776a8.5,8.5,0,0,0,.836,4.461,14.605,14.605,0,0,1-.608-1.358,3.116,3.116,0,0,0,.228.892C30.925,99.347,31,99.579,30.7,98.959Zm-.3-4.577c-.038.155-.038.349-.076.5C30.355,94.73,30.355,94.536,30.393,94.381Zm.874,5.237.114.233c-.038-.039-.038-.078-.076-.116C31.343,99.7,31.305,99.657,31.267,99.618Zm1.368,2.638a1.622,1.622,0,0,1-.494-1.125c0-.039.038.039.038.116a2.493,2.493,0,0,0,.988,1.474A4.965,4.965,0,0,1,32.635,102.256Zm13.53,5.043c-.912-.039-2.737-.233-2.47-.349-.152-.039-.3-.039-.456-.078a25.772,25.772,0,0,0,3.459.116C46.66,107.105,46.622,107.221,46.166,107.3ZM66.956,68c.494.31.95.582,1.178.737.3.272.418.388.38.388C67.982,68.74,67.488,68.39,66.956,68Zm-1.672,37.706a26.344,26.344,0,0,0,3.079-.466,25.248,25.248,0,0,0,7.3-2.017A26.7,26.7,0,0,1,65.283,105.709Zm10.49-2.521.684-.349h0Z" transform="translate(-19.43 -39.786)" fill="#eb5c00"/>
    <path id="Path_1680" data-name="Path 1680" d="M102.7,175.818c1.406-.152,2.813-.266,4.219-.38l-.266-.038C105.322,175.514,104.03,175.628,102.7,175.818Z" transform="translate(-64.6 -109.9)" fill="#eb5c00"/>
    <path id="Path_1681" data-name="Path 1681" d="M40.7,171.1a13.886,13.886,0,0,0,2.052,1.672v-.3A24.034,24.034,0,0,1,40.7,171.1Z" transform="translate(-26.164 -107.234)" fill="#eb5c00"/>
    <path id="Path_1682" data-name="Path 1682" d="M35.576,129.7c-.038.038-.038.076-.076.114C35.538,129.776,35.576,129.738,35.576,129.7Z" transform="translate(-22.941 -81.569)" fill="#eb5c00"/>
    <path id="Path_1683" data-name="Path 1683" d="M110.942,13.3a8.119,8.119,0,0,1-.342,1.026c-.114.076-.076-.342-.076-.456-.076.418-.19.76-.266,1.1-.038.19-.076.342-.114.494s-.038.342-.076.494-.038.3-.076.494l-.038.456a3.974,3.974,0,0,0,0,.95,14.2,14.2,0,0,0,.95,2.584,10.153,10.153,0,0,0,1.178,1.824,5.875,5.875,0,0,1-.456-.836c.722,1.178.19-.076.988,1.254.608.95.266.532.266.608a12.356,12.356,0,0,0,1.52,1.6c-.418-.38.038.076.152.19.228.19.418.3.57.418s.3.19.418.266a4.425,4.425,0,0,0,.836.38c-.038,0,.076.038.228.114.266.076.532.152.76.228l-.152-.076c.076.038.19.038.3.076a3.993,3.993,0,0,1,.494.076c.456.076-.266-.038.076.038a6.969,6.969,0,0,0,2.965-.114c.152-.038.3-.038.418-.076.152-.038.266-.076.38-.114.266-.076.494-.152.722-.228a6.615,6.615,0,0,0,1.254-.684,16.421,16.421,0,0,0,2.318-2.128c-.342.3-.722.532-1.1.836-.418.266-.836.608-1.368.912l.38-.3.342-.38h0a12.12,12.12,0,0,0,1.71-1.71,8.313,8.313,0,0,1-.532.76,9.089,9.089,0,0,0,1.254-.95c.342-.3.608-.418.494.076a4.572,4.572,0,0,0,1.1-1.9c.266-.342.532-.988.722-1.026a3.633,3.633,0,0,1,.76-1.672c.228-.76.342-1.482.038-1.026l-.38,1.026-.418.988c-.57.608-.266-.418-.3-.8.228-.57.494-1.178.684-1.786.3-.912.532-1.786.722-2.584v.076l-.038.76.19-.722.114-.722c.19.3.38,1.178.684-.038a18.612,18.612,0,0,0-.342-2.965,14.678,14.678,0,0,0-.874-2.889,7.6,7.6,0,0,0-3.117-2.889,7.836,7.836,0,0,0-.988-.456c-.342-.114-.684-.266-.988-.38a10.486,10.486,0,0,0-1.026-.3,2.851,2.851,0,0,0-1.14-.114c.494.076-.646.076.266.114a1.616,1.616,0,0,0-.418.076,6.332,6.332,0,0,0-1.1.228c.494-.228.152-.152-.228-.038-.418.114-.912.342-.836.228-.608.3-.912.456-1.254.608a8.373,8.373,0,0,0-1.292.722c-.684.57.8-.418,1.292-.646a4.846,4.846,0,0,1-.456.266,6.31,6.31,0,0,1,1.026-.418,18.557,18.557,0,0,0-2.318,1.52c-.038-.038-.114-.076-.418.152A22.753,22.753,0,0,0,115.2,7.334c-1.1,1.14-2.242,1.9-2.432,2.737-.342.266-.646.494-.988.8a4.964,4.964,0,0,0-1.064,2.09C110.6,13.377,111.094,12.464,110.942,13.3Zm6.727,13.264c-.342-.038-.722-.19-1.178-.266-.038,0-.038,0-.076-.038a.619.619,0,0,0-.228-.114,1.548,1.548,0,0,1-.418-.228,3.754,3.754,0,0,0-.57-.342c.038,0,.038,0,.228.114a5.028,5.028,0,0,1-.836-.684,5.676,5.676,0,0,0,1.938,1.216,7.776,7.776,0,0,0,2.775.38,4.131,4.131,0,0,0-.684.038A8.687,8.687,0,0,1,117.669,26.565Zm4.181-.38c-.266.114-.266.076-.3.076a6.291,6.291,0,0,1-.8.228l-.266-.038c-.418.038-.684.076-.95.114h-.038a7.707,7.707,0,0,0,2.7-.722h0l-.722.342C121.432,26.3,122.382,25.957,121.85,26.185Zm.95-.608h0c.266-.152.494-.3.722-.456A2.148,2.148,0,0,1,122.8,25.577Zm5.017-4.789c-.228.3-.722.95-.8.8l-.152.152a15.034,15.034,0,0,0,.836-1.292C127.779,20.484,127.893,20.56,127.817,20.788Zm2.66-7.981a8.328,8.328,0,0,0-.038-1.406,8.4,8.4,0,0,0-.608-3.307A7.98,7.98,0,0,1,130.477,12.807Zm-.684-4.751c-.038-.076-.076-.114-.114-.19h0C129.755,7.942,129.755,8.018,129.793,8.056Zm-15.355.38c-.19.19-.38.418-.57.608.152-.228.266-.38.342-.494A.3.3,0,0,1,114.438,8.436Z" transform="translate(-69.079 -3.062)" fill="#eb5c00"/>
    <path id="Path_1684" data-name="Path 1684" d="M122,61.2Z" transform="translate(-76.565 -39.104)" fill="#eb5c00"/>
    <path id="Path_1685" data-name="Path 1685" d="M163.142,33.076a15.729,15.729,0,0,1-.342,1.748l.228-.912.19-.912Z" transform="translate(-101.858 -21.622)" fill="#eb5c00"/>
    <path id="Path_1686" data-name="Path 1686" d="M149.264,59.652l-.19-.152c-.266.266-.57.418-.874.684C148.542,59.994,148.922,59.842,149.264,59.652Z" transform="translate(-92.807 -38.05)" fill="#eb5c00"/>
    <path id="Path_1687" data-name="Path 1687" d="M42.663,32.78a7.265,7.265,0,0,0,.8.532,6.588,6.588,0,0,0,.76.456c-.532-.266.418.266.152.114a10.157,10.157,0,0,0,1.672.76c-.152,0,.38.152.684.228a2.521,2.521,0,0,1,.646.076c.38,0-.228,0,.076.038a4.377,4.377,0,0,0,.76-.038,1.388,1.388,0,0,0,.57-.114,2.459,2.459,0,0,0,.494-.152c.19-.076.38-.152.608-.266a5.331,5.331,0,0,0,2.09-1.406,25.231,25.231,0,0,0,1.558-2.166c-.494.57-1.026,1.14-1.748,1.862a2.891,2.891,0,0,0,.456-.722h0a13.379,13.379,0,0,0,1.14-1.71,6.911,6.911,0,0,1-.3.722c.57-.418,1.406-1.748,1.406-.912.076-.114.152-.19.19-.266.038-.114.114-.19.152-.3a3.529,3.529,0,0,0,.152-.494,6.736,6.736,0,0,0,.038-.912c.114-.38.038-1.026.19-1.14a3.823,3.823,0,0,1-.228-1.634c-.19-.684-.57-1.216-.532-.76a9.134,9.134,0,0,1,.418,1.824c-.114.456-.266.266-.418,0a2,2,0,0,0-.266-.418A12.71,12.71,0,0,0,52.887,22.4a5.108,5.108,0,0,1,.418.532l-.57-1.14c.3.076.95.532.532-.456a43.221,43.221,0,0,1-3.307-3.687A10.487,10.487,0,0,0,47.072,15.6a7.335,7.335,0,0,0-3.611-.722c.418.076-.532.038.228.114-.114,0-.228.038-.342.038a3.821,3.821,0,0,0-.95.152c.418-.19.152-.152-.19-.038-.38.076-.8.3-.722.19-.532.266-.76.418-1.064.57a4.432,4.432,0,0,0-.988.8c-.228.342-.076.19.19-.038s.646-.532.8-.684c-.076.076-.228.19-.342.3a2.028,2.028,0,0,1,.836-.418,6.649,6.649,0,0,0-1.672,1.6c-.076-.038-.114-.038-.3.228a3.5,3.5,0,0,0-.532.8,3.352,3.352,0,0,1-.494.836c-.152.3-.228.646-.38.912-.114.3-.19.57-.266.836a2.583,2.583,0,0,0-.114.722,1.576,1.576,0,0,0,.114.608L37,23.469a3.923,3.923,0,0,0,.494,1.938c.228.228.038-.684.418-.038a5.909,5.909,0,0,1,.3.874c-.076.076-.228-.19-.3-.266a4.814,4.814,0,0,1,.3.874l.228.8a10.046,10.046,0,0,0,.456,1.52,12.481,12.481,0,0,0,1.482,1.748A9.464,9.464,0,0,0,41.789,32.1l-.57-.532c.874.76.152-.114,1.1.76C43.043,32.97,42.663,32.7,42.663,32.78Zm3.5,1.862h-.038a7.483,7.483,0,0,0-1.064-.532.614.614,0,0,1,.19.076,4.153,4.153,0,0,1-.57-.3,11.128,11.128,0,0,0,1.52.722,4.666,4.666,0,0,0,2.28.076A4.015,4.015,0,0,1,46.16,34.643Zm2.622-.038c-.114.038-.19.038-.3.076C48.592,34.643,48.706,34.643,48.782,34.6Zm2.432-1.444h0a6.312,6.312,0,0,0,.494-.532A1.623,1.623,0,0,1,51.215,33.161ZM54.521,28.3c-.076.342-.38.988-.494.836-.038.038-.076.076-.076.114a4.08,4.08,0,0,0,.3-1.216C54.369,28.106,54.483,28.106,54.521,28.3ZM50.8,33.5l-.57.456c0,.076.722-.38.342-.076-.19.114-.19.114-.228.114a4.9,4.9,0,0,1-.608.342H49.5c-.114.038-.228.076-.38.114A5.717,5.717,0,0,0,50.8,33.5Zm1.026-12.884a17.2,17.2,0,0,0-1.938-2.394,11.987,11.987,0,0,1,2.66,3.307C52.279,21.188,52.051,20.884,51.823,20.618ZM37.76,20.39l-.114.57v-.418C37.684,20.428,37.722,20.39,37.76,20.39Z" transform="translate(-23.871 -10.38)" fill="#eb5c00"/>
    <path id="Path_1688" data-name="Path 1688" d="M80.822,36.544c-.19-.494-.456-.95-.684-1.444l-.038.114C80.328,35.67,80.594,36.088,80.822,36.544Z" transform="translate(-50.59 -22.924)" fill="#eb5c00"/>
    <path id="Path_1689" data-name="Path 1689" d="M78,60.322c.266-.19.532-.38.8-.608L78.57,59.6A3.679,3.679,0,0,1,78,60.322Z" transform="translate(-49.288 -38.112)" fill="#eb5c00"/>
    <path id="Path_1690" data-name="Path 1690" d="M62.752,67.438A.287.287,0,0,1,62.6,67.4h0Z" transform="translate(-39.741 -42.947)" fill="#eb5c00"/>
    <path id="Path_1691" data-name="Path 1691" d="M180.083,70.28c-.076.38-.038-.494-.114.19a1.052,1.052,0,0,1-.038-.342,6.44,6.44,0,0,0-.038-.836c.228.8-.038-.988.076-.836-.114-.532-.152-.76-.19-1.026a6.327,6.327,0,0,0-.3-1.1c-.19-.3-.114-.114-.038.152.076.3.228.722.266.912-.038-.114-.076-.266-.114-.38a2.487,2.487,0,0,1,.076.836,8.471,8.471,0,0,0-.722-1.938c.038-.038.076-.114-.038-.342,0-.266-.874-1.216-.988-1.482l-.608-.608a7.294,7.294,0,0,0-.57-.532,3.563,3.563,0,0,0-.532-.38.905.905,0,0,0-.532-.114c-.228-.228-.494-.456-.76-.684a2.881,2.881,0,0,0-1.786-.3c-.266.114.532.266-.114.418a3.09,3.09,0,0,1-.836-.038c-.076-.076.228-.152.3-.19a21.046,21.046,0,0,0-3.117.038,7.8,7.8,0,0,0-1.748,1.254,5.731,5.731,0,0,0-.646.76c-.152.228-.266.456-.38.646l.456-.57c-.608.874.152.152-.57,1.064-.266.342-.342.418-.342.418-.038,0,0-.114-.038-.076-.114.228-.228.532-.38.8-.114.3-.228.57-.3.722.114-.266.038-.152,0-.038s-.114.3-.076.19a14.476,14.476,0,0,0-.418,1.6c-.076.152-.19.494-.266.646l.038-.114c-.038.152-.076.228-.152.57-.114.342.038-.19-.038.038a9.793,9.793,0,0,0-.494,2.166,3.833,3.833,0,0,0,.114,2.28,5.565,5.565,0,0,0,1.406,2.014,6.329,6.329,0,0,1-1.064-2.09,3.765,3.765,0,0,0,.418.646h0a4.316,4.316,0,0,0,1.178,1.33,3.7,3.7,0,0,1-.57-.38c.228.608,1.444,1.52.646,1.482a2.441,2.441,0,0,0,1.634.608c.266.19.836.228.874.418a2.046,2.046,0,0,1,1.368.3c.608.038,1.178-.038.8-.19-.532-.076-1.064-.152-1.6-.266-.342-.266-.114-.3.152-.38a3.085,3.085,0,0,0,.418-.114,13.578,13.578,0,0,0,3.459.228,3.209,3.209,0,0,1-.646.19c.38,0,.76-.038,1.14-.076-.152.266-.76.646.19.646a19.856,19.856,0,0,0,4.029-2.242,6.139,6.139,0,0,0,1.672-2.775A8.262,8.262,0,0,0,180.083,70.28ZM177,63.515c.076.114.114.152.076.19a2.7,2.7,0,0,0-.532-.38C176.739,63.4,176.929,63.477,177,63.515Zm-12.846,9.046c0-.228,0-.19.038-.228v-.646l.114-.19a12.069,12.069,0,0,1,.646-2.927c0-.038.038-.076.038-.114.038-.114.114-.418.3-1.064a1.55,1.55,0,0,1-.076.266c.076-.266.228-.608.3-.836a7.845,7.845,0,0,0-.532,1.748,9.953,9.953,0,0,0-.646,4.295h0l-.076-.608C164.2,72.219,164.2,72.979,164.158,72.561Zm.228.8h0c.076.228.114.418.19.608A1.914,1.914,0,0,1,164.386,73.359Zm3.345,3.915c-.266-.114-.8-.494-.646-.57a.525.525,0,0,0-.152-.114c.3.152.684.3,1.064.456A.286.286,0,0,1,167.731,77.274Zm8.171-.038a6.179,6.179,0,0,1-1.862.532,4.969,4.969,0,0,0,.988-.342,6.537,6.537,0,0,0,2.432-1.292h0A6.428,6.428,0,0,1,175.9,77.236Z" transform="translate(-102.532 -39.252)" fill="#eb5c00"/>
    <path id="Path_1692" data-name="Path 1692" d="M183.8,105.314a9.17,9.17,0,0,0,1.444-.038l-.076-.076A9.045,9.045,0,0,1,183.8,105.314Z" transform="translate(-114.876 -66.381)" fill="#eb5c00"/>
    <path id="Path_1693" data-name="Path 1693" d="M164.8,96.4a4.446,4.446,0,0,0,.266.95l.152-.19A6.839,6.839,0,0,1,164.8,96.4Z" transform="translate(-103.098 -60.925)" fill="#eb5c00"/>
    <path id="Path_1694" data-name="Path 1694" d="M15.433,94c.038-.456-.076-.912-.228-.646a7.257,7.257,0,0,1-.228,1.254c-.228.266-.3.076-.38-.114a3.587,3.587,0,0,0-.114-.342,10.209,10.209,0,0,0,.228-2.622c.076.152.114.3.19.456a6.728,6.728,0,0,0-.038-.874c.266.114.646.608.684-.152-.494-1.178-1.064-2.052-1.558-3.231a4.681,4.681,0,0,0-1.938-1.6,7.744,7.744,0,0,0-2.432-.684c.266.114-.38,0,.114.114H9.466c-.228-.038-.418-.038-.608-.076.608-.152-.76-.076-.646-.19-.418.076-.608.038-.836.076A1.955,1.955,0,0,0,6.5,85.6c-.456.266.532-.114.836-.114-.076.038-.19.038-.3.076a1.719,1.719,0,0,1,.646,0,5,5,0,0,0-1.482.57c-.038-.038-.114-.076-.266,0-.114,0-.342.19-.57.38s-.418.418-.532.418c-.608.722-1.292,1.216-1.216,1.786-.19.152-.418.342-.608.494a2.058,2.058,0,0,0-.342,1.33c.114.228.3-.38.418.152a1.094,1.094,0,0,1-.114.608c-.114.038-.114-.19-.152-.266a10.616,10.616,0,0,1-.228,1.254c-.038.19-.076.38-.114.608a3.25,3.25,0,0,0,0,.608,5.853,5.853,0,0,0,.874,1.482,2.573,2.573,0,0,0,1.064.8c-.152-.114-.266-.266-.418-.38.608.532.266-.228.874.418.456.456.152.342.114.456.3.228.874.456,1.1.646-.38-.19.228.228.076.114.57.3.684.266,1.178.532-.038,0,.038.038.114.076a3.288,3.288,0,0,1,.38.266l-.076-.076a1.179,1.179,0,0,1,.418.19c.228.114-.152-.038.038.076a3.722,3.722,0,0,0,1.71.456,2.305,2.305,0,0,0,1.824-.114,6.93,6.93,0,0,0,1.6-1.14,5.944,5.944,0,0,1-1.71.684,2.286,2.286,0,0,0,.494-.342h0a4.023,4.023,0,0,0,1.1-.836,2.365,2.365,0,0,1-.3.456c.532-.076,1.33-1.026,1.33-.3.532-.57.418-.8.532-1.292.114-.228.228-.646.38-.684C15.129,94.574,15.091,94.612,15.433,94Zm-.684-3.117a2.622,2.622,0,0,0-.266-.722,5.358,5.358,0,0,0-.836-1.976h0A4.625,4.625,0,0,1,14.749,90.887ZM4.6,87.694c-.076.114-.19.266-.266.38a3.5,3.5,0,0,0,.114-.342C4.525,87.694,4.563,87.656,4.6,87.694ZM10.53,98.412c-.152,0-.152-.038-.19-.038H9.846l-.114-.19a9.645,9.645,0,0,1-2.242-.494H7.451a4.268,4.268,0,0,0-.722-.532c.114.076.038-.038.19.076a3.737,3.737,0,0,1-.57-.456c.418.3.8.608,1.14.874a7.271,7.271,0,0,0,3.269.494,1.908,1.908,0,0,1-.456.076C10.264,98.336,10.872,98.336,10.53,98.412Zm.608-.3h0c.19-.076.342-.114.456-.152A.721.721,0,0,1,11.138,98.108ZM13.8,96.17l-.114.114a7.6,7.6,0,0,0,.38-.8.282.282,0,0,1,.228.228C14.179,95.942,13.875,96.284,13.8,96.17Z" transform="translate(-2.456 -54.044)" fill="#eb5c00"/>
    <path id="Path_1695" data-name="Path 1695" d="M35.5,102.376a9.414,9.414,0,0,1,.114,1.026,10.682,10.682,0,0,0-.038-1.1Z" transform="translate(-22.941 -64.583)" fill="#eb5c00"/>
    <path id="Path_1696" data-name="Path 1696" d="M28.3,119.5l.38-.038.418-.076-.19-.19A2.272,2.272,0,0,1,28.3,119.5Z" transform="translate(-18.477 -75.06)" fill="#eb5c00"/>
  </g>
</svg>
