<svg xmlns="http://www.w3.org/2000/svg" xmlns:xlink="http://www.w3.org/1999/xlink" width="94.581" height="73.629" viewBox="0 0 94.581 73.629">
  <defs>
    <filter id="Path_276" x="0" y="0" width="94.581" height="73.629" filterUnits="userSpaceOnUse">
      <feOffset dy="3" input="SourceAlpha"/>
      <feGaussianBlur stdDeviation="5" result="blur"/>
      <feFlood flood-color="#003153" flood-opacity="0.302"/>
      <feComposite operator="in" in2="blur"/>
      <feComposite in="SourceGraphic"/>
    </filter>
  </defs>
  <g id="More_Arrow" data-name="More Arrow" transform="translate(-948.801 -465.427)">
    <path id="Path_266" data-name="Path 266" d="M1012.012,481.533c1.042.675.714.142.028-.667-.344-.4-.777-.876-1.174-1.3l-1.166-1.232.23.524C1009.482,478.867,1010.977,480.6,1012.012,481.533Z" transform="translate(11.818 0.233)" fill="#fff"/>
    <path id="Path_267" data-name="Path 267" d="M987.178,493.113c1.118,1.185,2.563,3.1,1.87,2.926a2.721,2.721,0,0,0,.673.607.8.8,0,0,0,.561.052.753.753,0,0,0,.485-.494c.072-.2.092-.41.161-.61a1.041,1.041,0,0,1,.2-.293l.366-.449c.278-.326.625-.708,1.066-1.166-.44.324-.876.687-1.308,1.076l-.708.649a.5.5,0,0,1-.707-.033c.005.016-.151-.135-.262-.236l-.349-.328-.693-.658c-.459-.44-.912-.884-1.347-1.332a23.43,23.43,0,0,1-2.339-2.756c-1.3-1.315-1.714-1.094-1.108-.366A38.909,38.909,0,0,0,987.178,493.113Z" transform="translate(5.062 3.01)" fill="#fff"/>
    <path id="Path_268" data-name="Path 268" d="M980.357,486.173c-.27.42,2.2,3.253,3.359,4.367.033-.781-2.2-3.217-3.337-4.556C980.368,486.053,980.288,486.073,980.357,486.173Z" transform="translate(4.256 2.203)" fill="#fff"/>
    <path id="Path_269" data-name="Path 269" d="M980.053,485.6c.106.133.243.3.4.479C980.459,486.013,980.4,485.9,980.053,485.6Z" transform="translate(4.184 2.105)" fill="#fff"/>
    <path id="Path_270" data-name="Path 270" d="M981.723,489.332a9.033,9.033,0,0,0-1.909-2.04l.562.8C980.7,488.416,981.681,489.811,981.723,489.332Z" transform="translate(4.123 2.54)" fill="#fff"/>
    <path id="Path_271" data-name="Path 271" d="M975.6,481.849l-.01-.819-1.161-1.114c1.908,2.041-1.669-1.161-.131.62Z" transform="translate(2.601 0.641)" fill="#fff"/>
    <path id="Path_272" data-name="Path 272" d="M972.413,477.84a3.574,3.574,0,0,0-2.92.195,4.16,4.16,0,0,0-.736.806,4.336,4.336,0,0,1,2-.975A4.7,4.7,0,0,1,972.413,477.84Z" transform="translate(1.276 0.055)" fill="#fff"/>
    <path id="Path_273" data-name="Path 273" d="M973.706,480.85c.417.391.275.091-.021-.333a8.252,8.252,0,0,0-.514-.654,2.907,2.907,0,0,0-.536-.5,2.349,2.349,0,0,1,.406.743A2.054,2.054,0,0,0,973.706,480.85Z" transform="translate(2.275 0.499)" fill="#fff"/>
    <path id="Path_274" data-name="Path 274" d="M1008.933,495.414l.464-.246,1.39-1.792A8.667,8.667,0,0,0,1008.933,495.414Z" transform="translate(11.62 4.106)" fill="#fff"/>
    <path id="Path_275" data-name="Path 275" d="M1016.04,484.1l-.76-.748-.44-.415c-.293-.264-.575-.521-.849-.77-.522-.172-.478-.018-.174.368.162.194.37.443.616.741l1.007,1.249c.1.15.223.293.308.448a4.134,4.134,0,0,1,.822,2.961,4.682,4.682,0,0,1-1.508,2.817c-.958,1.108-1.724,2.036-2.65,2.965l-.874,1.317c.905-.821,2.067-1.909,3.284-3.1.279-.342,2.184-1.8,2.443-3.365A4.675,4.675,0,0,0,1016.04,484.1Z" transform="translate(12.292 1.203)" fill="#fff"/>
    <g transform="matrix(1, 0, 0, 1, 948.8, 465.43)" filter="url(#Path_276)">
      <path id="Path_276-2" data-name="Path 276" d="M1026.9,491.717a6.713,6.713,0,0,0,1.089-1.305,2.981,2.981,0,0,0,.386-1.2c.04-.685-.143-.966-.284-.665a3.926,3.926,0,0,0-.992-2.364,9.051,9.051,0,0,1-.885-1.3,9.687,9.687,0,0,0-.894-1.263,19.109,19.109,0,0,1-2.909-2.792l-1.364-1.661a4.261,4.261,0,0,0-2.616-1.671,4.093,4.093,0,0,0-3.116.716,7.518,7.518,0,0,0-.68.576l-.547.494-.75.672a20.323,20.323,0,0,0-2.828,3.207c-.034-.552-2.084,1.632-2.922,2.443-1.8,1.807-6.042,6.089-4.567,5.672,1.584-.88,3.442-3.977,5.667-5.524,3.794-2.7-3.12,3.645-2.678,4.184.376-.565,1.068-.4,2.334-2.009-1.35,1.6-.978,1.479-.373,1.141l-2.511,2.566c-.636.216-1.071.223-1.124-.078a30.463,30.463,0,0,0-5.625,5.421L997.4,498.48l-.676.762c-.153.174-.309.356-.479.529a1.227,1.227,0,0,1-1.368.246,1.438,1.438,0,0,1-.571-.5l-.567-.729c-.886-1.125-2.98-3.293-3.346-3.142-.274.215.414,1.024,1.378,2.026.488.5,1.035,1.051,1.572,1.6l.706.736a2.2,2.2,0,0,0,.692.563,1.554,1.554,0,0,1-.89-.445c-.284-.231-.609-.526-.939-.846-.658-.634-1.334-1.356-2.023-2.109-1.379-1.505-2.81-3.136-4.251-4.444l.683,1.03-4.68-4.785c-.568-.688-1.14-1.353-1.721-1.954l.972.576c-1.442-1.513-2.754-3.643-3.536-3.681a22.168,22.168,0,0,0,2.188,2.437c.044.3-.6-.279-.914-.458l-3.541-3.619a7.693,7.693,0,0,1-.518-.707,10.977,10.977,0,0,1-1-.848l-.531-.543a1.929,1.929,0,0,0-2.756,0l-6.93,7.085a1.93,1.93,0,0,0,0,2.7l6.965,7.12a2.886,2.886,0,0,1,.482.9c1.271,1.1,2.538,2.272,3.8,3.474l18.373,18.784a1.908,1.908,0,0,0,1.212.563,1.538,1.538,0,0,0,.16.107,1.955,1.955,0,0,0,1.475,0,2.819,2.819,0,0,0,.42-.205l.337-.176.708-.389a80.254,80.254,0,0,0,6.9-4.519c.1-.14.186-.261.162-.278,2.246-2.329,5.685-5.249,7.686-8.26-1.231,1.1-1.372,1.012-3.243,2.775.841-1.869,2.834-2.763,4.439-4.426-1.426,1.245.091-.738,1.179-1.925,2.262-2.053,5.6-5.569,8.487-8.563C1024.43,494.213,1025.787,492.88,1026.9,491.717Z" transform="translate(-948.8 -465.43)" fill="#fff"/>
    </g>
  </g>
</svg>
